<svg version="1.1" xmlns="http://www.w3.org/2000/svg" xmlns:xlink="http://www.w3.org/1999/xlink" width="213.56245" height="71.41989" viewBox="0,0,213.56245,71.41989"><g transform="translate(-29.2853,-126.86014)"><g stroke="none" stroke-miterlimit="10"><path d="M81.56175,130.25456l-0.42285,-0.02675l-2.45609,-0.15619l-2.46055,-0.00168l-2.5438,-0.00114l-2.02734,-0.14348l-2.45593,-0.12955l-1.82242,-0.01388l-1.8925,-0.28851l-1.60753,-0.13429l-2.07632,0.00108h-6.10102l-1.78785,-0.00128l-1.56073,0.14188l-1.49419,-0.0048l-1.41884,0.28377l-1.76914,0.0048l-2.32735,0.20828l-2.39032,0.63363l-1.5339,0.00976l-1.78795,0.13842l-1.53963,0.13994l-1.19266,0.13046l-1.74936,0.40561l-1.0191,0.13304l-0.19168,0.90176l-0.11521,1.77032l0.00066,2.38641l-0.07615,2.51778l-0.06573,2.1644l-0.00003,2.4605l0.08174,2.47809l0.05949,1.80738l0.09788,2.45891l0.23564,2.454l0.23484,2.51319l-0.25078,2.55609l-0.03382,2.45281l-0.1437,2.44772l-0.17865,2.50147l-0.10544,1.47616l-0.14642,2.1789l-0.2799,1.80307l0.00364,2.40469l-0.00192,2.25131l-0.14188,1.27696l0.00191,1.34972v2.5l-0.00196,2.57005l-0.28902,2.58135l-0.3875,2.46218l-0.18127,1.8079l-0.2818,2.11037l-0.1362,1.90374l-0.00667,1.51068l-0.5135,0.40795l1.4292,-0.26779l2.29372,-0.41167l2.46285,-0.42942l1.39995,-0.24398l2.48983,-0.36626l2.37614,-0.34916l2.5118,-0.26467l2.49103,-0.2622l2.49297,-0.24311l2.33804,-0.22796l2.50012,-0.20837l2.49508,-0.20792l2.02146,-0.15539l1.75084,-0.00093h1.56072l2.18661,0.01614l1.37045,0.44452l1.74455,0.26388l2.42757,0.38923l2.4116,0.20842l2.44891,0.077l2.48079,0.01613l2.49649,0.00232l1.24756,0.00247l1.45735,-0.13293l1.75896,-0.28972l2.53675,-0.0025l1.33088,-0.14188l1.34331,-0.00177l2.53592,0.00052l2.46594,0.14189l1.38293,-0.00052l2.5863,0.00298l2.07917,0.28707l2.18398,0.13621l1.31757,0.00095l0.71388,0.11973l0.13005,-0.90727l0.45255,-2.35859l0.36336,-1.86334l0.14364,-2.41413l0.13235,-2.18362l0.1385,-2.49301l0.13696,-2.44952l-0.04788,-2.45288l-0.04791,-2.49954l-0.03982,-2.08075l-0.00006,-2.51198v-7.5l0.0002,-1.6122l-0.08863,-2.4761l-0.04904,-1.41393l-0.28041,-2.09408l-0.14838,-1.6433l-0.00128,-1.3336l0.00027,-2.15429l0.10419,-2.50268l0.01902,-2.47874l0.01841,-2.37538l-0.00001,-1.69777v-6.47276l0.00156,-1.41049l-0.12493,-1.26677l-0.0874,-1.04252l-0.8334,-0.06115l-2.20711,0.01046l-2.19259,0.13705l-2.30904,0.2868l-2.27145,0.0007l-2.49346,-0.26211l-1.84664,-0.01996l-1.41712,-0.00744l-0.30051,0.06678c-0.37885,0.80406 -1.33646,0.62994 -1.33646,0.62994l-1.48589,-0.27249l-2.36217,-0.13692l-2.4904,-0.24899l-1.18101,-0.07471l-0.13882,0.02685c0,0 -0.36414,0.06069 -0.72962,-0.08178zM82.35068,127.79965l0.5865,-0.08818l1.31856,0.0007l2.20581,0.14688l2.22867,0.28049l1.34665,0.00505l1.27696,-0.28377l1.70433,-0.00745l1.97765,0.02416l2.47907,0.26131l1.98507,0.0007l2.23126,-0.28074l2.34771,-0.14673l2.61695,0.01046l2.28804,0.79016l0.76391,2.3627l0.15884,1.57092l0.00155,1.53502v6.47276l-0.00001,1.70745l-0.01847,2.38506l-0.01971,2.52111l-0.10397,2.49299l0.00027,2.10224l-0.00128,1.22031l0.13539,1.47815l0.28713,2.16245l0.05628,1.53477l0.08982,2.52071l0.0002,1.65681v7.5l-0.00006,2.48802l0.03947,2.0568l0.04791,2.49954l0.04793,2.5462l-0.14039,2.54279l-0.13885,2.49929l-0.13272,2.1899l-0.15883,2.57671l-0.38914,2.02458l-0.49756,2.55031l-1.00503,2.21418l-2.12381,0.40349l-1.52012,0.00095l-2.35631,-0.14756l-2.00142,-0.28047l-2.4137,0.00298l-1.45476,-0.00052l-2.46595,-0.14189l-2.46408,0.00052l-1.21061,-0.00176l-1.33088,0.14188l-2.46325,-0.0025l-1.64626,0.27782l-1.66411,0.15084l-1.36201,0.00005l-2.50351,-0.00234l-2.5191,-0.01656l-2.5486,-0.08089l-2.56976,-0.22281l-2.50964,-0.40072l-1.94444,-0.30366l-1.18346,-0.40679l-1.78615,0.01614h-1.56072l-1.65439,-0.00093l-1.91773,0.14923l-2.48765,0.20731l-2.4826,0.20685l-2.32053,0.22631l-2.48343,0.24216l-2.48149,0.26122l-2.46073,0.25876l-2.3252,0.3422l-2.45696,0.36121l-1.36713,0.23848l-2.46285,0.42942l-2.63197,0.44716l-3.54598,-0.76531l0.05404,-2.14597l-0.00667,-1.32701l0.14758,-2.06901l0.28573,-2.14616l0.18484,-1.83702l0.38947,-2.47709l0.27051,-2.38725l-0.00196,-2.42995v-2.5l0.00192,-1.48797l0.14188,-1.27696l-0.00191,-2.11306l0.00364,-2.59531l0.28763,-1.88591l0.13735,-2.07764l0.10586,-1.48207l0.17759,-2.48582l0.14007,-2.37634l0.0362,-2.50389l0.24674,-2.41909l-0.22345,-2.26956l-0.2413,-2.52321l-0.10196,-2.53709l-0.05979,-1.81621l-0.08275,-2.5192l-0.00003,-2.5395l0.06659,-2.20225l0.0753,-2.47992l0.00065,-2.43766l0.16856,-2.20244l0.94339,-2.21969l2.10236,-0.71827l1.93963,-0.4457l1.36126,-0.15331l1.58182,-0.14383l1.90105,-0.14534l1.30378,0.00976l2.27834,-0.61631l2.65211,-0.24439l1.63609,0.0048l1.41884,-0.28377l1.62725,-0.0048l1.56072,-0.14189l1.90114,-0.00128h6.10102l2.18021,0.00108l1.79769,0.14948l1.79649,0.27902l1.69754,0.00709l2.53717,0.13325l1.96186,0.14029l2.45621,-0.00044l2.53944,0.00297l2.53391,0.1599z" fill="#000000" stroke-width="0.5"/><path d="M82.3096,130.28978l0.13898,-0.02678l1.18249,0.07532l2.49339,0.2504l2.36473,0.13832l1.4875,0.27348c0,0 0.95845,0.17467 1.3373,-0.62939l0.30073,-0.06662l1.41833,0.00829l1.84811,0.02106l2.4954,0.2637l2.27291,0.00062l2.31021,-0.28567l2.19366,-0.13594l2.20815,-0.00931l0.8338,0.06159l0.08796,1.04318l0.12561,1.26761l-0.00084,1.41141l0.00328,6.47764l0.00085,1.69925l-0.01728,2.37759l-0.01791,2.48122l-0.10316,2.50534l0.00052,2.15676l0.00172,1.33519l0.14886,1.64535l0.28091,2.09677l0.04928,1.41575l0.08891,2.47932l-0.00013,1.61431l-0.00082,7.50967l-0.00061,2.51504l0.03915,2.08318l0.04698,2.50231l0.04687,2.45542l-0.1381,2.45197l-0.13973,2.49533l-0.13347,2.18551l-0.14491,2.41606l-0.36445,1.86485l-0.45394,2.36037l-0.13057,0.90789l-0.71413,-0.11943l-1.31817,-0.00025l-2.185,-0.1351l-2.08016,-0.28606l-2.5879,-0.00146l-1.38387,0.00135l-2.46771,-0.14043l-2.53805,0.00107l-1.34454,0.0026l-1.33227,0.14278l-2.53945,0.00404l-1.76116,0.29083l-1.4592,0.13376l-1.24916,-0.00183l-2.49989,-0.00116l-2.48439,-0.01519l-2.45264,-0.07632l-2.41541,-0.20802l-2.43151,-0.38913l-1.74744,-0.264l-1.37278,-0.44474l-2.19016,-0.01669l-1.56318,-0.00054l-1.75348,0.00021l-2.02428,0.15445l-2.49827,0.20661l-2.503,0.20697l-2.34043,0.2266l-2.49525,0.24165l-2.49304,0.26077l-2.51359,0.26325l-2.37758,0.34793l-2.49117,0.36503l-1.4006,0.24334l-2.46391,0.42833l-2.29459,0.41072l-1.42969,0.26723l0.51352,-0.40793l0.00592,-1.51156l0.13528,-1.90487l0.28084,-2.11164l0.1804,-1.80912l0.38636,-2.46391l0.28778,-2.58343l0.00068,-2.57249l-0.00118,-2.50257l-0.00251,-1.35119l0.14138,-1.27835l0.00105,-2.25397l-0.00442,-2.40768l0.27945,-1.80534l0.14599,-2.18179l0.10525,-1.47817l0.17851,-2.50495l0.14379,-2.45117l0.03414,-2.45622l0.25137,-2.55961l-0.23409,-2.51639l-0.23474,-2.45692l-0.09684,-2.46169l-0.05865,-1.8093l-0.08053,-2.48054l0.00129,-2.46277l0.0669,-2.16627l0.07753,-2.51978l0.00062,-2.38809l0.11619,-1.77152l0.19224,-0.90241l1.01965,-0.13366l1.75046,-0.40679l1.19338,-0.13119l1.54062,-0.14088l1.78915,-0.13953l1.53496,-0.01065l2.39249,-0.63533l2.32941,-0.20973l1.77074,-0.00583l1.42038,-0.28467l1.49572,0.00397l1.56249,-0.14275l1.78989,0.00037l6.10887,-0.00254l2.07925,-0.00168l1.60984,0.13394l1.89527,0.28825l1.82518,0.01377l2.45967,0.12964l2.03042,0.14377l2.54754,0.00176l2.46402,0.00251l2.45942,0.15724l0.42341,0.02695c0.36549,0.14247 0.73058,0.08215 0.73058,0.08215z" fill="#ffffff" stroke-width="0.5"/><text transform="translate(120.34718,147.9836) scale(0.5,0.5)" font-size="40" xml:space="preserve" fill="#ffffff" stroke-width="1" font-family="&quot;RifficFree-Bold&quot;, Sans Serif" font-weight="normal" text-anchor="start"><tspan x="0" dy="0">instagram</tspan></text><text transform="translate(116.64896,177.5694) scale(0.5,0.5)" font-size="40" xml:space="preserve" fill="#ffffff" stroke-width="1" font-family="&quot;segoeuib&quot;, Sans Serif" font-weight="normal" text-anchor="start"><tspan x="0" dy="0">@XinWonder</tspan></text><path d="M53.22931,134.26588c-0.10306,-0.36768 -0.13651,-0.98681 0.58611,-1.39973c1.0853,-0.62017 1.70548,0.46513 1.70548,0.46513l0.48967,0.86975l0.8536,1.9214l0.60743,1.21761l1.30932,2.07565l0.55118,1.20943l0.72555,1.24062l1.09241,1.85753l0.71064,1.33006l0.71156,0.89233l1.24695,1.03523l0.74067,1.20169l0.95672,1.27366l0.88506,1.32673l1.22475,1.8481l0.96207,0.95347l1.74836,1.74877l0.47566,0.84354l0.07813,-0.4147l0.73934,-1.43998l0.63012,-1.04704l0.55503,-1.21612l1.06807,-1.59732l0.64294,-1.61087l0.80349,-1.27236l1.06041,-1.80275l0.64316,-1.17942l0.96297,-1.71124l0.70946,-1.4139l0.59498,-1.72131l1.04373,-2.6156l1.55703,-1.32219l2.25786,-0.07885l1.62267,0.21636l1.47762,-0.00119l2.38112,-0.20823l2.19588,1.21032l-0.88554,2.68118l-1.01124,1.13406l-0.71005,1.12344l-1.2469,1.81002l-0.90122,1.02272l-1.41671,1.98345l-1.42453,1.98168l-1.22302,2.11073l-1.21623,2.09085l-0.93023,2.23283l-0.95293,2.27941l-0.84398,2.32196l-0.79251,2.10494l0.01273,1.25436l0.88497,0.77299l0.9736,1.29814l1.12953,1.12508l1.27276,1.28136l0.86543,1.29814l0.94876,0.94286l1.14571,0.92687l1.11762,1.47704l0.86722,1.503l0.5877,2.07788l0.62981,1.99597l0.70961,1.83088l0.94824,1.72575l1.20486,1.18828l1.16875,1.29154l1.04782,1.62248l0.87192,1.54024l0.08833,3.50169l-2.13936,0.42674l-1.25041,0.21148l-1.40041,0.10745l-1.83903,0.32453l-1.89283,0.07376l-1.65512,-1.09874l-0.91745,-1.39702l-0.62307,-1.04146l-0.98508,-1.31552l-1.10025,-1.97657l-1.03882,-1.55695l-1.21204,-1.65532l-1.2323,-2.12424l-1.2987,-2.16537l-1.00766,-1.91113l-1.13024,-2.14919l-1.37297,-2.00393l-0.45999,-1.52329l0.1339,0.55211l-0.78883,1.49858l-0.68689,1.25527l-0.82657,1.18226l-1.04106,1.24169l-0.60051,1.11259l-1.19906,1.96269l-0.7701,1.31918l-1.08299,1.62461l-1.10485,1.87449l-1.02954,1.32185l-0.41724,1.10124l-0.92863,2.37217l-1.34011,2.63065l-1.9014,0.98837l-1.76268,0.03283l-1.73085,0.10818h-2.34975l-2.09968,-0.17597l-2.56132,-2.20098l1.29654,-2.18624l0.73124,-1.25953l1.12269,-1.57391l0.91894,-1.21698l1.06304,-2.13222l1.22532,-1.84117l0.90066,-2.30776l1.25591,-2.06389l1.30731,-1.96275l1.26191,-2.10363l0.97088,-1.72588l1.22132,-2.17069l1.15575,-2.1234l0.82174,-1.6184l-0.86563,-0.85809l-0.95936,-1.49468l-1.08901,-1.30809l-0.88892,-1.44017l-0.80372,-1.10568l-1.51747,-1.73459l-1.16078,-1.61958l-1.45014,-2.14189l-1.21146,-2.30966l-0.91396,-2.05497l-1.35745,-1.65989l-1.68752,-1.88786l-0.87786,-1.20292l-1.47096,-2.02013l-1.66434,-2.40229l0.44981,-3.10134l2.37204,-0.34054h1.73085l2.02212,0.00803z" fill="#000000" stroke-width="0.5"/></g></g></svg>