<svg version="1.1" xmlns="http://www.w3.org/2000/svg" xmlns:xlink="http://www.w3.org/1999/xlink" width="613.15164" height="195.94583" viewBox="0,0,613.15164,195.94583"><g transform="translate(-15.76106,-98.01162)"><g fill="#ffffff" stroke="none" stroke-width="0.5" stroke-miterlimit="10"><path d="M40.90419,171.7636c-1.25865,-0.31466 -0.94398,-1.5733 -0.94398,-1.5733l0.09329,-0.21348l0.00251,-1.66504l0.26721,-2.15294l0.12701,-2.03207l-0.00063,-1.41191l0.00003,-1.57623l-0.03192,-2.5316l-0.08838,-2.45166l-0.52029,-2.19419l-0.26857,-2.27187l-0.38332,-2.00525l-0.48171,-2.52654l-0.56911,-2.50324l-0.50318,-2.15231l-0.54304,-1.78798l-1.05461,-0.11416l-1.46572,-0.39966l-1.28323,-0.36187l-1.22876,0.00897l-2.11257,-0.26407l-1.25526,-0.00274l-1.31691,0.2446l-1.69022,0.35424l-1.48032,0.68629l-1.07274,0.73954l-0.72067,0.93987l-0.83003,1.6694l-0.47064,1.28966l-0.22817,1.14774l-0.12696,1.6747l-0.26311,1.97103l-0.12616,2.03271l0.00572,2.51134l0.1685,2.52159l0.27416,2.56451l0.23588,2.59428l0.23453,2.57986l0.14333,1.46945l0.2565,2.6459l-0.00089,2.69021l-0.20761,0.54866l0.07403,0.45056l-0.26543,0.05526l-1.05993,2.80111l-1.26055,-2.64235l-0.25669,-1.5168l-0.27015,-2.56152l-0.12878,-1.55384l-0.20753,-1.34748l-0.45271,-2.61412l-0.13892,-2.19194l-0.08597,-1.74034l-0.12723,-2.57794l-0.18413,-2.62029l-0.0008,-2.64044v-1.63038l0.00053,-2.63171l0.10563,-1.86111l0.14776,-2.59054l0.14673,-2.56969l0.0636,-2.57309l0.06399,-2.57789l-0.00003,-2.56571l-0.02808,-1.40032l-0.05188,-2.59424l-0.04943,-2.53628l-0.24463,-2.21461l-0.28703,-2.61765l-0.13207,-2.63002l-0.12769,-2.56102l-0.21967,-2.25203l-0.25148,-2.58254l-0.2527,-2.59565l-0.20008,-2.60025c0,0 -0.09951,-1.29356 1.19405,-1.39306c1.29356,-0.0995 1.39306,1.19406 1.39306,1.19406l0.19793,2.57399l0.25028,2.56943l0.25148,2.58254l0.22487,2.31294l0.13146,2.62202l0.12708,2.55302l0.27974,2.54083l0.25472,2.3302l0.05434,2.6522l0.05188,2.59424l0.02846,1.42625l-0.00004,2.62381l-0.06458,2.61004l-0.06498,2.61484l-0.05171,0.90759l0.16304,-0.32458l1.12783,-1.43676l1.56797,-1.10895l1.9526,-0.89814l2.00677,-0.43798l1.58787,-0.28354l1.64951,-0.00274l2.11257,0.26408l1.41194,0.00897l1.62155,0.43034l1.43905,0.39255l2.11425,0.67804l1.30545,2.96529l0.5531,2.33689l0.581,2.55723l0.4906,2.57108l0.39904,2.09649l0.25957,2.21733l0.53599,2.29502l0.11107,2.73403l0.03271,2.58147l0.00003,1.59262l-0.00063,1.49288l-0.13706,2.19306l-0.26092,2.0722l0.0025,1.50381l-0.17077,0.8428c0,0 -0.31466,1.25864 -1.57331,0.94398z"/><path d="M74.74898,163.51395c0.91738,0.91738 0,1.83477 0,1.83477l-1.05628,1.05628l-1.23442,1.22549l-1.38384,2.05239l-1.64751,1.24437l-2.28372,1.66567l-2.26334,0.65207l-2.23284,-0.06158l-2.57757,-0.46704l-1.91797,-0.14272l-2.49539,-0.7326l-2.79449,-1.08308l-1.78005,-2.34391l-0.0691,-1.73812v-4.13904l0.00071,-0.38988c-0.30675,-0.14842 -0.60223,-0.4445 -0.65556,-1.03114c-0.06612,-0.72736 0.31445,-1.08248 0.65973,-1.25395l0.00006,-0.03295l0.41721,-2.39012l0.43869,-1.87414l0.75495,-1.66633l0.86709,-1.30734l0.76004,-1.00862l0.95302,-1.65484l1.83965,-1.12794l1.53589,-0.97101l2.32808,-0.91183l1.64731,-0.0203l2.65493,0.13277l1.3418,0.13382l1.90397,0.20278l2.27,1.57281l1.18185,2.46666l0.31036,2.6555l-0.02742,1.93082l-0.93981,2.0182l-1.64255,1.13409l-2.28795,0.62322l-1.55244,0.1458l-2.44771,0.25663l-2.06636,0.3885l-2.19813,0.39237l-2.48922,0.65007l-1.94745,0.41557l-1.0168,0.10314l0.00083,0.41766v4.13904l-0.0691,0.90259l0.86065,1.089l2.07506,0.71097l2.14161,0.6422l1.77902,0.12134l2.52824,0.46129l1.63976,0.06638l1.43364,-0.40422l1.88636,-1.42328l1.31233,-0.9481l1.25686,-1.90868l1.40629,-1.41521l1.05628,-1.05628c0,0 0.91739,-0.91738 1.83477,0zM53.70078,159.50383l0.52083,-0.05124l1.74954,-0.37664l2.53224,-0.65989l2.28695,-0.41025l2.15878,-0.40371l2.56964,-0.27152l1.35234,-0.11827l1.67311,-0.43306l0.73408,-0.45033l0.38055,-0.88658l-0.02742,-1.23802l-0.21778,-2.09778l-0.66665,-1.49441l-1.16292,-0.80382l-1.26488,-0.06129l-1.2989,-0.13025l-2.52812,-0.12638l-1.09177,-0.02521l-1.63299,0.67259l-1.36888,0.87748l-1.3292,0.72056l-0.63142,1.24993l-0.82437,1.10395l-0.71734,1.0693l-0.5654,1.23845l-0.35352,1.55878z"/><path d="M94.81246,146.71536l-1.79849,-0.00321l-2.5048,-0.375l-2.21923,0.20362l-1.01977,0.4742l-2.11715,1.04019l-0.99584,0.98206l-0.36765,0.97584l-0.22372,1.13689l-0.13536,1.47399l-0.52965,2.2537l-0.25839,2.47198l-0.41158,2.34749l-0.37165,2.4541l0.00013,0.65257l0.04674,0.24605l0.3496,2.47826l0.00323,1.54397v2.11256l-1.27937,2.61761l-0.93932,-2.61082l-0.37608,-0.00679v-1.03851l-0.07154,-0.19887l-0.05582,-2.08561l-0.26548,-1.86646l0.00015,-0.91862l-0.41479,-2.20472l-0.16319,-2.67198l-0.15509,-2.58108l-0.19408,-2.63813l0.02764,-1.62427l0.0494,-2.66336l0.32858,-2.64347c0,0 0.16091,-1.28736 1.44828,-1.12644c1.28736,0.16092 1.12644,1.44828 1.12644,1.44828l-0.3151,2.50597l-0.03747,2.18767l0.02586,-0.2875l0.30442,-1.50383l0.68863,-1.66487l1.64487,-1.65865l2.52449,-1.28063l1.4685,-0.6379l2.9469,-0.28839l2.62782,0.38108l1.60797,-0.00318c0.00894,-0.00029 0.0137,-0.00029 0.0137,-0.00029l0.00001,0.00026l0.13202,-0.00026l-0.06602,1.29738l0.06602,1.29738l-0.13203,-0.00023l-0.00001,0.00023c0,0 -0.00443,0 -0.01276,-0.00026z"/><path d="M122.87752,157.24931c0.84432,0.98504 -0.14072,1.82937 -0.14072,1.82937l-1.14732,0.94613l-1.48654,0.81019l-2.28365,1.07528l-1.91598,0.86596l-2.64184,0.30603l-2.82787,-0.25644l-2.7574,-0.75598l-1.48559,-0.80612l-1.66256,-0.56529l-2.41009,-1.8101l-1.04069,-2.52989l-0.01007,-0.92905l-1.09259,0.00056c0,0 -1.29738,0 -1.29738,-1.29738c0,-1.29738 1.29738,-1.29738 1.29738,-1.29738l1.41383,0.00075l0.14391,-0.80428l0.63467,-2.63614l0.89488,-2.35598l1.03177,-1.36909l2.30927,-1.60761l1.47724,-0.8784l1.9401,-0.65016l3.10146,-0.10112l2.65109,1.46551l0.35398,2.25786l-0.04035,2.35989l-0.83377,1.57829l-1.09725,1.39831l-1.85811,1.39393l-2.14691,0.87075l-2.3319,0.86862l-2.67157,0.38891l-1.31045,0.26005l-0.01126,0.59249l0.54374,1.43117l1.55097,1.09468l1.50629,0.49099l1.41918,0.7783l2.24927,0.60948l2.34016,0.21528l1.97142,-0.21079l1.51694,-0.71846l2.20556,-1.03729l1.41824,-0.77424l0.70118,-0.63829c0,0 0.98504,-0.84432 1.82936,0.14072zM104.07651,152.54489l0.43232,-0.08718l2.46579,-0.345l2.03729,-0.77411l1.81415,-0.71367l1.31074,-0.98271l0.75124,-0.97833l0.48658,-0.79835l-0.04035,-1.60117l0.0899,-0.91099l-1.0459,-0.38299l-2.08357,0.11492l-1.32515,0.45415l-1.16346,0.70603l-1.91587,1.29717l-0.55264,0.74348l-0.68954,1.86915z"/><path d="M122.04749,171.16514c0,-1.29738 1.29738,-1.29738 1.29738,-1.29738h3.16885l2.41263,0.0005l2.33485,0.13155l1.42598,-0.09434l2.48466,-0.15602l1.36414,-0.29185l1.57378,-1.15943l0.71572,-1.16724l1.33955,-2.09876l0.94446,-2.2101l0.6429,-2.30359l0.21439,-2.34783l-0.0802,-1.95106l-0.60678,-0.32322l-1.35247,-0.67904l-1.44209,-0.35255l-2.01523,-0.48079l-2.52744,-0.7218l-2.23356,-0.65703l-2.19836,-0.61094l-1.82038,-1.34759l-2.11847,-2.37737l-0.09137,-1.93066l0.01375,-1.77282l0.44286,-1.52354l0.59993,-1.76361l1.19032,-1.80044l1.76274,-2.30356l1.54897,-0.88285l2.69349,-0.74523l1.80939,-0.01093l2.46496,0.19162l2.73154,0.60014l2.50693,1.02034c0,0 1.20079,0.49123 0.70956,1.69202c-0.49123,1.20078 -1.69202,0.70956 -1.69202,0.70956l-2.29621,-0.94458l-2.33776,-0.5104l-2.18649,-0.16584l-1.35946,-0.01094l-2.05978,0.57513l-0.82766,0.43751l-1.35097,1.84805l-0.97738,1.44193l-0.45635,1.40523l-0.34935,1.11717l0.01375,1.39603l-0.09137,0.97412l1.43824,1.40164l1.22467,0.94704l1.7627,0.44534l2.25564,0.66332l2.46241,0.70387l1.97333,0.47018l1.72676,0.43966l1.81638,0.90539l1.50578,1.26121l0.41181,3.21508l-0.25678,2.82026l-0.74713,2.69631l-1.09754,2.56079l-1.44499,2.28044l-1.01068,1.54785l-2.38728,1.74535l-2.06878,0.50036l-2.6941,0.17809l-1.58145,0.0997l-2.41843,-0.13252l-2.34064,0.0005h-3.16885c0,0 -1.29738,0 -1.29738,-1.29738z"/><path d="M207.4514,100.02104c1.29738,0 1.29738,1.29738 1.29738,1.29738v11.26896l-0.00018,2.57314l0.04505,1.34614l0.08336,2.53716l0.21614,1.78162l0.31389,2.60489l0.19788,2.61627l0.39076,5.17479l0.19364,2.5666l0.27641,2.55902l0.27848,2.57977l0.278,2.57544l0.29532,2.5735l0.29582,2.57785l0.29643,2.5833l0.23501,2.2133l0.54791,5.16052l0.2794,2.64865l-0.02159,2.90869l-1.65978,2.36456l-2.43326,-2.33913l-1.50175,-2.14917l-1.33161,-2.13857l-1.6849,-1.88984l-1.08735,-1.41223l-1.55998,-2.02877l-1.47765,-1.71652l-1.69241,-1.96686l-1.73082,-2.01366l-1.43925,-2.0256l-1.53579,-2.16653l-0.71554,-1.23741l-1.298,-2.24986l-0.82653,-1.44644l-1.28448,-2.24786l0.00035,-0.01012l-0.7791,1.31111l-0.65429,1.28178l-1.18091,2.31046l-1.15848,2.26436l-0.89464,2.15793l-0.99477,2.39649l-1.00999,2.43169l-0.59467,1.22438l-2.26916,4.66712l-1.14594,2.35635l-1.23711,2.3098l-1.2253,2.28723l-1.31308,2.4285l-3.24652,2.30218l-0.82316,-2.92402l-0.00016,-2.49059l-0.0017,-2.59438l-0.00169,-2.59099l-0.01674,-2.59094l-0.01625,-2.56565l-0.13179,-2.56231l-0.13296,-2.59135l-0.13279,-2.58808l-0.14586,-2.58737l-0.2921,-5.18129l-0.14452,-2.56727l-0.23752,-2.56035l-0.23781,-2.56686l-0.30485,-2.55976l-0.30348,-2.55134l-0.23196,-1.45705l-0.40752,-2.56256l-0.40973,-2.57697l-0.35186,-2.58551l-0.34982,-2.57108l-0.35218,-2.5894l-0.28406,-2.66736l-0.00023,-2.51048l0.13686,-1.38482c0,0 0.1291,-1.29094 1.42003,-1.16185c1.29094,0.1291 1.16185,1.42003 1.16185,1.42003l-0.12721,1.25589l-0.00023,2.24281l0.26879,2.49262l0.34746,2.55274l0.34981,2.57107l0.34778,2.55663l0.40531,2.54814l0.40752,2.56256l0.23946,1.50737l0.30999,2.6018l0.30863,2.59336l0.24114,2.60051l0.24144,2.60703l0.14758,2.61402l0.2921,5.18129l0.14623,2.59392l0.13312,2.59462l0.13296,2.59135l0.13412,2.62039l0.01727,2.62376l0.01678,2.59847l0.00171,2.59853l0.0017,2.59514l0.00003,0.40452l0.50091,-0.94496l1.2253,-2.28723l1.2135,-2.26466l1.12321,-2.31077l2.26916,-4.66712l0.56216,-1.15495l0.97955,-2.36132l0.99477,-2.39649l0.93583,-2.25184l1.20333,-2.35657l1.1809,-2.31046l0.69572,-1.35955l1.30023,-2.14962l2.11331,-1.41248l1.88134,2.22238l1.29024,2.2579l0.82387,1.44178l1.29532,2.24522l0.65221,1.13335l1.46763,2.06555l1.36689,1.92851l1.654,1.92005l1.69241,1.96685l1.52332,1.77109l1.60413,2.08456l1.02996,1.34028l1.76283,1.98885l1.41868,2.26223l0.86529,1.23747l-0.0043,-0.45392l-0.26852,-2.51186l-0.54791,-5.16052l-0.23383,-2.20236l-0.2952,-2.57238l-0.29582,-2.57784l-0.29631,-2.58217l-0.27895,-2.58411l-0.27848,-2.57977l-0.28055,-2.60053l-0.19712,-2.60818l-0.39076,-5.17479l-0.19287,-2.55852l-0.3076,-2.54728l-0.22719,-1.89358l-0.08954,-2.64949l-0.04613,-1.38935l-0.00018,-2.61637v-11.26896c0,0 0,-1.29738 1.29738,-1.29738z"/><path d="M246.07175,161.23951c-1.29738,0 -1.29738,-1.29738 -1.29738,-1.29738v-0.52814l0.00309,-1.40984l0.23521,-1.70663l0.56753,-2.48447l0.11913,-1.83622l-0.00066,-1.52938l-0.02871,-1.56552l-0.04437,-2.52506l-0.31346,-2.47805l-0.42099,-2.48754l-0.55054,-2.32789l-1.10875,-2.10668l-0.86783,-1.36329l-1.07259,-1.44025l-0.72978,-0.6694l-1.80475,-0.51308l-1.0495,0.0104l-1.74565,0.22663l-1.51369,0.59013l-1.5278,0.76558l-1.58442,0.79221l-1.48255,0.73542l-0.9214,0.69645l-0.9646,0.84244l-0.94133,0.98175l0.26684,2.34688l0.16769,2.6216l0.16524,2.58949l0.16496,2.58521l0.18208,2.58406l0.1184,1.69173l0.00051,1.69049l0.26323,2.394l-0.06127,2.38079l-1.34136,3.85588l-1.45435,-3.23448l-0.00071,-1.85154v-2.59476l0.00025,-0.80563l-0.01479,-0.13165l-0.23855,-2.14917l-0.38373,-2.54055l-0.38727,-2.56569l-0.2869,-1.90451l-0.24255,-2.67272l-0.02401,-2.5016l0.4703,-2.00323l-0.26539,-2.3309l-0.29952,-2.57585l-0.29371,-2.53274l-0.29462,-1.56818l-0.95569,-5.10076l-0.48091,-2.56736l-0.4127,-2.5792l-0.41371,-2.58794l-0.31007,-2.60238l-0.31125,-2.62093l-0.12001,-2.3959l-0.13025,-2.68537l0.25152,-2.67674c0,0 0.123,-1.29153 1.41454,-1.16853c1.29153,0.123 1.16853,1.41454 1.16853,1.41454l-0.24049,2.4894l0.12771,2.49773l0.11404,2.3069l0.30222,2.53219l0.3034,2.55075l0.406,2.53644l0.40701,2.54517l0.47478,2.5334l0.95569,5.10076l0.30967,1.65701l0.30568,2.62204l0.24975,2.1479l0.64578,-0.56595l1.19116,-0.88797l1.6863,-0.84901l1.58442,-0.79221l1.64105,-0.81884l1.91923,-0.73023l2.21542,-0.30151l1.5912,0.0104l2.68445,0.80728l1.38279,1.17909l1.30405,1.72859l0.98066,1.54149l1.29174,2.49427l0.66273,2.71781l0.4459,2.62906l0.33458,2.67085l0.05061,2.66359l0.02904,1.58926l-0.00066,1.63947l-0.14494,2.12484l-0.58258,2.576l-0.19911,1.4191l0.00309,1.23086v0.52814c0,0 0,1.29738 -1.29738,1.29738z"/><path d="M276.28988,141.27566l-0.06408,-0.61142l-0.59626,-1.89281l-0.78438,-2.36327l-0.67442,-1.36327l-1.3989,-1.62719l-0.93853,-0.73781l-1.73973,-0.68496l-1.33313,-0.35046l-2.37693,-0.10984l-2.43193,0.19153l-2.44058,0.47496l-2.44504,0.61262l-2.3594,0.74297l-1.609,0.74495l-2.21314,1.17221c0,0 -1.1466,0.60703 -1.75364,-0.53958c-0.60703,-1.14661 0.53958,-1.75364 0.53958,-1.75364l2.27606,-1.20444l1.82391,-0.83948l2.58924,-0.81976l2.58882,-0.6489l2.65402,-0.51308l2.74165,-0.21483l2.80662,0.13906l1.75229,0.45042l2.22134,0.89947l1.43811,1.11069l1.76994,2.06981l0.91001,1.80558l0.85669,2.55994l0.66744,2.16239l0.29951,2.74239l0.12323,2.50649l0.00039,1.48422l-0.00326,1.41232l-0.37673,2.66019l-0.28695,2.00139l-0.13366,2.12756l-0.26011,1.54413l-0.21347,1.933l-2.09849,1.10821l-1.27729,0.69922l-2.33962,0.5946l-1.8995,0.27301l-1.67581,0.27491l-1.38925,0.00386l-2.32056,0.13204l-2.4022,-0.27833l-2.2793,-0.43288l-1.83664,-0.81922l-0.92924,-1.66979l-1.28521,-2.31839l-1.03964,-2.64467l-0.3311,-2.5586l0.00716,-2.08851l0.63398,-2.4893l1.27565,-1.87783l0.9564,-1.63253l1.51556,-1.80472l1.61811,-1.04864l1.69307,-0.20636l2.65939,-0.00162h1.49834l1.41232,0.00327l1.91285,0.27026l1.35603,0.13687l1.37163,0.2728l1.49253,0.27239zM276.53447,144.20981l-1.05466,-0.47299l-1.832,-0.48546l-1.41224,-0.25575l-1.26908,-0.25534l-1.28468,-0.1272l-1.78414,-0.25789l-1.22839,0.00326h-1.49834l-2.53013,-0.00161l-0.94764,0.05771l-0.75852,0.53579l-1.12515,1.36413l-0.8921,1.53632l-1.10099,1.55508l-0.42231,1.73584l0.00716,1.60848l0.25463,2.07599l0.87172,2.18003l1.23504,2.21807l0.39111,0.97091l0.80407,0.23706l1.94584,0.35934l2.08699,0.24981l2.16865,-0.13203l1.25145,0.00387l1.49304,-0.25324l1.79749,-0.25513l1.88551,-0.46169l1.09935,-0.62113l1.07036,-0.21215l-0.21348,-0.70771l0.26804,-1.62472l0.13041,-2.09757l0.29949,-2.10373l0.35718,-2.47718l-0.00326,-1.22838l0.00039,-1.42057z"/><path d="M273.55807,124.0285c0,-1.29738 1.29738,-1.29738 1.29738,-1.29738l1.4973,0.00078l1.72932,0.11917l2.56859,0.17831l2.5999,0.10013l2.37182,0.19023l0.29365,0.02371l-0.11209,-1.71802l-0.24443,-2.56381l-0.24511,-2.57295l-0.28546,-2.56879l-0.26835,-2.46307l-0.71802,-2.37498l-0.63108,-2.15794l-0.75561,-1.62888c0,0 -0.54368,-1.17796 0.63429,-1.72164c1.17797,-0.54368 1.72165,0.63429 1.72165,0.63429l0.82881,1.80404l0.68928,2.33126l0.77318,2.59567l0.30474,2.69471l0.28763,2.58899l0.24712,2.59317l0.24781,2.60231l0.13768,2.10669l2.10105,0.00075l1.97681,-0.21795l2.47844,-0.26681l2.32784,-0.6365l1.63827,-0.67382l2.37503,-0.9727l2.33014,-1.07579c0,0 1.17797,-0.54368 1.72165,0.63429c0.54368,1.17797 -0.63429,1.72164 -0.63429,1.72164l-2.38173,1.09892l-2.42711,0.9947l-1.78719,0.72956l-2.67882,0.72895l-2.68037,0.29694l-2.11754,0.22947l-2.07419,0.00067l0.09703,2.56821l0.09785,2.59291l0.06785,1.7995l0.14738,2.57799l0.10725,1.93692l0.50584,2.44893l0.52542,2.56225l0.44328,2.57773l0.35882,2.0909l0.58584,2.48723l0.46681,1.98474l0.23109,1.19793l0.56987,1.23954l1.25926,2.03896l1.61816,1.79326l1.0858,1.00202l1.33119,0.73762l1.43698,0.0824l2.25887,0.1296l2.14466,-0.20254l2.01391,-1.17254l1.61178,-0.90816l1.81127,-1.46518l1.13259,-1.50875l0.68096,-0.61675c-0.10823,-0.28677 -0.34253,-1.16655 0.61949,-1.64756c1.16041,-0.58021 1.74062,0.5802 1.74062,0.5802l0.1036,2.33676l-1.23185,1.10061l-1.17746,1.55648l-2.21639,1.8073l-1.79535,1.02254l-2.50109,1.38596l-2.87268,0.3256l-2.4944,-0.13447l-1.99593,-0.18167l-2.10173,-1.11087l-1.42612,-1.29035l-1.85274,-2.06472l-1.47227,-2.37351l-0.75048,-1.66525l-0.29705,-1.44278l-0.45716,-1.94211l-0.60276,-2.56434l-0.37337,-2.16849l-0.43591,-2.53677l-0.51738,-2.52141l-0.53697,-2.63473l-0.12483,-2.12449l-0.14869,-2.60308l-0.06891,-1.8246l-0.09785,-2.59292l-0.09705,-2.5751l-0.0162,-0.2479l-0.67232,-0.05374l-2.31784,-0.18647l-2.58578,-0.09932l-2.60849,-0.18078l-1.6396,-0.11451l-1.40748,0.00078c0,0 -1.29738,0 -1.29738,-1.29738z"/><path d="M347.76197,169.84478c0,-0.58019 0.25946,-0.90091 0.54632,-1.07821l0.36134,-0.64512l0.62115,-1.75219l0.54905,-1.51886l0.88095,-2.43701l0.86812,-2.44161l0.86386,-2.4293l0.73271,-2.23912l0.82068,-2.50542l0.98646,-2.4675l0.63438,-1.44874l1.0382,-2.37024l1.01212,-2.3815l0.99545,-2.33955l0.63845,-1.92143l0.8265,-2.48244l0.89893,-2.42674l0.66563,-2.0738l0.2515,-0.7822l-0.39649,-0.65632l-0.7339,-1.14651l-4.19615,-6.55647l-1.39727,-2.18324l-1.2762,-1.97605l-1.40772,-2.1797l-1.39443,-2.15953l-0.75097,-1.07255l-1.48787,-2.1258l-1.4897,-2.12842l-1.47919,-2.13573l-1.42832,-2.06687l-1.68264,-1.86568l-1.73031,-1.92261l-1.5789,-1.71043c0,0 -0.87999,-0.95332 0.07333,-1.83331c0.95332,-0.87999 1.83331,0.07333 1.83331,0.07333l1.58995,1.72249l1.74129,1.93473l1.78896,1.99165l1.52643,2.19934l1.47555,2.13048l1.48604,2.12317l1.48787,2.1258l0.77829,1.11237l1.42101,2.19986l1.40772,2.1797l1.2791,1.98055l1.40016,2.18775l4.19614,6.55648l0.06224,0.09727l0.44142,-1.08016l0.99912,-2.44047l0.90642,-1.8611l1.14958,-2.35765l1.25051,-2.30571l1.23006,-2.26718l1.1758,-2.2958l1.21258,-2.36414l0.74614,-1.16861l1.39503,-2.17971l0.72477,-1.15931l1.41214,-2.2555l1.70124,-2.18295l1.79173,-1.65987c0,0 0.95332,-0.87999 1.83331,0.07333c0.87999,0.95332 -0.07333,1.8333 -0.07333,1.8333l-1.64119,1.50899l-1.48481,1.91341l-1.33893,2.14481l-0.73208,1.17092l-1.4024,2.19128l-0.68157,1.06218l-1.1532,2.25475l-1.18998,2.32309l-1.24457,2.29432l-1.22412,2.25579l-1.12429,2.30718l-0.87058,1.78442l-0.9658,2.36267l-0.96432,2.35463l-0.16523,0.51523l0.32665,0.54061l1.34179,2.22089l1.15746,1.91622l1.27178,2.28875l1.24008,2.23343l1.37694,2.15176l1.39805,2.18592l0.88262,1.38013l1.46437,2.1989l1.23946,2.28808l0.91245,1.40818l0.70469,1.54153l1.0658,2.36845l0.21633,0.96797c0,0 0.23501,1.27591 -1.0409,1.51093c-1.27591,0.23502 -1.51093,-1.04089 -1.51093,-1.04089l-0.03072,-0.37322l-1.06379,-2.36399l-0.61566,-1.36325l-0.8676,-1.32966l-1.23178,-2.27525l-1.41426,-2.11904l-0.896,-1.40082l-1.39805,-2.18592l-1.41916,-2.22008l-1.28017,-2.30303l-1.24847,-2.2477l-1.13343,-1.8756l-0.49926,-0.82637l-0.24375,0.75866l-0.90346,2.43972l-0.81247,2.44147l-0.67345,2.01988l-1.03438,2.43652l-1.01772,2.39458l-1.04388,2.38329l-0.61786,1.41019l-0.94087,2.35085l-0.7935,2.42667l-0.74312,2.27027l-0.87467,2.46033l-0.87042,2.44803l-0.88326,2.44343l-0.54736,1.51417l-0.6992,1.9448l-0.70799,1.28337l-1.26615,0.66731c0,0 -1.29738,0 -1.29738,-1.29738z"/><path d="M385.11187,155.5781c-0.62338,-0.62338 -0.39956,-1.24676 -0.19208,-1.5823l0.16763,-1.35957l0.17699,-2.57135l0.18913,-1.97127l0.24482,-2.54408l0.09056,-2.55199l0.04831,-1.49745l0.08356,-2.59051l0.05991,-2.15661l0.07167,-2.57575l-0.00013,-2.49066v-1.32036c0,0 0,-1.29738 1.29738,-1.29738c1.29738,0 1.29738,1.29738 1.29738,1.29738v1.32036l-0.00012,2.52669l-0.07243,2.61177l-0.06007,2.16242l-0.08375,2.59631l-0.04845,1.50192l-0.09466,2.63422l-0.25109,2.62169l-0.18602,1.93657l-0.18006,2.60587l-0.22137,1.80309l-0.50232,0.89101c0,0 -0.91739,0.91738 -1.83477,0z"/><path d="M386.3163,119.67134c0,-0.71652 0.58086,-1.29738 1.29738,-1.29738c0.71652,0 1.29738,0.58086 1.29738,1.29738c0,0.71652 -0.58086,1.29738 -1.29738,1.29738c-0.71652,0 -1.29738,-0.58086 -1.29738,-1.29738z"/><path d="M427.2706,162.73114c-1.20458,-0.48183 -0.72275,-1.68642 -0.72275,-1.68642l0.17576,-0.28609l0.12756,-1.47668l-0.13092,-1.53051l-0.00112,-1.77038v-2.11257l0.0024,-2.03364l-0.26407,-2.15852l-0.00079,-2.60905l-0.12721,-1.25589l-0.1317,-1.317l-0.26906,-2.57313l0.00043,-2.23668l-0.24014,-2.06137l-0.41491,-1.41366l-1.02727,-2.16733l-0.69028,-1.03484l-0.97317,-1.09097l-0.94622,-0.95241l-1.17017,-0.81554l-1.32959,-0.72496l-1.50594,-0.62569l-1.5845,-0.61538l-1.32464,-0.2351l-2.31944,-0.38745l-1.39538,-0.12598l-1.65777,-0.12845l-1.44871,-0.00189l-1.68541,0.2097l-0.964,0.48746l-1.44239,1.32946l-0.85464,1.48921l-1.13534,1.49734l-0.80333,2.07547l-0.23841,1.72731l-0.26275,1.44407l-0.29442,2.26904l-0.48848,2.46364l0.00498,2.47121l-0.00748,2.60991l-0.06201,2.60762l-0.06155,2.58332l-0.01694,2.32764l-0.01922,2.61397l-0.11978,2.81295l-2.02878,2.48099l-1.06369,-3.10613l0.03452,-2.64854l0.22471,-2.5836l0.01307,-1.33099l0.02765,-2.61314l0.10226,-2.61755l0.12671,-2.59793l0.12595,-2.58099l0.04798,-1.489l0.08438,-2.61174l0.10808,-1.78549l0.15519,-2.55078l-0.0006,-2.38333l0.00064,-2.63524l0.13393,-2.15301c0,0 0.08092,-1.29486 1.37578,-1.21393c1.29486,0.08093 1.21393,1.37578 1.21393,1.37578l-0.13014,2.07212l0.00027,1.09928l0.79075,-1.06482l0.99385,-1.67964l1.99053,-1.83939l1.67671,-0.83289l2.27566,-0.31844l1.72014,-0.00189l1.77515,0.13562l1.5094,0.13809l2.43384,0.40476l1.58014,0.29304l1.84843,0.70498l1.6629,0.69466l1.57519,0.85946l1.47054,1.03296l1.16634,1.16015l1.1394,1.28566l0.89414,1.3418l1.1943,2.52263l0.53238,1.8185l0.28799,2.42783l0.00044,2.25253l0.25907,2.44422l0.13238,1.32371l0.13686,1.38482l-0.00079,2.58047l0.26407,2.15852l0.00241,2.19148v2.11257l-0.00112,1.66254l0.13316,1.63834l-0.13652,1.69217l-0.35238,1.03427c0,0 -0.48184,1.20458 -1.68642,0.72275z"/><path d="M511.5949,166.785c-1.29738,0 -1.29738,-1.29738 -1.29738,-1.29738l0.00001,-1.05039l-0.00827,-1.84467l-0.07782,-2.55238l-0.17724,-2.60854l-0.0006,-2.61862l-0.05051,-1.61138l-0.07967,-2.56184l-0.13357,-1.65962l-0.208,-2.59212l-0.18776,-2.64002l-0.00082,-1.51025v-17.15298l0.00634,-1.32423l-0.46356,-2.29562l-0.80092,-2.28129l-1.12009,-2.19535l-1.19419,-2.02799l-1.60104,-1.43471l-1.3235,-0.48618l-1.46501,0.21458l-1.17019,0.59537l-1.93282,1.39624l-1.15822,1.15515l-1.22737,1.85178l-0.73041,1.21138l-0.66798,1.59961l-0.96375,1.5227l-0.99877,1.74232l-0.50118,1.2607l-0.50847,1.1389l-0.49609,1.6194l-0.50634,1.89331l-0.33509,2.08684l-0.29884,2.47311l0.00232,2.16557l0.0061,2.46637l0.01753,2.56929l0.10812,2.59698l-0.1667,0.48027l0.02648,0.19101l-0.1016,0.02544l-0.99648,2.87095l-1.47975,-2.60049l-0.20662,-1.48719l-0.41774,-2.4784l-0.66351,-2.45461l-0.63596,-2.51373l-0.68895,-2.528l-0.53248,-2.51324l-0.53067,-2.50902l-0.62853,-2.4152l-0.56875,-1.49936l-0.93977,-2.49095l-0.67749,-2.5687l-0.68093,-2.49782l-0.64977,-2.40065l-0.93252,-2.05786l-1.0334,-1.02363l-1.23655,-0.66138l-1.47953,-0.62829l-2.28689,-0.29888l-2.25187,0.09874l-1.24002,0.52859l-1.55729,1.09951l-0.69225,1.0007l-0.70066,2.01517l-0.3791,1.61962l-0.04604,0.48643l0.03123,0.34489l0.174,1.92737l0.33533,2.54641l0.32636,2.4852l0.17991,2.62931l0.17826,2.61998l0.05252,2.62551l0.05152,2.59425l0.05103,2.57598l0.12385,2.5735l0.12342,2.57083l0.20678,2.56547l0.20438,2.54583l0.36505,2.5278l0.3684,2.5559l0.42481,2.59952l0.22031,2.64762l0.17554,2.63132l0.04584,2.63409l-1.2581,2.66765l-0.99839,-2.6264l-0.3381,-0.01173l-0.01573,-0.91908l-0.08509,-0.22383l-0.31461,-2.52323l-0.22429,-1.80674l-0.41171,-2.53749l-0.37717,-2.32592l-0.40799,-2.56445l-0.41593,-2.62381l-0.16776,-2.65999l-0.12764,-2.60033l-0.08503,-1.7406l-0.00023,-2.12411l-0.08057,-2.57324l-0.0477,-1.57133l-0.31812,-2.53489l-0.24437,-2.62224l-0.16994,-2.63368l-0.05971,-2.50704l-0.26522,-1.99636l-0.00285,-1.80238l0.00146,-1.51396l0.17288,-1.80504l-0.18558,-2.05518l-0.12047,-2.65051l-0.00034,-1.61389c0,0 0,-1.29738 1.29738,-1.29738c0.9682,0 1.21385,0.72254 1.27619,1.0892l0.31074,-0.44075l2.1397,-1.54119l1.92883,-0.79176l2.93118,-0.16042l2.85715,0.38663l1.92506,0.79385l1.66823,0.92305l1.60731,1.61707l1.24219,2.65402l0.7151,2.60617l0.68395,2.509l0.64268,2.45009l0.89528,2.3633l0.61405,1.62953l0.68142,2.60627l0.54389,2.56803l0.51593,2.44027l0.1545,0.56609l0.24962,-2.09358l0.36696,-2.26716l0.54994,-2.06776l0.5602,-1.81353l0.54782,-1.23774l0.55511,-1.38l1.11379,-1.95468l0.88474,-1.38207l0.65238,-1.56924l0.85402,-1.42933l1.41334,-2.10929l1.48249,-1.48556l2.27422,-1.64217l1.75268,-0.85541l2.49605,-0.31356l2.37348,0.83417l2.27766,2.01301l1.46638,2.42762l1.23439,2.42931l0.91759,2.61543l0.5433,2.72567l0.00634,1.58055v17.15298l-0.00082,1.41776l0.18198,2.53631l0.20711,2.58077l0.13787,1.72284l0.08242,2.62514l0.05146,1.6519l-0.00059,2.57089l0.17559,2.56897l0.08057,2.63472l0.00865,1.87837l0.00001,1.06218c0,0 0,1.29738 -1.29738,1.29738z"/><path d="M550.47333,142.97286l-0.3431,-1.79524l-0.37558,-1.89201l-0.7873,-2.30297l-0.90429,-2.411l-0.84578,-2.2835l-0.90625,-1.35326l-0.94463,-0.51046l-1.79341,-0.08183l-1.93752,0.00063l-1.44659,0.00415l-2.52575,0.25406l-1.51598,0.13653l-1.79203,0.00341l-2.40443,0.11115l-1.25304,0.38266l-2.26619,0.35825l-2.58427,0.58424l-1.85645,0.1332l-1.75924,0.38022c0,0 -1.26858,0.27183 -1.54042,-0.99674c-0.27184,-1.26858 0.99674,-1.54042 0.99674,-1.54042l1.93775,-0.412l1.84054,-0.13088l2.4762,-0.56586l2.17988,-0.34015l1.38768,-0.40956l2.77861,-0.14801l1.73926,-0.00151l1.38881,-0.12754l2.63801,-0.26232l1.57584,-0.00762l2.02354,0.00063l2.43172,0.18225l1.96015,1.07396l1.47039,2.07965l0.97638,2.5756l0.91788,2.44809l0.8498,2.50273l0.41663,2.06905l0.49704,2.61777l0.18587,2.06181l0.00131,2.65298l-0.00162,2.48721l-0.13629,1.379l-0.1275,1.3879l0.00133,1.3936l-0.00198,1.65617l-0.27241,2.46829l-0.28227,1.95568l-0.65754,2.19828l-1.24838,1.44511l-1.56672,0.87259l-1.60231,0.30771l-1.46963,0.39989l-1.80709,0.28l-2.09511,0.26151l-1.4057,0.25604l-1.279,0.25548l-2.17473,0.54053l-1.44415,0.1475l-2.53009,0.13349l-1.97654,0.13179l-2.38929,0.13303l-2.84116,-0.45644l-2.2682,-1.15081l-1.88973,-2.33625l-1.08092,-2.675l-0.38502,-1.65804l-0.41973,-1.99305l0.0025,-1.74758l0.43813,-1.78864l0.86126,-2.57989l0.8113,-1.73645l0.89087,-1.6161l1.42834,-1.577l1.84172,-1.08748l1.87742,-0.72461l2.11732,-0.56443l2.62728,-0.3961l2.47954,-0.41145l2.74298,-0.27445l1.3882,0.269l1.45658,-0.00632l1.5964,0.00557l2.05415,-0.38934l1.57207,-0.14304l1.90728,-0.00133l1.26644,0.00112zM550.76762,145.55154l-1.29068,0.10667l-1.37427,0.00112l-1.78971,-0.00134l-1.3327,0.12103l-2.17098,0.40288l-1.83652,0.00557l-1.71226,-0.00631l-1.25251,-0.25915l-2.27436,0.2537l-2.42304,0.40315l-2.50483,0.37372l-1.84373,0.49185l-1.5555,0.59574l-1.32713,0.76102l-0.9483,1.0637l-0.69356,1.28868l-0.71648,1.52653l-0.77981,2.34333l-0.35409,1.38021l0.0025,1.15719l0.37248,1.70394l0.32835,1.44574l0.84642,2.14335l1.27911,1.62481l1.4288,0.69769l2.17619,0.33577l2.09991,-0.13104l1.98452,-0.13228l2.48725,-0.13058l1.19656,-0.11658l2.0504,-0.51575l1.36172,-0.27266l1.49908,-0.27211l2.13002,-0.26662l1.62582,-0.24814l1.43515,-0.39232l1.30247,-0.22043l0.80992,-0.44776l0.60011,-0.66746l0.39874,-1.49871l0.24587,-1.74131l0.25573,-2.28499l-0.00199,-1.51268l0.00134,-1.51117l0.13658,-1.51688l0.12777,-1.26171l-0.00161,-2.35796z"/><path d="M584.63091,100.96815c-0.18779,-0.19217 -0.32756,-0.47823 -0.32756,-0.90407c0,-1.29738 1.29738,-1.29738 1.29738,-1.29738l1.68816,1.41484l-0.17622,1.68991l-0.75712,1.42236l0.2679,1.22602l0.13809,1.5094l0.12635,1.66226l0.38766,2.1879l0.25986,1.56118l0.41178,1.95444l0.00722,2.51332v2.37664l-0.00133,1.3936l0.12957,1.41198l0.13192,2.11108l0.20353,2.18649l0.37744,2.57576l0.21412,2.68065l-0.0004,0.20633l0.59982,0.2106c0,0 1.21927,0.44337 0.7759,1.66264c-0.25213,0.69335 -0.75517,0.84904 -1.14221,0.85436l0.00015,0.00097l0.41421,1.41769l0.00933,1.40174l0.36877,2.19833l0.53878,1.90062l0.14385,1.66247l0.40259,2.57831l-0.05341,2.31015l-0.33928,2.66009l-0.42303,2.63727l-0.40851,1.63903l-0.43796,1.71988l-0.8948,1.79894l-1.25601,1.76418l-2.47249,1.78089l-1.52875,0.42535l-2.49382,0.78643l-2.72288,0.62084l-2.17643,0.00741l-1.57445,-0.12832l-2.68318,-0.88615l-1.91325,-0.89018l-1.37243,-1.05989l-1.11506,-1.11151l-1.20647,-1.20684l-1.70299,-1.85899l-0.8989,-1.62929l-0.70047,-1.54134l-0.58025,-1.60719l-0.4317,-2.43131l-0.14049,-2.54355l0.14359,-1.74014l0.43149,-2.28518l0.92959,-2.51923l1.12939,-2.52164l1.63199,-2.31454l1.55926,-1.54076l2.30627,-1.12193l2.80721,-0.3011l1.23861,-0.12123l1.73113,-0.39844l1.80901,-0.1428l1.5329,-0.12687l2.56234,-0.40144l2.08201,-0.00398h1.8485l1.05746,0.008l-0.17689,-2.20747l-0.37547,-2.55885l-0.21414,-2.29387l-0.13215,-2.11405l-0.1345,-1.4928l-0.00134,-1.51118v-2.37664l0.00722,-2.23995l-0.38044,-1.74255l-0.26827,-1.60767l-0.40455,-2.3013l-0.13774,-1.77066l-0.12598,-1.39538l-0.26024,-1.94283l0.8273,-1.74649zM586.54116,133.03894l-1.2045,0.01101h-1.8485l-1.87905,-0.00398l-2.45501,0.39077l-1.63595,0.1372l-1.62392,0.12126l-1.70179,0.39378l-1.4021,0.14284l-2.35655,0.21527l-1.50838,0.73834l-1.08146,1.09994l-1.36072,1.92513l-0.98237,2.21878l-0.83178,2.23236l-0.36072,1.93995l-0.12049,1.42871l0.12358,2.20972l0.36051,2.0579l0.47603,1.29759l0.61988,1.36344l0.68552,1.27549l1.46586,1.57393l1.17017,1.1698l0.9975,1.00105l1.00421,0.7886l1.51967,0.69425l2.24003,0.75492l1.16038,0.07911l1.78463,0.0074l2.33375,-0.54607l2.45506,-0.77553l1.14116,-0.2787l1.73454,-1.25752l0.87465,-1.27104l0.68962,-1.36991l0.35426,-1.44897l0.3837,-1.52982l0.39687,-2.48706l0.32028,-2.48735l0.05155,-1.94196l-0.38962,-2.43904l-0.12022,-1.50638l-0.51751,-1.79638l-0.42345,-2.55494l0.00933,-1.23897l-0.378,-1.22303z"/><path d="M598.3919,143.58945c-0.48183,-1.20458 0.72275,-1.68642 0.72275,-1.68642l0.11413,-0.03566l0.04807,-0.55757l0.35156,-2.57953l0.18646,-1.56869l1.06556,-1.88332l1.09955,-1.53829l1.47642,-1.05738l1.64703,-1.23095l1.71646,-0.92425l1.00566,-0.75816l1.26954,-0.84524l1.84308,-0.99109l1.96355,-0.74474l1.688,-0.16455l1.64322,-0.00133h1.84849l1.97447,0.06002l1.7403,1.14814l1.62587,1.48766l0.94272,1.40417l0.79417,1.80805l0.02941,1.85908v1.45238l-0.00285,1.93442l-0.32544,2.29773l-1.3631,2.16489l-1.9287,0.18064l-1.50398,0.12618l-2.16631,0.26854l-1.70315,0.00195l-2.2446,-0.13203l-1.61956,-0.00077l-1.44374,0.13161l-2.15143,0.027l-0.32194,0.04625c-0.38022,0.45665 -1.02699,0.45665 -1.02699,0.45665h-2.77274l-0.20445,-0.00171l-0.00983,0.00076l-0.98537,0.00069l-1.54661,0.38665l-0.18268,0.0011l0.00007,1.69414l0.12774,1.51992l0.1202,1.22794l0.40502,1.78049l0.00833,1.46716l-0.00631,1.72066l0.24241,1.18024l0.47553,2.19447l0.95294,1.76476l0.66544,1.0118l1.5076,1.38848l1.68338,1.02162l2.03753,0.44356l1.5749,-0.00775h2.37664l1.72066,0.00631l1.88246,-0.3826l1.78493,-0.2743l1.36691,-0.11868l2.12628,-0.63182l1.8096,-0.5162l1.31413,-0.47439l1.09666,-0.61391c0,0 1.13411,-0.63006 1.76418,0.50405c0.63007,1.13411 -0.50404,1.76418 -0.50404,1.76418l-1.27998,0.70645l-1.59065,0.58189l-1.88738,0.54008l-2.36293,0.68854l-1.53787,0.1454l-1.64799,0.25384l-2.0786,0.40961l-1.97634,0.00632h-2.37664l-1.85802,-0.00775l-2.71575,-0.61272l-2.27768,-1.35502l-1.92532,-1.78036l-0.91899,-1.36484l-1.15962,-2.1963l-0.58075,-2.5588l-0.28573,-1.46047l-0.00631,-1.97634l0.00834,-1.17355l-0.3872,-1.65243l-0.14387,-1.41277l-0.13633,-1.64893l0.00006,-1.60237c-0.26714,-0.0995 -0.52946,-0.3146 -0.7006,-0.74245zM603.02941,141.15006l1.27056,0.00095l1.62468,-0.12524l2.60965,-0.37079l2.21776,-0.03131l1.46103,-0.13246l1.81336,-0.00077l2.2446,0.13203l1.4657,0.00195l2.05882,-0.2596l1.66487,-0.13789l0.712,0.18064l0.22132,-0.7399l0.2027,-1.66333l-0.00285,-1.76257v-1.45238l0.02941,-1.30977l-0.52618,-1.09674l-0.6417,-0.97246l-1.27891,-1.15305l-0.90041,-0.70035l-1.19438,0.06002h-1.84849l-1.52563,-0.00134l-1.21677,0.09952l-1.46937,0.57561l-1.58985,0.85741l-1.1071,0.73919l-1.1069,0.82627l-1.71646,0.92425l-1.52182,1.14568l-1.16428,0.79112l-0.74895,1.10242l-0.78294,1.28553l-0.07761,1.07201l-0.33301,2.44075l0.39358,-0.09839c0.35771,-0.227 0.76358,-0.227 0.76358,-0.227z"/><path d="M261.29582,213.82403c-0.00528,-0.04737 -0.00807,-0.09738 -0.00807,-0.15018c0,-1 1,-1 1,-1h5.21839l1.91615,0.00352l1.88862,-0.32368l1.97188,-0.33422l1.56479,-0.26165l2.08385,-0.00352h2l1.54353,0.00035l2.02351,0.10615l1.97285,0.10413l1.97559,0.00717l1.99999,0.00756l1.28154,0.0081l2.05282,0.33884l1.91281,0.32066l1.9377,0.08362l1.99806,0.08812l1.92134,0.08498l1.97796,-0.00024h1.21839l1.97539,0.0003l1.97298,-0.09749l2.01765,-0.09919l2.02001,-0.01846l1.53193,-0.00559l1.90819,-0.52304l2.10365,-0.11564l1.15675,-0.06009l1.86518,-0.00034h13.7931l1.94008,0.0018l1.84614,-0.22423l1.85734,-0.23196l1.98726,-0.16547l1.84929,-0.24769l1.32511,-0.48513l2.15906,-0.24582l1.74569,-0.0107l2.00267,0h1.44828l1.19924,0.00124l2.00064,0.19959l1.4084,0.02911l1.48045,0.13915l0.30554,-0.79142l0.06317,-1.77455l0.09908,-1.97773l0.02599,-2.07614l0.40426,-1.97086l0.05935,-1.83002l-0.00015,-1.98286l0.00074,-1.18001l-0.14988,-1.94038l-0.21663,-2.00812l0.35041,-2.89088l2.15809,0.39229l1.77433,1.08801l1.29015,0.79396l1.69592,1.07109l1.69098,1.06799l1.01932,0.64473l1.63255,1.22341l1.18832,0.89213l1.4829,1.29949l1.61167,1.06915l1.66538,1.10748l0.80841,0.54609l1.8617,0.67467l1.79526,1.08747l1.68763,1.02778l1.58855,0.90769l1.81071,0.99072l1.68972,1.27517l1.47802,1.33215l1.56283,1.1304l1.6461,1.10391l1.34177,0.90104l1.11516,0.8955l1.61478,0.89586l1.8022,0.69166l1.13019,0.44968l1.43812,1.1868l1.74181,0.96687l1.61958,1.30235l1.56932,1.22756l0.78536,0.6207l1.67608,0.8329l1.76115,0.76942l1.4763,1.2172l1.5797,1.18437l1.03904,0.79193l1.93759,0.75131l1.25078,1.46174l1.54004,1.09085l1.34724,1.12567l1.55998,1.36122l-1.60391,2.29375l-1.16154,1.26673l-1.11342,1.33568l-1.15651,1.59113l-1.17634,1.61747l-1.18548,1.62984l-1.23486,1.59276l-1.22553,1.58053l-0.92736,1.19573l-1.29151,1.55005l-1.28037,1.53644l-0.87337,1.04765l-1.19639,1.57462l-2.42033,3.18465l-0.72679,0.95605l-1.14309,1.61964l-1.14678,1.62449l-1.10895,1.65054l-1.11543,1.66006l-1.03749,1.53565l-1.4793,1.48593l-1.10389,1.10373l-1.36027,1.44545l-1.37073,1.4564l-0.92702,0.98481l-1.28506,1.44374l-1.13124,1.5847l-0.81024,1.1183l-1.6444,1.35669l-0.94305,0.76999l-1.06498,1.06317l-0.72704,0.96031l-1.14943,0.91954l-1.15648,1.55209l-1.4109,1.46725l-1.28309,1.47907l-1.18259,1.4525l-1.4174,1.41773l-1.18447,1.41398l-1.47107,0.99292l-1.72687,0.84656l-1.14226,-1.48313l-0.52949,-1.36997l-0.01513,-1.95194l-0.2954,-1.90094l-0.15304,-0.99562l-0.3657,-1.94965l-0.33391,-1.80416l-0.00429,-2.09254v-10.41379l0.00124,-1.65901l0.20795,-2.0826l0.36766,-1.94949l0.11338,-1.69888l0.00253,-2.04496l0.23977,-1.53023l0.45389,-0.57235l-0.61629,0.35363h-1.37931l-1.76819,-0.00252l-1.90937,0.27531l-1.28413,0.18238l-2.04335,0.10323l-2.01827,0.1007l-2.02071,0.01717l-1.59546,0.01338l-2.0042,0.00001l-1.48155,-0.00055l-2.02881,-0.1347l-1.45932,-0.09731l-2.00024,-0.16l-1.99363,-0.15949l-1.7674,-0.14142l-1.99852,-0.19031l-1.97468,-0.1882l-1.9798,-0.12319l-1.98667,-0.12379l-1.98866,-0.08602l-1.99813,-0.08648l-1.97953,-0.08585l-1.98135,-0.01177l-1.99996,-0.01206l-1.33877,-0.00807l-1.99699,0h-4l-1.97935,-0.00021l-1.97766,0.08193l-1.99829,0.08257l-1.58727,0.06538l-2.02065,0.00021l-1.39846,-0.00124l-1.94438,0.19568l-2.00137,0.18391l-1.99937,0.16042l-1.88077,0.15008l-1.18957,-0.02595l-0.91954,0.45977l-1.24048,0.01709l-1.51229,0.44128l-1.22485,0.24513l-1.79929,0.2226l-1.56323,0.44925l-2.08471,0.4581l-2.10785,0.02448l-2.00334,0.00465l-1.34306,0.00125l-1.84024,0.22996l-1.86794,0.00138l-1.96233,0.13138l-1.48595,0.09851l-1.73366,-0.00911l-1.55464,0.45058l-2.12306,0.23803l-1.66322,0.00707l-1.34062,0.22582l-2.06313,0.17234l-1.99109,0.04849l-1.99403,0.19947l-2.04738,0.03467l-2.00704,0.00887l-1.78118,-0.03233l-1.71024,-1.09089l-0.39559,-1.81828l-0.17033,-2.03387l-0.16609,-1.99309l-0.12891,-1.54879l-0.09613,-2.01549l-0.09586,-2.01689l-0.01887,-2.01907l-0.01854,-2.00412l-0.00172,-2.0042l-0.00062,-1.0634l0.09599,-2.02194l0.09929,-2.05287l0.32222,-2.02985l0.18185,-1.13921l0.23693,-1.88191l0.46713,-1.87485l0.2728,-1.29063l0.65866,-1.05576l-0.00953,-1.34213l0.45977,-0.91954l-0.02334,-1.00215l0.22989,-1.37931l-0.00341,-1.29683v-2l0.14935,-1.97401l1.44565,-0.87991l1.37542,-0.27915h1.83908l1.14943,-0.22989z"/><path d="M465.11473,214.05392c-0.00528,-0.04737 -0.00807,-0.09738 -0.00807,-0.15018c0,-1 1,-1 1,-1h5.21839l1.91615,0.00352l1.88862,-0.32368l1.97188,-0.33422l1.56479,-0.26165l2.08385,-0.00352h2l1.54353,0.00035l2.02351,0.10615l1.97285,0.10413l1.97559,0.00717l1.99999,0.00756l1.28154,0.0081l2.05282,0.33884l1.91281,0.32066l1.9377,0.08362l1.99806,0.08812l1.92134,0.08498l1.97796,-0.00024h1.21839l1.97539,0.0003l1.97298,-0.09749l2.01765,-0.09919l2.02001,-0.01846l1.53193,-0.00559l1.90819,-0.52304l2.10365,-0.11564l1.15675,-0.06009l1.86518,-0.00034h13.7931l1.94008,0.0018l1.84614,-0.22423l1.85734,-0.23196l1.98726,-0.16547l1.84929,-0.24769l1.32511,-0.48513l2.15906,-0.24582l1.74569,-0.0107l2.00267,0h1.44828l1.19924,0.00124l2.00064,0.19959l1.4084,0.02911l1.48045,0.13915l0.30554,-0.79142l0.06317,-1.77455l0.09908,-1.97773l0.02599,-2.07614l0.40426,-1.97086l0.05935,-1.83002l-0.00015,-1.98286l0.00074,-1.18001l-0.14988,-1.94038l-0.21663,-2.00812l0.35041,-2.89088l2.15809,0.39229l1.77433,1.08801l1.29015,0.79396l1.69592,1.07109l1.69098,1.06799l1.01932,0.64473l1.63255,1.22341l1.18832,0.89213l1.4829,1.29949l1.61167,1.06915l1.66538,1.10748l0.80841,0.54609l1.8617,0.67467l1.79526,1.08747l1.68763,1.02778l1.58855,0.90769l1.81071,0.99072l1.68972,1.27517l1.47802,1.33215l1.56283,1.1304l1.6461,1.10391l1.34177,0.90104l1.11516,0.8955l1.61478,0.89586l1.8022,0.69166l1.13019,0.44968l1.43812,1.1868l1.74181,0.96687l1.61958,1.30235l1.56932,1.22756l0.78536,0.6207l1.67608,0.8329l1.76115,0.76942l1.4763,1.2172l1.5797,1.18437l1.03904,0.79193l1.93759,0.75131l1.25078,1.46174l1.54004,1.09085l1.34724,1.12567l1.55998,1.36122l-1.60391,2.29375l-1.16154,1.26673l-1.11342,1.33568l-1.15651,1.59113l-1.17634,1.61747l-1.18548,1.62984l-1.23486,1.59276l-1.22553,1.58053l-0.92736,1.19573l-1.29151,1.55005l-1.28037,1.53644l-0.87337,1.04765l-1.19639,1.57462l-2.42033,3.18465l-0.72679,0.95605l-1.14309,1.61964l-1.14678,1.62449l-1.10895,1.65054l-1.11543,1.66006l-1.03749,1.53565l-1.4793,1.48593l-1.10389,1.10373l-1.36027,1.44545l-1.37073,1.4564l-0.92702,0.98481l-1.28506,1.44374l-1.13124,1.5847l-0.81024,1.1183l-1.6444,1.35669l-0.94305,0.76999l-1.06498,1.06317l-0.72704,0.96031l-1.14943,0.91954l-1.15648,1.55209l-1.4109,1.46725l-1.28309,1.47907l-1.18259,1.4525l-1.4174,1.41773l-1.18447,1.41398l-1.47107,0.99292l-1.72687,0.84656l-1.14226,-1.48313l-0.52949,-1.36997l-0.01513,-1.95194l-0.2954,-1.90094l-0.15304,-0.99562l-0.3657,-1.94965l-0.33391,-1.80416l-0.00429,-2.09254v-10.41379l0.00124,-1.65901l0.20795,-2.0826l0.36766,-1.94949l0.11338,-1.69888l0.00253,-2.04496l0.23977,-1.53023l0.45389,-0.57235l-0.61629,0.35363h-1.37931l-1.76819,-0.00252l-1.90937,0.27531l-1.28413,0.18238l-2.04335,0.10323l-2.01827,0.1007l-2.02071,0.01717l-1.59546,0.01338l-2.0042,0.00001l-1.48155,-0.00055l-2.02881,-0.1347l-1.45932,-0.09731l-2.00024,-0.16l-1.99363,-0.15949l-1.7674,-0.14142l-1.99852,-0.19031l-1.97468,-0.1882l-1.9798,-0.12319l-1.98667,-0.12379l-1.98866,-0.08602l-1.99813,-0.08648l-1.97953,-0.08585l-1.98135,-0.01177l-1.99996,-0.01206l-1.33877,-0.00807l-1.99699,0h-4l-1.97935,-0.00021l-1.97766,0.08193l-1.99829,0.08257l-1.58727,0.06538l-2.02065,0.00021l-1.39846,-0.00124l-1.94438,0.19568l-2.00137,0.18391l-1.99937,0.16042l-1.88077,0.15008l-1.18957,-0.02595l-0.91954,0.45977l-1.24048,0.01709l-1.51229,0.44128l-1.22485,0.24513l-1.79929,0.2226l-1.56323,0.44925l-2.08471,0.4581l-2.10785,0.02448l-2.00334,0.00465l-1.34306,0.00125l-1.84024,0.22996l-1.86794,0.00138l-1.96233,0.13138l-1.48595,0.09851l-1.73366,-0.00911l-1.55464,0.45058l-2.12306,0.23803l-1.66322,0.00707l-1.34062,0.22582l-2.06313,0.17234l-1.99109,0.04849l-1.99403,0.19947l-2.04738,0.03467l-2.00704,0.00887l-1.78118,-0.03233l-1.71024,-1.09089l-0.39559,-1.81828l-0.17033,-2.03387l-0.16609,-1.99309l-0.12891,-1.54879l-0.09613,-2.01549l-0.09586,-2.01689l-0.01887,-2.01907l-0.01854,-2.00412l-0.00172,-2.0042l-0.00062,-1.0634l0.09599,-2.02194l0.09929,-2.05287l0.32222,-2.02985l0.18185,-1.13921l0.23693,-1.88191l0.46713,-1.87485l0.2728,-1.29063l0.65866,-1.05576l-0.00953,-1.34213l0.45977,-0.91954l-0.02334,-1.00215l0.22989,-1.37931l-0.00341,-1.29683v-2l0.14935,-1.97401l1.44565,-0.87991l1.37542,-0.27915h1.83908l1.14943,-0.22989z"/><path d="M51.32163,218.65162c-0.00528,-0.04737 -0.00807,-0.09738 -0.00807,-0.15018c0,-1 1,-1 1,-1h5.21839l1.91615,0.00352l1.88862,-0.32368l1.97188,-0.33422l1.56479,-0.26165l2.08385,-0.00352h2l1.54353,0.00035l2.02351,0.10615l1.97285,0.10413l1.97559,0.00717l1.99999,0.00756l1.28154,0.0081l2.05282,0.33884l1.91281,0.32066l1.9377,0.08362l1.99806,0.08812l1.92134,0.08498l1.97796,-0.00024h1.21839l1.97539,0.0003l1.97298,-0.09749l2.01765,-0.09919l2.02001,-0.01846l1.53193,-0.00559l1.90819,-0.52304l2.10365,-0.11564l1.15675,-0.06009l1.86518,-0.00034h13.7931l1.94008,0.0018l1.84614,-0.22423l1.85734,-0.23196l1.98726,-0.16547l1.84929,-0.24769l1.32511,-0.48513l2.15906,-0.24582l1.74569,-0.0107l2.00267,0h1.44828l1.19924,0.00124l2.00064,0.19959l1.4084,0.02911l1.48045,0.13915l0.30554,-0.79142l0.06317,-1.77455l0.09908,-1.97773l0.02599,-2.07614l0.40426,-1.97086l0.05935,-1.83002l-0.00015,-1.98286l0.00074,-1.18001l-0.14988,-1.94038l-0.21663,-2.00812l0.35041,-2.89088l2.15809,0.39229l1.77433,1.08801l1.29015,0.79396l1.69592,1.07109l1.69098,1.06799l1.01932,0.64473l1.63255,1.22341l1.18832,0.89213l1.4829,1.29949l1.61167,1.06915l1.66538,1.10748l0.80841,0.54609l1.8617,0.67467l1.79526,1.08747l1.68763,1.02778l1.58855,0.90769l1.81071,0.99072l1.68972,1.27517l1.47802,1.33215l1.56283,1.1304l1.6461,1.10391l1.34177,0.90104l1.11516,0.8955l1.61478,0.89586l1.8022,0.69166l1.13019,0.44968l1.43812,1.1868l1.74181,0.96687l1.61958,1.30235l1.56932,1.22756l0.78536,0.6207l1.67608,0.8329l1.76115,0.76942l1.4763,1.2172l1.5797,1.18437l1.03904,0.79193l1.93759,0.75131l1.25078,1.46174l1.54004,1.09085l1.34724,1.12567l1.55998,1.36122l-1.60391,2.29375l-1.16154,1.26673l-1.11342,1.33568l-1.15651,1.59113l-1.17634,1.61747l-1.18548,1.62984l-1.23486,1.59276l-1.22553,1.58053l-0.92736,1.19573l-1.29151,1.55005l-1.28037,1.53644l-0.87337,1.04765l-1.19639,1.57462l-2.42033,3.18465l-0.72679,0.95605l-1.14309,1.61964l-1.14678,1.62449l-1.10895,1.65054l-1.11543,1.66006l-1.03749,1.53565l-1.4793,1.48593l-1.10389,1.10373l-1.36027,1.44545l-1.37073,1.4564l-0.92702,0.98481l-1.28506,1.44374l-1.13124,1.5847l-0.81024,1.1183l-1.6444,1.35669l-0.94305,0.76999l-1.06498,1.06317l-0.72704,0.96031l-1.14943,0.91954l-1.15648,1.55209l-1.4109,1.46725l-1.28309,1.47907l-1.18259,1.4525l-1.4174,1.41773l-1.18447,1.41398l-1.47107,0.99292l-1.72687,0.84656l-1.14226,-1.48313l-0.52949,-1.36997l-0.01513,-1.95194l-0.2954,-1.90094l-0.15304,-0.99562l-0.3657,-1.94965l-0.33391,-1.80416l-0.00429,-2.09254v-10.41379l0.00124,-1.65901l0.20795,-2.0826l0.36766,-1.94949l0.11338,-1.69888l0.00253,-2.04496l0.23977,-1.53023l0.45389,-0.57235l-0.61629,0.35363h-1.37931l-1.76819,-0.00252l-1.90937,0.27531l-1.28413,0.18238l-2.04335,0.10323l-2.01827,0.1007l-2.02071,0.01717l-1.59546,0.01338l-2.0042,0.00001l-1.48155,-0.00055l-2.02881,-0.1347l-1.45932,-0.09731l-2.00024,-0.16l-1.99363,-0.15949l-1.7674,-0.14142l-1.99852,-0.19031l-1.97468,-0.1882l-1.9798,-0.12319l-1.98667,-0.12379l-1.98866,-0.08602l-1.99813,-0.08648l-1.97953,-0.08585l-1.98135,-0.01177l-1.99996,-0.01206l-1.33877,-0.00807l-1.99699,0h-4l-1.97935,-0.00021l-1.97766,0.08193l-1.99829,0.08257l-1.58727,0.06538l-2.02065,0.00021l-1.39846,-0.00124l-1.94438,0.19568l-2.00137,0.18391l-1.99937,0.16042l-1.88077,0.15008l-1.18957,-0.02595l-0.91954,0.45977l-1.24048,0.01709l-1.51229,0.44128l-1.22485,0.24513l-1.79929,0.2226l-1.56323,0.44925l-2.08471,0.4581l-2.10785,0.02448l-2.00334,0.00465l-1.34306,0.00125l-1.84024,0.22996l-1.86794,0.00138l-1.96233,0.13138l-1.48595,0.09851l-1.73366,-0.00911l-1.55464,0.45058l-2.12306,0.23803l-1.66322,0.00707l-1.34062,0.22582l-2.06313,0.17234l-1.99109,0.04849l-1.99403,0.19947l-2.04738,0.03467l-2.00704,0.00887l-1.78118,-0.03233l-1.71024,-1.09089l-0.39559,-1.81828l-0.17033,-2.03387l-0.16609,-1.99309l-0.12891,-1.54879l-0.09613,-2.01549l-0.09586,-2.01689l-0.01887,-2.01907l-0.01854,-2.00412l-0.00172,-2.0042l-0.00062,-1.0634l0.09599,-2.02194l0.09929,-2.05287l0.32222,-2.02985l0.18185,-1.13921l0.23693,-1.88191l0.46713,-1.87485l0.2728,-1.29063l0.65866,-1.05576l-0.00953,-1.34213l0.45977,-0.91954l-0.02334,-1.00215l0.22989,-1.37931l-0.00341,-1.29683v-2l0.14935,-1.97401l1.44565,-0.87991l1.37542,-0.27915h1.83908l1.14943,-0.22989z"/></g></g></svg>