<svg version="1.1" xmlns="http://www.w3.org/2000/svg" xmlns:xlink="http://www.w3.org/1999/xlink" width="250.76917" height="40.4707" viewBox="0,0,250.76917,40.4707"><g transform="translate(-163.55821,-135.83369)"><g stroke="none" stroke-miterlimit="10"><path d="M363.80865,138.39927c-0.00078,-0.06602 0.00433,-0.1263 0.01428,-0.18133h-185.94066l-1.12422,-0.00256l-0.79072,0.13179l-0.85258,0.00256h-1.0543l-0.8541,-0.02721l-0.65894,0.39536l-1.38628,0.02721h-3.08144l-1.50334,-0.00725l-0.92251,-0.26357l-0.64352,-0.13432l0.03821,0.30243l0.00968,1.06595v3l-0.00007,1.48983l0.04048,1.48928l0.04069,1.49945l0.04087,1.50828l0.00543,1.50883l0.00439,1.23205l0,1.50134v4.43042l-0.0005,1.47252l0.10295,1.41833l0.28886,1.38028l0.00405,1.57785l-0.00725,0.76814l0.26357,0.92251l0.00725,1.29011v5.27148l-0.00115,1.09577l-0.13179,1.18608l-0.19937,0.94807l1.00161,-0.12719l1.49594,0.11032l1.46861,0.10881l1.47263,0.0004l19.5,0.01196l1.49977,0.00092l1.49977,0.00002l18,0.00024l20.65768,0h179.29626l0.34803,0.14459l0.15503,-0.93003l-0.04374,-1.37529l-0.03642,-1.49956l-0.03481,-1.46527l-0.17018,-1.45577l-0.34674,-2.97989l-0.15866,-1.37441l-0.00126,-1.54342v-7.0854l0.00069,-1.33068l0.13016,-1.52652l0.1281,-1.49452l0.12975,-1.51153l0.19809,-1.5041l0.19605,-1.48713l0.14237,-1.0738l0.05551,-1.46422l0.05852,-1.51621l0.12664,-1.49051l0.03875,-0.90279l0.5146,-1.11499l-0.10102,-0.46414l-0.33958,-0.66175l-0.12762,-0.37904l-1.11569,0.01559l-1.4603,0.05976l-0.81432,0.03268l-1.42719,0.09981l-1.4054,0.3243l-1.51582,0.34527l-1.54959,0.12528l-1.47685,0.11727l-1.46922,0.19041l-0.90173,0.11515l-1.4979,0.00155h-6l-0.81145,-0.00115l-1.155,0.12942l-1.53384,0.12734l-1.17209,0.00797l-0.92488,0l-0.95368,-0.00065l-1.55354,-0.12933l-0.84633,-0.13591l-1.5508,-0.00575l-0.87217,-0.26357l-1.26138,0.00617l-0.92251,-0.13179l-1.44683,0.00189h-1.5l-0.91214,-0.00115l-1.119,0.12504l-1.49086,0.26844l-0.85808,0.00303l-1.4123,-0.00093l-1.2806,0.129l-1.32404,0.13238l-1.50099,0.12511l-0.66724,0.00976c0,0 -0.74995,0.00882 -0.75877,-0.74113zM374.75382,136.85016l0.37884,-0.00044h1.5l1.55317,0.00189l0.92251,0.13179l1.37436,0.00617l0.87217,0.26357l1.4492,-0.00575l0.90837,0.1421l1.4361,0.11981l0.89134,-0.00065l0.92014,0l1.10976,-0.00647l1.4558,-0.1218l1.21717,-0.13416l0.8944,-0.00115h6l1.40142,0.00155l0.80565,-0.10585l1.50596,-0.1947l1.5137,-0.12065l1.44096,-0.11264l1.4084,-0.32475l1.51882,-0.34573l1.56518,-0.11393l0.8376,-0.0338l1.53727,-0.06088l1.87847,0.20272l0.66311,0.93883l0.45114,0.9197l0.16255,1.11731l-0.5397,1.25718l-0.00402,0.65536l-0.12713,1.49874l-0.05678,1.48157l-0.05979,1.53356l-0.14985,1.14286l-0.19605,1.48713l-0.19401,1.47017l-0.12645,1.47751l-0.1281,1.49452l-0.12605,1.46252l0.00069,1.26657v7.0854l-0.00126,1.45658l0.15112,1.28787l0.34674,2.97989l0.17656,1.52413l0.03804,1.53385l0.03642,1.49956l0.02911,1.62383l-0.75458,1.92875l-1.23341,0.14459h-179.29626l-20.65769,0l-18,-0.00024l-1.50023,-0.00002l-1.50022,-0.00092l-19.5,-0.01196l-1.52737,-0.00144l-1.52327,-0.11183l-1.49594,-0.11032l-1.99026,-0.34783l-0.19937,-2.05193l0.13179,-1.18608l-0.00115,-1.01282v-5.27148l0.00725,-1.08206l-0.26357,-0.92251l-0.00725,-0.97619l0.00405,-1.42215l-0.28216,-1.32572l-0.11675,-1.57362l-0.0005,-1.52748v-4.43042l0,-1.49866l-0.00438,-1.22938l-0.00526,-1.49115l-0.0405,-1.49061l-0.04069,-1.49945l-0.04089,-1.50962l-0.00007,-1.51017v-3l0.00968,-1.30622l0.56536,-1.27902l1.72864,-0.13432l0.92251,0.26357l1.29529,-0.00725h3.08144l0.98588,0.02721l0.65894,-0.39536l1.2545,-0.02721h1.0543l0.72886,0.00256l0.79072,-0.13179l1.24794,-0.00256h196.42857c0,0 0.23581,0 0.44298,0.13222z" fill="#000000" stroke-width="0.5"/><path d="M364.6162,139.12943l0.66726,-0.00967l1.50102,-0.12498l1.32406,-0.13228l1.28062,-0.12891l1.41233,0.00111l0.8581,-0.00293l1.49087,-0.26842l1.11901,-0.12498l0.91216,0.00125l1.50003,0.00017l1.44686,-0.00173l0.92254,0.13195l1.2614,-0.00605l0.87221,0.2638l1.55082,0.0059l0.84635,0.13606l1.55357,0.12953l0.95369,0.00073l0.9249,0.00008l1.17211,-0.00787l1.53385,-0.12727l1.155,-0.12938l0.81146,0.00121l6.00007,0.00045l1.49791,-0.00145l0.90173,-0.11514l1.46922,-0.19039l1.47686,-0.11722l1.5496,-0.12523l1.41701,-0.3299l1.5042,-0.33976l1.4272,-0.09976l0.81432,-0.03265l1.46031,-0.0597l1.1157,-0.01552l0.12764,0.3792l0.33962,0.66203l0.10105,0.46433l-0.51455,1.1154l-0.03871,0.90315l-0.12658,1.49109l-0.05845,1.51682l-0.05546,1.46481l-0.14233,1.07423l-0.196,1.48773l-0.19805,1.5047l-0.12972,1.51214l-0.12808,1.49513l-0.13014,1.52714l-0.00068,1.33123l-0.00006,7.08829l0.00122,1.54404l0.15862,1.37497l0.34664,2.98109l0.17012,1.45634l0.03474,1.46585l0.03635,1.50015l0.04366,1.37583l-0.15509,0.93041l-0.34803,-0.14462l-179.39319,0.00808l-20.65879,-0.0039l-18.00046,-0.00235l-1.4998,-0.00016l-1.4998,-0.00106l-19.50026,-0.01346l-1.47265,-0.0005l-1.46863,-0.10894l-1.49596,-0.11045l-1.00161,0.12718l0.19931,-0.94843l0.13172,-1.18654l0.00109,-1.09621l-0.00022,-5.27359l-0.00729,-1.29063l-0.2636,-0.92289l0.00723,-0.76845l-0.00408,-1.57848l-0.28888,-1.38084l-0.10297,-1.4189l0.00049,-1.47311l0.00001,-4.43221l0.00002,-1.50194l-0.00437,-1.23254l-0.00539,-1.50943l-0.04083,-1.50889l-0.04064,-1.50005l-0.04043,-1.48987l0.00013,-1.49042l0.00014,-3.00118l-0.00963,-1.06636l-0.03819,-0.30254l0.74251,0.14852l0.82351,0.24945l1.50335,0.00717l3.08147,-0.00018l1.3863,-0.02731l0.65897,-0.39557l0.8541,0.02717l1.05431,-0.00007l0.85259,-0.00261l0.79074,-0.1319l1.12424,0.00248l186.03865,-0.00367c-0.00995,0.05503 -0.01503,0.11542 -0.01426,0.18144c0.00882,0.74995 0.7589,0.74169 0.7589,0.74169z" fill="#9ef5ff" stroke-width="0.5"/><text transform="translate(200.41191,152.27685) scale(0.36363,0.36363)" font-size="40" xml:space="preserve" fill="#000000" stroke-width="1" font-family="&quot;RifficFree-Bold&quot;, Sans Serif" font-weight="normal" text-anchor="start"><tspan x="0" dy="0">All RealXin Things he made</tspan><tspan x="0" dy="46.15px">Has Credit Protection</tspan></text></g></g></svg>