<svg version="1.1" xmlns="http://www.w3.org/2000/svg" xmlns:xlink="http://www.w3.org/1999/xlink" width="641.32885" height="300.11262" viewBox="0,0,641.32885,300.11262"><g transform="translate(0.99479,-0.41395)"><g stroke="none" stroke-miterlimit="10"><path d="M-0.99478,300.52657v-300.11262h641.32885v300.11262z" fill="#ffffff" stroke-width="0"/><text transform="translate(12.49649,45.31316) scale(1.0068,1.0068)" font-size="40" xml:space="preserve" fill="#000000" stroke-width="1" font-family="&quot;HPSimplified&quot;, Sans Serif" font-weight="400" text-anchor="start"><tspan x="0" dy="0">RealXin Channel (YouTube)</tspan></text><path d="M385.59214,70.12457l-1.50273,-0.10776l-1.61219,-0.11625l-1.96421,0.00064h-2l-1.24567,-0.00094l-2.03576,-0.17608l-1.96372,-0.17118l-1.97035,-0.05688l-3.99831,-0.11627l-1.96575,-0.05717l-2.00101,-0.0667l-1.99889,-0.06663l-1.76591,-0.059l-1.98334,0.00014h-2l-1.73053,-0.00124l-1.94038,0.19529l-3.98015,0.39801l-1.71059,0.17071l-1.95051,0.30043l-1.97674,0.30411l-1.10933,0.16921l-2.0514,0.09468l-2.01975,0.09157l-2.02182,0.00383l-2,0.00355l-2.00083,0.00356l-2.00084,0.00021l-1.71209,-0.00021l-2.0247,-0.1121l-1.48343,-0.08249l-2.00576,-0.16039l-1.93842,-0.15661l-1.94377,0.06133l-1.97957,0.06071l-2.00511,0.13986l-2.02936,0.02234l-1.99988,0.02158l-1.21343,0.01271l-1.99167,0.13288l-2.02363,0.03792l-1.21639,0.02258l-2.0093,0.00004h-17.34104l-1.12441,-0.00086l-1.99627,-0.16623l-1.96159,-0.01176l-1.99699,-0.01273l-2.03123,-0.00148l-1.99996,-0.13778l-1.97041,-0.01895l-1.9999,-0.01968l-1.71926,-0.02198l-1.92269,-0.41596l-1.86325,0.11393l-2.02478,0.1137l-2.02797,0.00109l-1.83593,-0.00022l-1.98886,0.16591l-2.03707,0.01864l-1.02103,0.00899l-2.00441,0.00001l-1.82419,-0.00043l-1.9672,0.11615l-1.27272,0.07485l-1.99381,0.14242l-2.00144,0.1222l-1.89038,0.11117l-1.51692,0.38127l-1.80055,0.20233l-1.98777,0.22086l-1.28115,0.12144l-1.23347,0.72508l-1.53182,0.57346l-1.63509,0.98586l-1.11062,0.6629l-1.09841,0.91921l-1.5044,1.22837l-1.30679,1.37557l-1.23256,1.52661l-1.26608,1.55136l-0.89773,1.09967l-1.14361,1.52516l-1.1475,1.52983l-1.14497,1.62222l-1.09522,1.54118l-0.72076,1.74138l-0.74404,1.84406l-0.72611,1.85769l-0.69694,1.76983l-0.33795,1.91651l-0.53339,1.97315l-0.5097,1.87596l-0.29348,1.92168l-0.30354,1.97683l-0.22192,1.43623l-0.09127,1.9455l-0.09734,2.0319l-0.23497,2.02061l-0.15566,1.33512l-0.21256,1.98399l-0.21307,1.98862l-0.14896,1.38534l-0.08138,1.96578l-0.08337,2.00084l-0.09365,2.00038l-0.09276,1.97642l-0.00763,1.97858l-0.01588,3.99997l-0.00793,1.998l0,1.99802l-0.00667,1.19834l-0.47799,2.06059l-0.29522,1.23478l-0.07156,1.90325l-0.08049,2.01041l-0.12864,2.0079l-0.09671,1.507l-0.06831,1.98405l-0.06892,1.99881l-0.05438,1.57282l0.00015,1.98277v1.46821l-0.00487,1.63996l-0.38536,1.92678l0.00395,1.94437l-0.17173,1.99798l-0.02053,1.96377l-0.106,2.01816l-0.08652,1.63738l0.00035,1.97371v13.68015l-0.00193,1.59875l0.24228,1.92266l0.11597,0.98311l0.56865,1.50613l0.38528,1.93787l0.74748,1.71885l0.85947,1.78277l0.57335,1.21318l1.25369,1.37041l1.34183,1.48307l0.92102,1.02278l1.50111,1.19676l1.27462,1.02259l1.6586,0.99253l1.10168,0.66509l1.78589,0.69507l1.75099,0.69255l1.86591,0.2529l2.0164,0.28145l1.99124,0.42433l1.95595,0.41746l1.07304,0.2301l1.94055,0.22996l3.97195,0.47285l1.94986,0.23279l1.96167,0.08944l2.01441,0.09266l2.01026,0.15895l1.99377,0.15778l1.2073,0.09564l1.98353,0.10162l3.99475,0.20486l1.55001,0.07987l2.01625,0.21564l1.98862,0.21307l1.40976,0.15108l1.98378,0.18031l1.99179,0.18107l1.97445,0.17965l1.97952,0.11057l3.99376,0.22338l1.50492,0.08431l1.98292,0.04493l3.99897,0.09089l1.98899,0.04526l1.98951,0.00341l2,0.00348l1.99917,0.00348l1.99917,0.00016l2,0.00016l1.66658,0.0002l2.0108,0.04564l3.99897,0.09089l1.9889,0.04526l1.98941,0.00303l4,0.00621l1.0302,0.0016l1.99922,0h2l1.9891,0.00006l1.98863,-0.04342l3.99905,-0.0872l1.97598,-0.04281l1.97174,-0.13637l1.99525,-0.13772l1.91165,-0.13046l2.05284,0.08063l1.996,0.07984l1.99636,0.07025l1.99876,0.07033l1.98201,0.06989l1.98324,0.00316l3.99999,0.00666l1.99927,0.00333l1.99927,0.00041l3.70624,0.00075l8.8631,0l1.97318,0.00036l1.97032,-0.10618l1.56994,-0.0841l1.97042,-0.18787l1.96819,-0.18718l1.99029,-0.28183l2.02737,-0.15219l2.01481,-0.1505l2.01926,-0.06849l1.99886,-0.0676l1.86775,-0.06302l2.0169,-0.00014h3.27553l1.78734,0.0022l1.91652,-0.25775l1.98246,-0.26433l1.85209,-0.24626l2.03333,-0.12029l1.30833,-0.07653l1.96349,0.00174l1.91704,-0.25644l1.98234,-0.26291l1.98217,-0.26412l1.2908,-0.17195l1.8986,-0.28971l1.9509,-0.58192l2.09787,-0.17522l1.37787,-0.10972l1.91196,-0.38317l1.69047,-0.18491l1.83362,-0.54331l1.33972,-0.39387l1.05265,-0.34653l1.54945,-0.8574l1.37245,-1.28434l1.14144,-1.04805l0.98292,-1.58907l0.85342,-1.36485l0.95849,-1.72597l0.92908,-1.66896l0.74126,-1.79567l0.7647,-1.84803l0.74922,-1.80824l0.59049,-1.86611l0.57799,-1.82253l0.71103,-1.89705l0.42857,-1.13358l0.37324,-1.88276l0.39052,-1.95241l0.35557,-1.95908l0.35195,-1.93602l0.22539,-1.9548l0.19335,-1.6586l-0.00165,-1.9425l0.00009,-2.01342l0.05396,-2.0127l0.10737,-3.99856l0.03135,-1.16408l-0.00009,-1.98658l0.00023,-1.9785l-0.08529,-1.97666l-0.08601,-1.99877l-0.08354,-1.99887l-0.08352,-1.99826l-0.04232,-1.05204l-0.3046,-1.91859l-0.27832,-1.83397l0.28627,-2.07035l0.04581,-1.94079l0.04875,-1.98801l0.00332,-1.98791l0.00062,-1.99931l0.00055,-1.77452l0,-1.99984l0.00381,-1.1883l-0.33617,-1.88301l-0.23629,-1.34301l-0.20083,-2.01371l-0.00124,-1.9766v-2l0.00074,-1.50658l0.15363,-1.99988l0.02219,-1.96727l0.01613,-1.39524l-0.00002,-1.99422v-6.81696l0.00252,-1.08052l0.19268,-1.34875l-0.00252,-1.47054v-1.54143l0.00404,-1.45162l-0.35388,-1.93181l-0.14977,-2.04829l-0.0727,-1.01245l-0.1822,-1.27633l-0.39559,-1.8043v-1.54143l-0.36977,-1.63669l-0.35279,-1.80878l-0.71927,-1.41875l-0.88523,-1.77092l-0.99398,-1.80946l-0.5478,-1.68466l-1.35307,-1.03259l-1.65229,-1.21323l-1.27996,-1.25018l-1.03308,-0.86854l-1.75668,-0.87424l-0.90864,-0.647l-0.97548,-0.49275l-1.66646,-0.36401l-1.04932,-0.36198l-1.33378,0.00231l-2.05153,-0.60442l-1.29875,-0.37287l-1.01859,-0.17159l-1.60416,-0.00719l-2.05153,-0.60442l-1.27881,-0.36858l-1.51208,-0.18714l-1.7341,-0.38536l-1.47115,-0.18306l-1.94014,-0.14942l-1.9222,-0.03164l-1.97949,0.15597l-2.0377,0.02634l-1.56914,-0.00203l-1.70851,-0.37953h-1.33973l-0.54141,-0.00012l-0.03663,0.00012h-1.46821l-1.49161,-0.00124l-1.84457,0.18517l-1.12369,0.18783c0,0 -0.92122,0.15354 -1.1315,-0.72641zM401.30248,68.71852l0.49963,-0.03908l2.07728,0.03282l2.04808,0.15737l1.6117,0.2023l1.7341,0.38536l1.57078,0.19821l1.44095,0.40881l1.77977,0.54498l1.47869,-0.00719l1.29355,0.21376l1.42101,0.40452l1.77977,0.54498l1.36372,0.00231l1.26282,0.40873l1.80175,0.4067l1.33666,0.66332l0.90864,0.647l1.82103,0.91461l1.27906,1.05824l1.23293,1.20901l1.57455,1.15057l1.7704,1.46619l0.74137,2.02491l0.93763,1.69324l0.90362,1.80679l0.82216,1.6641l0.41792,2.04478l0.40095,1.83152v1.54143l0.37512,1.66391l0.20316,1.42117l0.07894,1.08178l0.13912,1.94126l0.36167,2.00367l0.00404,1.63123v1.54143l-0.00252,1.61231l-0.19268,1.34875l0.00252,0.93875v6.81696l-0.00002,2.00578l-0.01623,1.40679l-0.02401,2.03246l-0.15315,1.98834l0.00074,1.42983v2l-0.00124,1.87697l0.18453,1.83986l0.22464,1.26892l0.35898,2.05613l0.00381,1.36276l0,2.00016l-0.00055,1.77483l-0.00062,2.00069l-0.00349,2.01208l-0.04918,2.01079l-0.05213,2.05801l-0.27941,1.88945l0.2539,1.53675l0.31925,2.03246l0.05041,1.16657l0.08352,1.99826l0.08349,1.99764l0.08595,1.99754l0.08667,2.01964l0.00023,2.0215l-0.00009,2.01342l-0.03189,1.19092l-0.10737,3.99856l-0.05342,1.98586l0.00009,1.98658l-0.00165,2.0575l-0.20326,1.77322l-0.23383,2.01875l-0.36245,1.99966l-0.35883,1.97661l-0.39394,1.96991l-0.41123,2.03956l-0.47908,1.2868l-0.69346,1.84827l-0.56169,1.77331l-0.61803,1.94696l-0.78019,1.88783l-0.7647,1.84803l-0.78815,1.90039l-0.98191,1.77082l-0.98408,1.77066l-0.88015,1.40886l-1.13707,1.80293l-1.32238,1.23978l-1.55872,1.43747l-1.91876,1.06938l-1.25949,0.42418l-1.37388,0.40425l-2.00384,0.58536l-1.77774,0.20045l-1.9416,0.38754l-1.49386,0.12251l-1.88911,0.14721l-1.88044,0.56734l-2.05488,0.31852l-1.31079,0.17471l-1.98278,0.2642l-1.98294,0.26299l-2.04823,0.26946l-2.03651,0.00174l-1.24963,0.07394l-1.95976,0.1146l-1.77878,0.23786l-1.98246,0.26433l-2.04839,0.2709l-1.91979,0.0022h-3.27553l-1.9831,-0.00014l-1.83396,0.06216l-1.99886,0.0676l-1.97845,0.0667l-1.97404,0.14786l-1.96149,0.14617l-1.97012,0.27955l-2.01379,0.19205l-2.01157,0.19136l-1.61115,0.08674l-2.02393,0.10834l-2.02682,0.00036l-8.8633,0l-3.70644,-0.00075l-2.00073,-0.00041l-2.00073,-0.00333l-3.99999,-0.00666l-2.01675,-0.0035l-2.01551,-0.07078l-1.99876,-0.07033l-2.00116,-0.07042l-2.0008,-0.08003l-1.94397,-0.07924l-1.80286,0.12592l-1.99525,0.13772l-2.01877,0.13906l-2.02307,0.04439l-3.99905,0.0872l-2.01042,0.04378l-2.0109,0.00006h-2l-2.00078,0l-1.03175,-0.0016l-4,-0.00621l-2.01058,-0.00318l-2.01007,-0.04563l-3.99897,-0.09089l-1.98816,-0.04525l-1.64393,-0.00007l-2,-0.00016l-2.00083,-0.00016l-2.00083,-0.00349l-2,-0.00348l-2.01049,-0.00356l-2.00997,-0.04563l-3.99897,-0.09089l-2.01605,-0.04596l-1.53804,-0.08589l-3.99376,-0.22338l-2.01423,-0.11281l-2.00912,-0.1825l-1.99179,-0.18107l-1.99979,-0.18183l-1.42575,-0.15273l-1.98862,-0.21307l-1.96099,-0.21049l-1.49464,-0.07626l-3.99475,-0.20486l-2.01122,-0.10324l-1.23497,-0.09763l-1.99377,-0.15778l-1.97727,-0.15661l-1.98138,-0.09087l-2.03411,-0.09409l-2.02209,-0.24006l-3.97195,-0.47285l-2.03141,-0.24289l-1.16321,-0.24719l-1.95595,-0.41746l-1.92066,-0.41059l-1.94537,-0.27025l-2.09586,-0.2988l-1.97398,-0.76505l-1.93908,-0.76253l-1.24869,-0.74513l-1.77137,-1.06545l-1.38225,-1.10291l-1.62237,-1.30202l-1.03344,-1.13742l-1.34183,-1.48307l-1.42996,-1.59573l-0.71567,-1.46135l-0.8772,-1.82055l-0.83735,-1.9538l-0.39919,-1.98445l-0.58742,-1.57672l-0.1586,-1.21348l-0.25386,-2.04645l-0.00193,-1.72302v-13.68015l0.00035,-2.02629l0.0886,-1.68992l0.10424,-1.97631l0.02186,-1.99701l0.17124,-1.98729l0.00395,-2.05563l0.38536,-1.92678l-0.00487,-1.44289v-1.46821l0.00015,-2.01723l0.05527,-1.60727l0.06892,-1.99881l0.06954,-2.01357l0.09838,-1.53649l0.12724,-1.98391l0.07938,-1.9864l0.08831,-2.09355l0.33005,-1.42261l0.43816,-1.83308l-0.00667,-0.96776l0,-2.00198l0.00795,-2.00197l0.01588,-3.99997l0.00825,-2.02139l0.09431,-2.0192l0.09342,-1.99524l0.08315,-1.9957l0.08514,-2.03076l0.15484,-1.45017l0.21307,-1.98862l0.21357,-1.99325l0.15671,-1.34438l0.22821,-1.95248l0.09292,-1.96357l0.09899,-2.04998l0.2351,-1.54016l0.30354,-1.97683l0.3136,-2.03198l0.53596,-1.98495l0.51227,-1.88776l0.36444,-2.02133l0.75927,-1.95568l0.7301,-1.86782l0.75265,-1.86538l0.8207,-1.94968l1.21151,-1.72669l1.16177,-1.64566l1.16464,-1.55302l1.16853,-1.55769l0.92332,-1.13169l1.26302,-1.54761l1.2815,-1.58458l1.44993,-1.52279l1.59143,-1.30458l1.21372,-1.00758l1.23975,-0.74732l1.79488,-1.07212l1.55103,-0.58261l1.46402,-0.81634l1.67973,-0.20755l1.98777,-0.22086l1.66765,-0.18303l1.56593,-0.38945l2.07327,-0.13081l1.99113,-0.12154l1.99602,-0.14257l1.28525,-0.07562l2.0259,-0.11874l1.88294,-0.00043l1.99559,0.00001l1.01221,-0.00893l1.96277,-0.01661l1.99732,-0.16628l1.91871,-0.00152l1.97203,-0.00029l1.96889,-0.11134l2.13042,-0.11111l1.98852,0.42216l1.51846,0.00988l1.9999,0.01968l2.0294,0.02041l1.99057,0.13743l1.96876,0.00029l2.00292,0.01276l2.03833,0.01372l1.98991,0.16595l1.04129,-0.00086h17.34104l1.9907,0.00004l1.19779,-0.02232l1.97568,-0.03646l1.99947,-0.1332l1.26919,-0.01409l1.99988,-0.02158l1.97041,-0.02083l1.98516,-0.13896l2.01854,-0.06229l2.05434,-0.06168l2.04884,0.16237l1.9815,0.15859l1.45914,0.08099l1.96914,0.10978l1.65649,-0.00056l1.99916,-0.00021l1.99916,-0.00355l2,-0.00355l1.97818,-0.00328l1.97613,-0.09006l1.94447,-0.08695l1.00296,-0.15576l1.97674,-0.30411l2.00298,-0.3078l1.76323,-0.17668l3.98015,-0.39801l2.03976,-0.20273l1.83016,-0.00124h2l2.01666,0.00014l1.79922,0.05984l1.99889,0.06663l1.99677,0.06656l1.9615,0.05704l3.99831,0.11627l2.02796,0.05939l2.02124,0.17534l1.94921,0.17044l1.15896,-0.00094h2l2.03579,0.00064l1.68367,0.1201l1.99488,0.14306l1.98084,0.14215l1.98406,0.08616l1.97099,0.08593l0.48851,0l0.0421,0.00012l0.53593,-0.00012h7.39499c0,0 0.38544,0 0.67773,0.2393z" fill="#000000" stroke-width="0.5"/><path d="M386.75706,70.81378l1.12397,-0.18758l1.84504,-0.18474l1.49201,0.00162l1.46859,0.00037l0.03664,-0.00011l0.54154,0.00025l1.34006,0.00033l1.70902,0.38004l1.5695,0.00241l2.03815,-0.02585l1.97988,-0.15555l1.92261,0.03209l1.94056,0.1499l1.47147,0.18344l1.73451,0.38584l1.51238,0.18752l1.27911,0.36896l2.052,0.60502l1.60441,0.00753l1.01878,0.17185l1.29902,0.37324l2.05195,0.605l1.33396,-0.00205l1.04953,0.36229l1.66675,0.36443l0.97569,0.49308l0.90887,0.64735l1.75704,0.87482l1.03335,0.86898l1.28032,1.25078l1.65267,1.21388l1.35338,1.03314l0.54813,1.68527l0.99436,1.81018l0.88559,1.77162l0.71955,1.41932l0.3531,1.80943l0.37004,1.63728l0.00023,1.54194l0.39588,1.80497l0.18239,1.27679l0.07285,1.01282l0.15006,2.04904l0.35415,1.93255l-0.00385,1.45215l0.00019,1.54199l0.0027,1.47109l-0.19252,1.34923l-0.00239,1.08094l0.00072,6.81963l0.0002,1.99503l-0.01601,1.39581l-0.02203,1.96808l-0.15348,2.0007l-0.00063,1.50721l0.00013,2.00084l0.00136,1.97744l0.20093,2.01458l0.23635,1.34359l0.33624,1.88383l-0.00377,1.18882l0.00006,2.00071l-0.00052,1.77529l-0.0006,2.00017l-0.00331,1.98877l-0.04876,1.98887l-0.04583,1.94163l-0.28631,2.07125l0.27828,1.83476l0.30455,1.9194l0.04228,1.05249l0.08344,1.9991l0.08345,1.99971l0.0859,1.9996l0.08516,1.97748l-0.00037,1.97932l-0.00006,1.98739l-0.03144,1.16456l-0.10773,4.00018l-0.05415,2.0135l-0.0003,2.01421l0.00144,1.94325l-0.19354,1.65926l-0.22563,1.95557l-0.3522,1.93679l-0.35583,1.95984l-0.3908,1.95317l-0.37351,1.88349l-0.42875,1.13404l-0.71135,1.89781l-0.5783,1.82324l-0.59082,1.86683l-0.74956,1.80896l-0.76506,1.84876l-0.74161,1.79637l-0.92945,1.66965l-0.95888,1.72667l-0.85374,1.36541l-0.98331,1.58972l-1.14175,1.04857l-1.37285,1.28497l-1.5498,0.85794l-1.05285,0.34683l-1.33997,0.39424l-1.83397,0.54382l-1.69074,0.1853l-1.91232,0.38367l-1.37811,0.11003l-2.09824,0.17571l-1.95135,0.5825l-1.899,0.2902l-1.29107,0.17228l-1.9826,0.26464l-1.98278,0.26343l-1.9175,0.25696l-1.96391,-0.00128l-1.30864,0.07686l-2.03383,0.12081l-1.85259,0.24678l-1.98302,0.26489l-1.91708,0.2583l-1.78782,-0.00174l-3.27646,0.00085l-2.01751,0.00067l-1.86836,0.06353l-1.99953,0.06814l-2.01997,0.06905l-2.01557,0.15107l-2.02816,0.15277l-1.99113,0.28242l-1.96903,0.18774l-1.97128,0.18843l-1.57064,0.08453l-1.97122,0.1067l-1.97408,0.00015l-8.86755,0.00215l-3.70829,0.00006l-2.00042,0.00001l-2.00044,-0.00294l-4.00243,-0.00595l-1.98449,-0.00285l-1.98328,-0.06961l-2.00006,-0.07008l-1.99768,-0.07003l-1.99733,-0.07966l-2.05423,-0.08048l-1.91296,0.13057l-1.99663,0.1378l-1.9731,0.13641l-1.97734,0.04281l-4.00179,0.08709l-1.98998,0.04331l-1.99044,-0.0002l-2.00134,-0.00018l-2.00054,-0.00021l-1.03087,-0.00172l-4.00256,-0.00676l-1.99065,-0.00335l-1.99012,-0.04561l-4.00134,-0.09166l-2.01196,-0.04606l-1.6675,-0.00056l-2.00108,-0.00061l-2.00022,-0.00063l-2.00018,-0.00397l-2.00098,-0.00398l-1.99045,-0.00391l-1.98992,-0.04578l-4.00073,-0.09194l-1.98374,-0.04546l-1.50555,-0.08473l-3.99533,-0.22449l-1.98026,-0.11112l-1.97518,-0.18021l-1.99249,-0.18164l-1.98446,-0.18087l-1.41023,-0.15148l-1.98926,-0.21363l-2.01687,-0.21621l-1.55045,-0.08029l-3.99582,-0.20591l-1.98403,-0.10214l-1.20761,-0.09596l-1.99425,-0.1583l-2.01073,-0.15947l-2.01484,-0.09315l-1.96208,-0.08991l-1.95028,-0.23329l-3.97275,-0.47385l-1.94091,-0.23043l-1.07326,-0.23039l-1.95633,-0.41798l-1.99161,-0.42485l-2.01674,-0.28193l-1.86621,-0.25333l-1.75134,-0.69308l-1.78624,-0.6956l-1.10193,-0.66549l-1.65896,-0.99312l-1.27494,-1.02311l-1.50147,-1.19738l-0.92128,-1.02324l-1.3422,-1.48375l-1.25402,-1.37104l-0.57359,-1.21366l-0.85982,-1.78348l-0.7478,-1.71952l-0.38559,-1.93857l-0.56891,-1.50672l-0.11612,-0.98346l-0.24257,-1.92335l0.00171,-1.5993l-0.00168,-13.68519l-0.00055,-1.97448l0.08636,-1.63802l0.10581,-2.01895l0.02036,-1.96456l0.17157,-1.99878l-0.00409,-1.94517l0.38523,-1.92756l0.00476,-1.64065l-0.00009,-1.46883l-0.00025,-1.98361l0.05431,-1.57349l0.06884,-1.99967l0.06824,-1.98491l0.09667,-1.50765l0.1286,-2.00877l0.08046,-2.01128l0.07156,-1.90408l0.29522,-1.23532l0.47801,-2.06149l0.00668,-1.19887l0.00004,-1.99889l0.00799,-1.99887l0.01604,-4.00171l0.00772,-1.97943l0.09288,-1.97727l0.09378,-2.00124l0.08351,-2.00169l0.08153,-1.96661l0.14908,-1.38593l0.21325,-1.98946l0.21275,-1.98482l0.1558,-1.33568l0.23519,-2.02145l0.09757,-2.03272l0.0915,-1.94627l0.2221,-1.43681l0.3038,-1.97763l0.29375,-1.92245l0.50998,-1.87672l0.5337,-1.97395l0.33825,-1.91725l0.69725,-1.77056l0.72645,-1.85845l0.74439,-1.84481l0.72111,-1.74209l1.09558,-1.54188l1.14535,-1.62295l1.14788,-1.53053l1.144,-1.52585l0.89803,-1.10018l1.26652,-1.55208l1.233,-1.52731l1.30722,-1.37623l1.50484,-1.22903l1.09875,-0.91969l1.11092,-0.66332l1.63554,-0.98648l1.53218,-0.57394l1.23383,-0.72554l1.28139,-0.12174l1.98816,-0.22136l1.80093,-0.20278l1.5173,-0.38171l1.89078,-0.11163l2.00188,-0.1227l1.99427,-0.14293l1.27302,-0.07517l1.96768,-0.11665l1.82463,-0.00001l2.00491,-0.00051l1.02129,-0.00925l2.03761,-0.01916l1.98945,-0.16645l1.83646,-0.00025l2.02858,-0.00162l2.02544,-0.11426l1.86388,-0.11445l1.92323,0.41553l1.71986,0.02152l2.00063,0.01915l1.97115,0.01843l2.00071,0.13726l2.03207,0.00093l1.99784,0.0122l1.96245,0.01124l1.99715,0.16573l1.12494,0.00057l17.35056,-0.00397l2.01055,-0.0004l1.21716,-0.02278l2.02494,-0.03824l1.993,-0.13316l1.21424,-0.01286l2.00123,-0.02181l2.03074,-0.02253l2.0065,-0.14002l1.98094,-0.06083l1.94512,-0.06141l1.93977,0.15657l2.00717,0.16039l1.48447,0.08251l2.02612,0.11217l1.71328,0.0003l2.00222,-0.00007l2.00221,-0.00338l2.00135,-0.00334l2.02317,-0.00358l2.02106,-0.09129l2.05271,-0.09437l1.11,-0.16903l1.97792,-0.30378l1.95164,-0.30008l1.71156,-0.17038l3.98232,-0.3972l1.94139,-0.19487l1.73145,0.00164l2.00103,0.00048l1.98433,0.00034l1.76678,0.05945l1.99984,0.06715l2.00193,0.06722l1.96662,0.05769l3.99999,0.11735l1.97113,0.05742l1.96451,0.17173l2.03654,0.17666l1.2461,0.00127l2.00067,0.00053l1.96485,-0.00012l1.61273,0.1167l1.50321,0.10818c0.21029,0.87994 1.13203,0.72687 1.13203,0.72687z" fill="#ff0000" stroke-width="0.5"/><path d="M299.31261,123.47636l0,7.16279l-0.00193,1.71532l-0.25386,2.04645l-0.24452,1.95174l-0.11414,1.96368l-0.11677,1.99932l-0.12765,1.99865l-0.12748,1.99593l-0.12612,1.96895l-0.01885,1.97289l-0.01945,1.99562l-0.00231,1.99571l-0.00575,2.08164l-0.33785,2.05404l-0.24425,1.46325l-0.13317,1.94759l-0.1376,1.99526l-0.10962,1.58903l-0.10466,1.98911l-0.08652,1.63738l-0.00001,2.00054l-0.10834,2.02393l-0.09035,1.6496l-0.3511,2.02908l-0.33664,1.93107l-0.18036,1.95187l-0.09311,1.00319l-0.18998,2.06168l-0.39066,1.62421l0.00681,1.88352l-0.00252,1.15374l-0.19104,1.33726l0.62092,-0.44807l1.82953,-0.54765l1.69017,-0.88328l1.7115,-0.88652l1.56216,-1.12908l1.62254,-1.16934l1.11423,-0.80269l1.54879,-1.22869l3.13399,-2.48558l0.91953,-0.7282l1.69795,-1.13299l1.24602,-0.83034l1.77713,-1.06525l1.849,-0.88098l1.25842,-0.59774l1.6755,-0.97821l1.67528,-1.05939l1.7081,-1.06956l1.94879,-0.60439l1.68824,-0.88921l1.59179,-0.83026l1.67598,-0.55108l1.57104,-1.10967l1.83666,-0.94908l1.73418,-0.89232l1.63565,-1.0622l1.67803,-1.08821l1.74391,-1.12743l1.89326,-0.85315l1.4158,-0.63535l1.78339,-0.89182l1.77103,-0.81884l1.63807,-1.0326l1.1202,-0.70183l1.8677,-0.85133l1.40407,-0.68806l0.48119,0.02078l-0.73768,-0.91379l-1.33604,-1.24577l-0.97105,-0.92297l-1.31922,-1.58038l-1.25398,-1.50604l-1.37222,-1.39915l-1.38613,-1.41477l-1.44012,-1.35978l-1.42253,-1.34467l-1.53276,-1.21752l-1.54396,-1.22805l-1.6089,-1.14165l-1.63087,-1.1577l-1.62524,-1.15373l-1.641,-1.1312l-1.61234,-1.1125l-1.6991,-0.97485l-1.14078,-0.66521l-1.50087,-1.48878l-1.45043,-1.35128l-1.37427,-1.28075l-1.35107,-1.35821l-1.62473,-1.06226l-1.60526,-1.26383l-1.56383,-1.23242l-1.62738,-1.23782l-1.47953,-1.39538l-1.49262,-1.30123l-1.52878,-1.33356l-1.38787,-1.35804l-1.32411,-1.13424l-1.33579,-1.14515l-1.03749,-0.83864l-1.29607,-1.65532l-1.04387,-1.2642l-1.31612,-1.31454l-0.96339,-0.96339l-1.06437,-1.07497l-1.05509,-0.65913l-0.43372,-0.8439l-0.11352,-0.14187l-0.08742,0.71295l-0.13752,1.79745l-0.01661,1.96277l-0.01889,0.86696l0.57389,1.91008l0.01412,1.50508l0,1.34998l-0.01804,1.34518l-0.38536,0.96339l0.01638,1.86861l-0.19767,1.71841l0.00666,0.65548c0,0 0,0.52955 -0.38536,0.81794zM297.70714,110.65838l-0.00017,-0.20073l0.01864,-2.03707l0.19466,-2.18873l1.06865,-1.98455l2.19862,0.24348l0.72235,1.08288l0.8717,0.49694l1.24776,1.23717l0.96339,0.96339l1.38138,1.38296l1.12464,1.35873l1.1597,1.50209l0.88929,0.70279l1.3617,1.16699l1.37339,1.1779l1.39411,1.36377l1.48608,1.29524l1.52224,1.32758l1.42877,1.35085l1.55797,1.18159l1.57788,1.24339l1.53646,1.21198l1.71838,1.13401l1.47736,1.47022l1.34867,1.25646l1.47604,1.37557l1.32755,1.33964l0.92112,0.51898l1.76954,1.01726l1.68098,1.15776l1.65232,1.13906l1.6365,1.16167l1.63087,1.1577l1.65284,1.17375l1.58701,1.26133l1.5982,1.27186l1.4856,1.40174l1.46801,1.38663l1.4135,1.44216l1.42741,1.45778l1.30676,1.56685l1.24151,1.4925l0.88832,0.8398l1.56679,1.50624l1.05117,2.66392l-1.44559,1.17685l-1.50552,0.73958l-1.77376,0.80388l-1.00377,0.63397l-1.74795,1.09692l-1.85803,0.8634l-1.79431,0.89704l-1.45365,0.65282l-1.75589,0.78504l-1.61216,1.049l-1.67803,1.08821l-1.72042,1.11423l-1.82143,0.94007l-1.71895,0.8833l-1.70589,1.18418l-1.79223,0.60499l-1.44649,0.76144l-1.85498,0.96702l-1.87433,0.57195l-1.47513,0.94305l-1.70564,1.07821l-1.77962,1.03727l-1.33349,0.63541l-1.76303,0.83751l-1.65284,0.99273l-1.20612,0.80442l-1.63025,1.08581l-0.85384,0.67827l-3.13399,2.48558l-1.5852,1.25689l-1.15128,0.83004l-1.62254,1.16934l-1.68292,1.20961l-1.83778,0.95809l-1.85912,0.96133l-1.99986,0.6081l-2.79717,0.43599l-0.40338,-2.03135l0.19268,-1.34875l-0.00252,-1.01196l0.00681,-2.11648l0.40326,-1.71399l0.17216,-1.92189l0.09328,-1.00507l0.1893,-2.03101l0.34872,-2.00978l0.33426,-1.91176l0.08049,-1.53149l0.10618,-1.97032l-0.00001,-1.99946l0.0886,-1.68992l0.10558,-2.00536l0.11067,-1.60527l0.1376,-1.99526l0.14204,-2.04293l0.25767,-1.55806l0.31768,-1.89188l-0.00111,-1.91836l0.00233,-2.00429l0.01951,-2.00419l0.02011,-2.02692l0.12883,-2.02292l0.12748,-1.99593l0.12731,-1.99322l0.11644,-1.99388l0.11907,-2.02951l0.25162,-2.01737l0.24228,-1.92266l-0.00193,-1.59104v-19.15607c0,0 0,-0.53792 0.39452,-0.8247z" fill="#000000" stroke-width="0.5"/><path d="M299.66207,122.62362l-0.0062,-0.65595l0.19902,-1.71971l-0.01513,-1.86973l0.38628,-0.96417l0.01891,-1.34588l0.00082,-1.35061l-0.01325,-1.50572l-0.57327,-1.91052l0.01937,-0.86729l0.01763,-1.96346l0.1385,-1.79807l0.08782,-0.71319l0.16524,0.22746l0.38196,0.75834l1.05562,0.65882l1.06474,1.07476l0.96375,0.96319l1.31665,1.31424l1.04421,1.26402l1.29648,1.6551l1.03814,0.8383l1.33666,1.14472l1.32507,1.13378l1.38889,1.35758l1.53016,1.33299l1.49416,1.30064l1.48123,1.3948l1.62973,1.23713l1.56642,1.2318l1.60835,1.26328l1.62842,1.06186l1.3545,1.35808l1.3783,1.2809l1.45529,1.35191l1.50661,1.49016l1.14496,0.66668l1.70519,0.9778l1.61802,1.11627l1.64613,1.13573l1.62951,1.15867l1.63422,1.16274l1.61135,1.14645l1.54575,1.23267l1.53395,1.22171l1.42331,1.34869l1.44054,1.36343l1.38628,1.41813l1.37216,1.40209l1.25375,1.50888l1.31887,1.58302l0.97082,0.9243l1.33571,1.24739l0.73741,0.91496l-0.48123,-0.02063l-1.40453,0.68976l-1.86844,0.85367l-1.12087,0.70365l-1.63926,1.03542l-1.7724,0.82159l-1.78517,0.89487l-1.41743,0.63776l-1.89587,0.85648l-1.74719,1.13093l-1.68164,1.09138l-1.63951,1.06499l-1.73831,0.89474l-1.84128,0.9512l-1.57527,1.11115l-1.68005,0.55212l-1.59575,0.83093l-1.69223,0.88956l-1.9531,0.6044l-1.71154,1.0693l-1.6783,1.05897l-1.67823,0.97766l-1.26034,0.59726l-1.85157,0.88021l-1.77921,1.06451l-1.2473,0.82984l-1.69951,1.13231l-0.92024,0.72787l-3.13607,2.48454l-1.54967,1.22822l-1.11485,0.80234l-1.62337,1.16886l-1.56288,1.12863l-1.71239,0.88595l-1.69097,0.88274l-1.83053,0.54696l-0.62112,0.44793l0.19052,-1.33764l0.00195,-1.15417l-0.00777,-1.88428l0.39005,-1.62471l0.18896,-2.06255l0.09259,-1.00365l0.17932,-1.95284l0.33566,-1.93203l0.35001,-2.03022l0.08931,-1.65076l0.10702,-2.0255l-0.00137,-2.00235l0.08542,-1.63895l0.10332,-1.99121l0.10858,-1.59084l0.13633,-1.99775l0.13199,-1.95025l0.24346,-1.46532l0.33684,-2.0572l0.00488,-2.08524l0.0017,-1.99932l0.01911,-1.99933l0.01879,-1.97662l0.12634,-1.97267l0.12798,-1.99967l0.12841,-2.00228l0.11777,-2.00278l0.11531,-1.96689l0.24588,-1.95479l0.25542,-2.04941l0.00322,-1.71744l0.00537,-7.16975c0.38536,-0.28839 0.38621,-0.81884 0.38621,-0.81884z" fill="#ffffff" stroke-width="0.5"/></g></g></svg>