<svg version="1.1" xmlns="http://www.w3.org/2000/svg" xmlns:xlink="http://www.w3.org/1999/xlink" width="641.16524" height="296.56864" viewBox="0,0,641.16524,296.56864"><g transform="translate(-0.73395,0.61882)"><g stroke-miterlimit="10"><path d="M1.04857,295.94981v-296.56864h638.48041v296.56864z" fill="#ffffff" stroke="none" stroke-width="0" stroke-linecap="butt"/><text transform="translate(88.79411,34.15321) scale(0.84968,0.84968)" font-size="40" xml:space="preserve" fill="#000000" stroke="none" stroke-width="1" stroke-linecap="butt" font-family="&quot;HPSimplified&quot;, Sans Serif" font-weight="400" text-anchor="start"><tspan x="0" dy="0"> House Plans &amp; Building Concepts</tspan><tspan x="0" dy="48px">by RealXin</tspan></text><path d="M20.04916,202.08037l1.12149,-59.43925l26.54206,1.12149l0.56075,3.36449l244.95328,11.21496l1.86915,-5.04673l-2.61682,-22.24299l45.23364,0.37383l-0.18691,-21.30841l282.76849,-7.10281l-1.68225,117.00935l-330.28037,-13.27103z" fill="none" stroke="#000000" stroke-width="1.5" stroke-linecap="round"/><path d="M29.41396,202.53171l1.10132,-50.6608l36.20595,0.82599v50.6608z" fill="none" stroke="#000000" stroke-width="1.5" stroke-linecap="round"/><path d="M80.83191,203.77069l2.30439,-46.53083l61.29693,1.65198l-1.53627,45.56718z" fill="none" stroke="#000000" stroke-width="1.5" stroke-linecap="round"/><path d="M152.96847,204.45902l1.22031,-44.7412l56.80557,2.06498l-0.48813,44.19053z" fill="none" stroke="#000000" stroke-width="1.5" stroke-linecap="round"/><path d="M219.52959,206.66166l2.20264,-45.15419l53.82709,1.65198l-1.51432,43.22688z" fill="none" stroke="#000000" stroke-width="1.5" stroke-linecap="round"/><path d="M44.97013,143.67983l-41.43723,-1.65198l-1.65198,-3.85462l49.8348,0.96365l1.58315,2.34031l-1.51431,1.78965l243.18557,10.32489" fill="none" stroke="#000000" stroke-width="1.5" stroke-linecap="round"/><path d="M111.39359,125.85221l-0.82599,-26.01873l-1.65198,0.82599l17.62114,-13.62886l18.30947,19.13546l24.64208,15.96917l-25.46806,13.90418l-32.90199,-0.96365l0.27533,-15.00551l-23.54075,8.94824l-83.83811,9.91189" fill="none" stroke="#000000" stroke-width="1.5" stroke-linecap="round"/><path d="M101.20637,102.31144l24.77974,-21.7511l22.85242,23.67841l25.60573,17.48348l-3.5793,1.51432l-25.88106,-16.93282l-18.17181,-18.5848l-24.9174,18.5848z" fill="none" stroke="#000000" stroke-width="1.5" stroke-linecap="round"/><path d="M136.72399,130.80812l-15.69384,-0.96365l0.82599,-21.20044l14.73018,-0.27533z" fill="#000000" stroke="#000000" stroke-width="1.5" stroke-linecap="round"/><path d="M169.00646,104.78942l21.61344,-20.23678l34.82929,40.06057l-1.92731,1.65198l-32.07599,-33.59031l-21.7511,18.30947z" fill="none" stroke="#000000" stroke-width="1.5" stroke-linecap="round"/><path d="M220.63092,123.51189l-14.04185,16.24449l-31.11234,-1.10132l0.55066,-33.31498" fill="none" stroke="#000000" stroke-width="1.5" stroke-linecap="round"/><path d="M200.53181,112.22334l0.13767,21.47577l-15.14318,-0.41299l0.27533,-21.33811l13.90418,0.55066z" fill="#000000" stroke="#000000" stroke-width="1.5" stroke-linecap="round"/><path d="M231.09347,109.60771l21.20044,-20.51212l20.78744,22.71476l1.92732,16.51982l-5.23127,-2.20264l-1.78965,-12.6652l-15.69384,-17.75881l-19.82379,17.89647z" fill="none" stroke="#000000" stroke-width="1.5" stroke-linecap="round"/><path d="M269.91506,124.61321l-3.1663,17.75881l-29.04736,-0.96366l-0.13766,-32.90198" fill="none" stroke="#000000" stroke-width="1.5" stroke-linecap="round"/><path d="M293.24931,137.27841l-1.92731,-9.63657l47.0815,0.27533" fill="none" stroke="#000000" stroke-width="1.5" stroke-linecap="round"/><path d="M329.78641,106.8544l310.84802,-9.63657l-2.61564,4.95595l-307.46221,7.57158z" fill="none" stroke="#000000" stroke-width="1.5" stroke-linecap="round"/><path d="M325.65646,152.55924l293.77754,-0.27533v4.81828l-292.53855,-1.37665z" fill="none" stroke="#000000" stroke-width="1.5" stroke-linecap="round"/><path d="M326.06944,153.1099l6.47027,-11.42622l287.23844,-1.92731l-0.55066,12.6652z" fill="none" stroke="#000000" stroke-width="1.5" stroke-linecap="round"/><path d="M401.30348,137.69139l-34.96696,0.68833l1.10132,-24.22908l33.86564,-0.41299z" fill="#000000" stroke="#000000" stroke-width="1.5" stroke-linecap="round"/><path d="M446.18234,113.32466l40.88656,-2.20265l-0.27533,27.12004h-41.29956z" fill="#000000" stroke="#000000" stroke-width="1.5" stroke-linecap="round"/><path d="M536.97254,110.43369l42.40088,-1.23898l-0.68833,26.56938l-43.5022,1.10132l0.13766,-25.7434z" fill="#000000" stroke="#000000" stroke-width="1.5" stroke-linecap="round"/><path d="M588.73464,166.39459l-0.82599,37.72027l-67.73128,0.41299l1.78965,-37.9956l66.4923,0.68833z" fill="#000000" stroke="#000000" stroke-width="1.5" stroke-linecap="round"/><path d="M443.7732,213.75142l1.51432,-49.55947h39.09692l-0.96366,51.76212" fill="none" stroke="#000000" stroke-width="1.5" stroke-linecap="round"/><path d="M444.59918,171.4882l39.78525,1.10133l-8.25992,-0.27533l-1.23898,42.95154l1.10132,-42.95154l-20.64978,-0.55067l-0.82599,42.95155" fill="none" stroke="#000000" stroke-width="1.5" stroke-linecap="round"/><path d="M407.70492,199.57191l-51.62446,0.27533l0.68833,-35.10463h51.34912z" fill="#000000" stroke="#000000" stroke-width="1.5" stroke-linecap="round"/><path d="M337.358,209.34613l-10.18723,-0.413l0.27533,-33.86564l9.63657,-0.13766z" fill="none" stroke="#000000" stroke-width="1.5" stroke-linecap="round"/><path d="M337.08268,189.10936l-6.60793,0.68832l0.27533,-12.38987l5.9196,-0.27533z" fill="#000000" stroke="#000000" stroke-width="1.5" stroke-linecap="round"/><path d="M320.01218,193.2393l-8.67291,0.41299v-22.02643l9.36124,0.55067z" fill="#000000" stroke="#000000" stroke-width="1.5" stroke-linecap="round"/><path d="M327.30843,150.28776l-23.67842,0.413l0.82599,-16.79516l24.22908,-0.82599z" fill="#000000" stroke="#000000" stroke-width="1.5" stroke-linecap="round"/><path d="M272.72418,172.72719l-45.84252,-1.23899l-0.68832,-6.19493l46.53084,1.51432z" fill="#000000" stroke="#000000" stroke-width="1.5" stroke-linecap="round"/><path d="M211.18786,171.07521l-49.83481,-1.10132l0.13766,-7.29626l49.28414,0.55066z" fill="#000000" stroke="#000000" stroke-width="1.5" stroke-linecap="round"/><path d="M144.28256,161.98931l-0.27533,7.29626l-54.10243,-0.82599l-0.41299,-8.53525l55.75441,2.34031z" fill="#000000" stroke="#000000" stroke-width="1.5" stroke-linecap="round"/><path d="M66.66149,161.50748l-31.80066,-0.96365l-0.13766,-6.47027l32.21365,0.68832z" fill="#000000" stroke="#000000" stroke-width="1.5" stroke-linecap="round"/><path d="M169.0844,106.92322h-6.47027l-36.20595,-25.74339" fill="none" stroke="#000000" stroke-width="1.5" stroke-linecap="round"/><path d="M231.30907,110.91552l-18.17181,-0.27533l-2.61564,-2.47798" fill="none" stroke="#000000" stroke-width="1.5" stroke-linecap="round"/><path d="M337.72427,120.68974h-47.01267l-0.82599,-7.57158l-16.51982,0.27533l-0.68833,-1.65198" fill="none" stroke="#000000" stroke-width="1.5" stroke-linecap="round"/><path d="M332.35532,107.47389l12.25221,-8.67291l207.94328,-5.09361l75.55609,3.71696" fill="none" stroke="#000000" stroke-width="1.5" stroke-linecap="round"/><path d="M258.62651,137.55372l-13.35352,-0.13766l0.55066,-24.09141l14.86784,0.82599z" fill="#000000" stroke="#000000" stroke-width="1.5" stroke-linecap="round"/></g></g></svg>