<svg version="1.1" xmlns="http://www.w3.org/2000/svg" xmlns:xlink="http://www.w3.org/1999/xlink" width="641.32885" height="300.11262" viewBox="0,0,641.32885,300.11262"><g transform="translate(0.9948,-0.41394)"><g stroke-miterlimit="10"><path d="M-0.99479,300.52657v-300.11262h641.32885v300.11262z" fill="#ffffff" stroke="none" stroke-width="0" stroke-linecap="butt"/><text transform="translate(12.49648,45.31315) scale(1.0068,1.0068)" font-size="40" xml:space="preserve" fill="#000000" stroke="none" stroke-width="1" stroke-linecap="butt" font-family="&quot;HPSimplified&quot;, Sans Serif" font-weight="400" text-anchor="start"><tspan x="0" dy="0">Movie Scripts &amp; Shows by RealXin	</tspan></text><path d="M105.04184,85.6199l-2.23097,49.14698l18.50394,38.18897l8.39895,6.95538l20.47244,7.34908l16.4042,0.7874l-75.06562,37.00788l-14.96063,3.14961l-19.5538,-1.18111l-15.6168,-14.4357l-10.10499,-12.20472l-9.18635,-49.34383l-1.44357,-84.64567l97.6684,-9.44882z" fill="#ffffff" stroke="#000000" stroke-width="1.5" stroke-linecap="round"/><path d="M91.13417,79.43947l-21.94211,5.13538l-30.57889,-2.80112" fill="#ffffff" stroke="#000000" stroke-width="1.5" stroke-linecap="round"/><path d="M96.73641,99.98102l-30.11205,5.13538l-34.78058,-0.23342" fill="#ffffff" stroke="#000000" stroke-width="1.5" stroke-linecap="round"/><path d="M90.43389,124.2574l-32.44632,11.43791l-19.37441,1.86742" fill="#ffffff" stroke="#000000" stroke-width="1.5" stroke-linecap="round"/><path d="M94.16872,144.09867l-34.54716,12.83847" fill="#ffffff" stroke="#000000" stroke-width="1.5" stroke-linecap="round"/><path d="M57.98758,177.71212l36.41457,-15.17274" fill="#ffffff" stroke="#000000" stroke-width="1.5" stroke-linecap="round"/><path d="M101.63837,167.9082l-30.11204,17.97385h-26.14379" fill="#ffffff" stroke="#000000" stroke-width="1.5" stroke-linecap="round"/><path d="M454.57956,67.53472l2.80112,131.65266l-189.6592,-17.27357l-1.40056,-89.63586l146.59197,-17.74044z" fill="#ff0000" stroke="#000000" stroke-width="1.5" stroke-linecap="round"/><path d="M380.81672,138.72985l-47.1522,26.61065l0.46685,-58.82353z" fill="#ffffff" stroke="#000000" stroke-width="1.5" stroke-linecap="round"/><text transform="translate(349.4668,275.23581) scale(1.0068,1.0068)" font-size="40" xml:space="preserve" fill="#000000" stroke="none" stroke-width="1" stroke-linecap="butt" font-family="&quot;HPSimplified&quot;, Sans Serif" font-weight="400" text-anchor="start"><tspan x="0" dy="0">Assets Included</tspan></text><path d="M619.46169,72.70984l4.61254,139.60639l-127.30628,-14.60639l1.07626,-110.39361l112.54613,-12.91513z" fill="#ffffff" stroke="#000000" stroke-width="1.5" stroke-linecap="round"/><path d="M596.64676,97.94757l-60.53459,3.53774" fill="#ffffff" stroke="#000000" stroke-width="1.5" stroke-linecap="round"/><path d="M531.78828,101.87839l-14.34749,2.16195" fill="#ffffff" stroke="#000000" stroke-width="1.5" stroke-linecap="round"/><path d="M590.554,119.76361l-69.96855,-1.17924" fill="#ffffff" stroke="#000000" stroke-width="1.5" stroke-linecap="round"/><path d="M500.14519,125.85638l6.48585,0.39308" fill="#ffffff" stroke="#000000" stroke-width="1.5" stroke-linecap="round"/><path d="M610.7977,139.4177l-61.91038,-2.94812" fill="#ffffff" stroke="#000000" stroke-width="1.5" stroke-linecap="round"/><path d="M576.79614,163.98531l-48.74215,1.76887" fill="#ffffff" stroke="#000000" stroke-width="1.5" stroke-linecap="round"/><path d="M553.01469,146.29663l-32.23271,-0.78617" fill="#ffffff" stroke="#000000" stroke-width="1.5" stroke-linecap="round"/><path d="M532.96753,183.44286l67.41352,-0.39309" fill="#ffffff" stroke="#000000" stroke-width="1.5" stroke-linecap="round"/><path d="M180.2455,110.77436l0.72917,-0.00767h1.14286l1.40979,0.03629l1.26451,0.71986l1.23181,1.02351l0.88485,0.85621l1.42088,1.11575l0.19165,0.0793l-0.14369,-0.14747l-0.09302,-1.39007l-0.11754,-1.99817l-0.07963,-1.43328l-0.10915,-1.97089l-0.11455,-1.0564l-0.42993,-3.97683l-0.21931,-2.04208l-0.00145,-2.05382v-3.04762l0.05637,-2.33101l1.4506,-1.58833l1.7578,0.51307l0.81361,0.7984l1.70338,0.94427l1.48618,1.39919l1.54934,1.14437l1.67419,1.17315l1.55399,1.37687l1.42753,1.36583l1.56697,1.26033l1.45415,1.4504l1.35128,1.35499l1.56863,1.09607l1.68177,1.18191l1.54235,1.35883l1.5099,1.33239l1.16732,1.08827l1.4628,1.3639l1.40666,1.31533l1.5889,1.0882l3.29697,2.26495l1.61629,1.11126l1.69784,0.98216l1.73092,1.00218l1.7307,1.00257l1.73209,1.00338l1.72861,1.00936l1.72712,1.00849l1.77591,1.0389l1.91529,1.53717l0.25238,2.57725l-1.68752,1.5933l-1.33902,0.76589l-1.15409,0.96007l-1.60495,0.86508l-1.67562,1.0668l-1.34142,0.76673l-0.87253,0.53256l-1.74365,1.06298l-1.7815,0.89031l-0.94498,0.60025l-1.60962,1.01421l-1.43574,1.36699l-1.71478,1.17714l-1.61013,1.10016l-1.07983,0.91096l-4.58947,3.86481l-1.54147,1.29793l-1.44703,1.14571l-1.56809,1.24141l-1.60937,1.27238l-1.10596,0.70488l-1.68766,1.07322l-1.62992,1.03359l-1.46643,1.2548l-1.46847,1.24994l-1.27104,1.45024l-2.64046,3.00466l-1.31033,1.49089l-0.79595,0.96318l-1.27416,1.54159l-1.42251,1.68717l-2.91909,0.97325l-0.55216,-2.31029l-0.31786,-1.99576l-0.00277,-2.05169l-0.06382,-1.14989l-0.11018,-1.99696l-0.10789,-1.96489l-0.23497,-1.95377l-0.2377,-1.98093l-0.17904,-1.37848l-0.51515,-3.96669l-0.26382,-2.0476l0.29081,-1.35742l-0.62623,0.29289l-1.26504,-0.00749l-1.59549,-0.39243l-1.42879,-0.20787l-1.97756,-0.35943l-1.05369,-0.17904l-1.44133,0.00341l-1.87539,-0.00043l-1.2122,0.07174l-2.0259,0.11874l-2.02937,0.00043l-2.01723,-0.00015l-1.54341,-0.05307l-1.99881,-0.06892l-1.98158,-0.06848l-1.22086,0.00015h-1.99701l-1.7352,0.01038l-1.96693,0.01121l-1.96182,0.14216l-1.96256,0.14114l-1.94917,0.26887l-1.98131,0.27277l-2.06276,0.2806l-2.08109,-0.0526l-2.0989,-0.06142l-2.60486,-0.81913l-0.21589,-1.82071l0.19048,-1.71429l-0.00153,-1.18279l0.0009,-2.04246l0.11846,-1.40192l0.16968,-1.99279l0.16934,-1.98872l0.15307,-1.99004l0.15119,-1.95585l-0.0006,-1.01973l0.00053,-4l0.00027,-2.00224l0.00924,-2.00222l0.00923,-1.99998l0.00972,-2.02704l0.11867,-2.02359l0.11744,-1.99655l0.20348,-2.34748l1.29146,-1.27613l1.52554,-0.07612h9.52381l1.65215,0.00193l1.52381,-0.19048l1.49071,-0.00193h3.2381l2.07422,0.00276l1.93898,0.28742l1.95984,0.2935l1.96931,0.22123l1.98748,0.22344l2.03805,0.23043l2.0045,0.43443l1.95215,0.42438l0.98816,0.21017l1.95624,0.41607l1.98388,0.42235l1.95698,0.5333z" fill="#ff0000" stroke="#000000" stroke-width="0.5" stroke-linecap="butt"/></g></g></svg>