<svg version="1.1" xmlns="http://www.w3.org/2000/svg" xmlns:xlink="http://www.w3.org/1999/xlink" width="641.32885" height="300.11262" viewBox="0,0,641.32885,300.11262"><g transform="translate(0.9947,-0.41395)"><g stroke="none" stroke-miterlimit="10"><path d="M-0.99469,300.52657v-300.11262h641.32885v300.11262z" fill="#ffffff" stroke-width="0"/><text transform="translate(12.49658,47.18591) scale(1.0068,1.0068)" font-size="40" xml:space="preserve" fill="#000000" stroke-width="1" font-family="&quot;HPSimplified&quot;, Sans Serif" font-weight="400" text-anchor="start"><tspan x="0" dy="0">Official Games</tspan></text><text transform="translate(450.33221,43.57539) scale(0.84283,0.84283)" font-size="40" xml:space="preserve" fill="#000000" stroke-width="1" font-family="&quot;HPSimplified&quot;, Sans Serif" font-weight="400" text-anchor="start"><tspan x="0" dy="0">Uses HTML5</tspan></text><path d="M519.33393,79.21178c0,0.07509 -0.00752,0.14265 -0.02105,0.20346l1.49252,-0.04421l1.07915,-0.02974l1.52248,0.05213l2.99822,0.10339l1.52516,0.05305l1.51788,0.15801l1.49189,0.15575l1.4121,0.14973l1.50662,0.39939l1.47573,0.39405l1.4433,0.49993l1.44115,0.50017l1.40419,0.5961l2.76114,1.17307l1.47324,0.63374l1.25227,1.00194l1.20427,0.97452l1.06873,1.12151l1.01742,1.07041l1.08217,1.0049l1.09892,1.02097l0.68277,0.64321l0.85275,1.35212l0.79499,1.272l0.58027,0.9317l1.00309,1.21853l0.5666,1.52762l0.50533,1.39181l0.52531,1.40081l0.52669,1.40449l0.28926,0.78269l0.24375,1.55821l0.21821,1.4327l0.00218,1.55719v3l-0.00619,0.87328l-0.40024,1.54525l-0.38174,1.45061l-0.33308,1.26535l-0.33463,1.45045l-0.33398,1.44104l-0.52693,1.45313l-0.3774,1.0362l-0.63227,1.39235l-1.24141,2.7311l-0.35737,0.78269l-0.80946,1.31816l-0.80298,1.30362l-0.90714,1.23341l-0.92974,1.25833l-1.1279,1.08428l-0.85155,0.81559l-1.12355,1.01131l-1.11599,1.00278l-1.27989,0.91487l-1.33377,0.79521l-1.35017,0.70207l-1.39007,0.71926l-1.49185,0.47331l-1.4176,0.44679l-1.40032,0.49835l-1.46763,0.51986l-1.52864,0.29575l-1.47309,0.28287l-1.1689,0.22411l-1.50967,0.19726l-1.4874,0.19401l-1.50369,0.19595l-1.51081,0.13032l-1.52286,0.13064l-1.52837,0.0159l-1.49992,0.01506l-0.91699,0.00634l-1.40925,0.26716l-1.55245,0.28687l-1.57834,-0.03529l-1.49953,-0.03746l-1.58862,-0.04502l-1.53576,-0.40888l-1.05737,-0.28789l-1.42219,-0.64372l-1.05507,-0.47958l-1.3639,-0.62949l-1.31316,-0.60813l-1.50968,-0.46293l-1.33189,-0.98771l-1.15292,-1.00009l-1.19157,-1.04015l-0.94524,-1.26817l-0.89302,-1.2052l-0.70193,-0.94732l-0.92982,-1.24306l-0.74429,-1.36476l-0.7437,-1.37315l-0.51363,-1.47472l-0.49235,-1.4211l-0.47729,-1.42623l-0.95204,-2.84493l-0.49592,-1.49333l-0.20219,-1.56048l-0.18933,-1.488l-0.12126,-0.95531l-0.10863,-1.51683l-0.21374,-2.99238l-0.10821,-1.52051l-0.01009,-1.52634l-0.00144,-1.50202l-0.00084,-1.37659l0.10832,-1.52325l0.11011,-1.53048l0.2485,-1.51418l0.24369,-1.48007l0.20497,-1.19293l0.68892,-1.39527l0.47974,-1.17621l1.04726,-1.27027l1.00594,-1.032l0.84135,-1.12163l0.70743,-1.26599l0.61133,-1.08121l1.0626,-1.17604l0.99584,-1.09503l0.93394,-1.14395l0.98363,-1.22126l1.2241,-1.04281l1.25366,-0.87055l1.31151,-0.94666l1.01668,-0.26875l1.41996,-0.35407l1.38302,-0.4941l1.41649,-0.483l1.40008,-0.51376l1.02746,-0.36467l1.0107,-0.01156h1.75901l1.42857,0.00341l1.13852,-0.21988l0.88908,-0.00086l1.25782,-0.21222l0.78293,-0.0102c0,0 0.75,0 0.75,0.75zM513.79886,80.39999l-0.71186,0.00154h-1.75901l-0.74831,-0.01156l-0.77316,0.29599l-1.41632,0.51961l-1.42295,0.48528l-1.4427,0.51352l-1.49047,0.37354l-0.74234,0.17101l-1.0779,0.80985l-1.21141,0.83925l-1.06263,0.89906l-0.89309,1.11924l-0.96372,1.1796l-1.02218,1.12479l-0.95542,1.04378l-0.51982,0.93766l-0.75896,1.3512l-0.95864,1.27838l-1.03129,1.06087l-0.87329,1.03439l-0.39977,1.02255l-0.63035,1.24325l-0.15182,0.97415l-0.24369,1.48007l-0.23887,1.44596l-0.10363,1.46189l-0.10543,1.46913l0.00176,1.3224l0.00143,1.49798l0.00898,1.4736l0.10553,1.47187l0.21374,2.99238l0.10511,1.47554l0.1166,0.91414l0.18932,1.48801l0.17647,1.41552l0.45612,1.3516l0.95204,2.84493l0.47475,1.4187l0.48977,1.41358l0.4685,1.35995l0.6893,1.26248l0.68872,1.27086l0.87018,1.15694l0.70452,0.95081l0.89303,1.2052l0.84081,1.14222l1.07403,0.92632l1.11269,0.96639l1.06565,0.81556l1.36392,0.39872l1.41072,0.64905l1.35997,0.62768l1.05113,0.47778l1.30891,0.59769l0.94072,0.25125l1.36064,0.37267l1.41044,0.02991l1.49953,0.03746l1.42073,0.03964l1.39616,-0.26599l1.53937,-0.2857l1.04824,-0.01341l1.49993,-0.01507l1.47148,-0.01424l1.46608,-0.12683l1.47812,-0.12715l1.4711,-0.19206l1.4874,-0.19401l1.46513,-0.19076l1.12458,-0.21629l1.47308,-0.28287l1.41754,-0.26999l1.3588,-0.48575l1.42613,-0.50726l1.44357,-0.45524l1.36933,-0.42874l1.27188,-0.66422l1.31179,-0.68141l1.24332,-0.74055l1.16132,-0.82884l1.05167,-0.9481l1.10634,-0.99558l0.83459,-0.79959l1.03853,-0.99096l0.84872,-1.15767l0.87132,-1.18259l0.76931,-1.25136l0.76284,-1.23681l0.31593,-0.6986l1.24141,-2.7311l0.60915,-1.33874l0.35638,-0.98172l0.4983,-1.36625l0.3107,-1.35259l0.33995,-1.47272l0.33873,-1.28753l0.38174,-1.45061l0.36325,-1.35598l-0.0062,-0.68081v-3l0.00219,-1.44281l-0.20513,-1.31898l-0.21242,-1.4069l-0.24253,-0.6354l-0.52669,-1.40449l-0.52805,-1.40818l-0.50804,-1.39921l-0.45726,-1.29226l-0.91746,-1.08614l-0.63728,-1.01637l-0.795,-1.272l-0.73726,-1.19187l-0.54723,-0.49953l-1.09892,-1.02097l-1.11568,-1.03702l-1.04992,-1.10355l-0.9986,-1.05246l-1.12978,-0.91021l-1.08177,-0.8828l-1.28791,-0.53933l-2.76114,-1.17307l-1.35695,-0.57697l-1.39328,-0.48266l-1.39113,-0.48291l-1.42297,-0.37895l-1.39208,-0.37359l-1.29589,-0.13298l-1.49189,-0.15575l-1.46591,-0.15349l-1.47307,-0.05035l-2.99821,-0.10339l-1.47573,-0.05125l-1.03238,0.02917l-1.43602,0.03736l-1.40809,0.28436l-1.4859,0.29702l-1.22945,0.19428l-1.48165,0.23394l-1.45572,0.22939l-1.37107,0.31687l-1.46159,0.33729c0,0 -0.73079,0.16865 -0.89944,-0.56215c-0.16865,-0.7308 0.56215,-0.89944 0.56215,-0.89944l1.46159,-0.33729l1.42256,-0.32781l1.50757,-0.23851z" fill="#000000" stroke-width="0.5"/><path d="M513.58721,80.48346l-1.50531,0.23773l-1.42044,0.32697l-1.45948,0.33635c0,0 -0.72952,0.16802 -0.56088,0.89881c0.16865,0.7308 0.85462,0.47276 0.85462,0.47276l1.46378,-0.33829l1.3732,-0.31774l1.45801,-0.23019l1.48405,-0.23466l1.23149,-0.19478l1.48842,-0.29752l1.41049,-0.28472l1.43844,-0.0376l1.03413,-0.02926l1.47824,0.05122l3.0033,0.10371l1.47552,0.05069l1.46834,0.15395l1.49431,0.15634l1.29793,0.13358l1.39434,0.37437l1.42521,0.37983l1.39332,0.4839l1.3954,0.48375l1.35901,0.57815l2.76505,1.1757l1.28958,0.54063l1.08344,0.88421l1.13144,0.91175l1.00019,1.05407l1.05151,1.10532l1.11716,1.03884l1.10027,1.02279l0.54786,0.50045l0.73841,1.19368l0.79615,1.27398l0.63813,1.01798l0.91837,1.08802l0.45807,1.29416l0.50884,1.40131l0.52876,1.41034l0.52729,1.40666l0.24276,0.63638l0.21286,1.40899l0.20546,1.32096l-0.00192,1.44496l0.00026,3.00453l0.0062,0.68184l-0.36331,1.35806l-0.38191,1.45288l-0.33897,1.28956l-0.34033,1.47504l-0.31115,1.35471l-0.49887,1.36845l-0.35685,0.98329l-0.60989,1.34092l-1.24325,2.73547l-0.31647,0.69968l-0.76393,1.23884l-0.77051,1.25336l-0.87262,1.18453l-0.85007,1.15951l-1.03996,0.99273l-0.83581,0.80098l-1.10799,0.99731l-1.05333,0.94968l-1.16305,0.83035l-1.24515,0.742l-1.31374,0.68281l-1.27385,0.66549l-1.37133,0.42991l-1.44579,0.4564l-1.42844,0.50832l-1.36107,0.48665l-1.41983,0.27078l-1.47554,0.28358l-1.12649,0.21675l-1.46762,0.19124l-1.48996,0.19437l-1.47365,0.19229l-1.48067,0.12725l-1.46858,0.1268l-1.47397,0.01409l-1.50243,0.01478l-1.04996,0.01314l-1.54174,0.28523l-1.39821,0.26549l-1.42284,-0.04026l-1.50168,-0.0382l-1.41237,-0.03067l-1.36262,-0.37354l-0.94204,-0.2519l-1.31085,-0.59873l-1.05264,-0.47866l-1.36187,-0.62889l-1.4126,-0.65038l-1.36549,-0.39992l-1.06717,-0.81683l-1.1143,-0.96785l-1.07551,-0.92779l-0.84222,-1.14374l-0.89446,-1.20688l-0.70561,-0.95218l-0.87144,-1.15868l-0.68989,-1.27265l-0.69041,-1.26431l-0.46951,-1.36182l-0.49075,-1.41559l-0.47565,-1.42076l-0.95357,-2.84921l-0.4567,-1.35367l-0.17696,-1.41762l-0.18975,-1.49024l-0.11681,-0.91552l-0.10537,-1.47779l-0.21395,-2.99695l-0.10548,-1.47411l-0.00883,-1.47582l-0.00119,-1.50021l-0.00146,-1.32433l0.10585,-1.47127l0.10414,-1.46397l0.23946,-1.44802l0.24438,-1.48213l0.15232,-0.97547l0.63112,-1.24512l0.40044,-1.024l0.87415,-1.03611l1.03232,-1.06272l0.95988,-1.28039l0.76025,-1.3531l0.52076,-0.93892l0.95672,-1.04542l1.02366,-1.12649l0.96527,-1.18124l0.8946,-1.12069l1.06416,-0.90042l1.21309,-0.84062l1.0795,-0.81104l0.74319,-0.17161l1.4923,-0.37473l1.44466,-0.51468l1.42496,-0.48634l1.41841,-0.5206l0.77433,-0.2965l0.74931,0.01116l1.76147,-0.00088l0.71289,-0.00187z" fill="#a27070" stroke-width="0.5"/><path d="M516.82603,176.09066l2.10478,-0.78929l0.70143,-0.26299l1.38513,-0.5541l1.4436,-0.57534l1.51039,-0.3657l1.41967,-0.34076l1.37457,-0.49208l1.4126,-0.50453l0.80122,-0.27945l1.59114,-0.13894l1.23064,-0.0975l1.57001,0.23041l1.4834,0.22251l1.51568,0.23243l1.47505,0.58461l4.17814,1.67126l1.05415,0.42236l1.36981,0.68418l1.34164,0.67082l1.26541,0.63278l1.35012,0.62998l1.37467,0.64173l1.3442,0.7033l1.32899,0.69555l1.24645,0.65305l1.29428,0.81671l1.26824,0.80099l1.31389,0.83224l1.1799,1.01329l1.14346,0.98468l1.11955,1.01179l1.12464,1.0167l1.08027,1.06372l1.0687,1.05256l1.12229,1.14846l0.37268,1.56734l0.66467,1.2304l0.554,1.05692l0.29795,1.58829l0.16006,0.89087l0.45932,1.37199l0.42706,1.29581l0.16423,1.60029l0.04863,1.53416l0.00989,1.50931l0.00531,1.58669l-0.34938,1.54775l-0.33492,1.46213l-0.35648,1.53776l-0.66143,1.43327l-0.60788,1.30192l-0.37559,1.38688l-0.43759,1.56449l-0.90852,1.34674l-0.82978,1.21205l-0.7253,1.27732l-0.74124,1.30406l-0.75311,1.32421l-0.83355,1.2751l-0.82106,1.25534l-0.83822,1.28045l-0.93826,1.20907l-0.65004,0.83595l-1.03379,1.1287l-1.02206,1.11482l-1.05831,1.08048l-0.70909,0.71972l-1.29803,0.92992l-1.39066,0.82381l-1.5085,0.48745l-2.85748,0.91369l-0.96091,0.30449l-1.54669,0.22361l-1.45284,0.20683l-1.42915,0.33327l-1.46097,0.33995l-0.99554,0.22807l-1.57111,0.0596l-2.99809,0.10707l-1.51176,0.05389l-1.51272,0.00278l-1.5292,0.00214l-1.52482,-0.11574l-1.48937,-0.12155l-1.50437,-0.57011l-1.36655,-0.5265l-1.4107,-0.39318l-1.4447,-0.40355l-1.20725,-0.34223l-1.39371,-0.75471l-1.11525,-0.6085l-1.29953,-0.77953l-0.97251,-0.58756l-1.1708,-1.04906l-1.08886,-0.98001l-1.10157,-1.02809l-1.09659,-1.02348l-1.14837,-1.07686l-0.91547,-1.27214l-0.89175,-1.19744l-0.67386,-0.90573l-0.82051,-1.28842l-0.75372,-1.18629l-0.689,-1.37575l-0.41899,-0.83864l-0.73413,-1.28415l-0.76685,-1.34512l-0.59024,-1.43144l-0.58774,-1.43376l-0.39675,-1.49789l-0.29752,-1.13462l-0.18619,-1.48913l-0.38598,-1.48866l-0.04143,-1.58666l-0.03435,-1.49961l-0.02528,-1.10588l-0.00005,-1.50859l0.00179,-1.55187l0.21235,-1.53727l0.20228,-1.44309l0.03863,-1.15457l0.46726,-1.19841l0.43149,-1.40447l0.45112,-1.46254l0.60561,-1.41579l0.59088,-1.37871l0.59792,-1.39463l0.6616,-1.36557l0.46607,-0.95371l0.70714,-0.94848l1.0009,-1.22331l0.85466,-0.41877l0.72485,-1.13104l0.96868,-1.19159l0.93367,-1.14676l0.91771,-1.26093l0.92792,-0.82499l1.49692,-0.74838l1.21616,-0.24971l1.55587,-0.22083zM515.88238,177.6337l-1.1296,0.16252l-0.98261,0.19004l-1.14161,0.57088l-0.65669,0.5889l-0.84132,1.16926l-0.95999,1.18005l-0.92498,1.13521l-0.93925,1.36511l-0.90435,0.46075l-0.75811,0.97545l-0.61212,0.81054l-0.39706,0.8272l-0.64679,1.33408l-0.58384,1.36281l-0.59087,1.37871l-0.57614,1.34164l-0.42564,1.38693l-0.45077,1.46286l-0.41225,1.00036l-0.01299,0.97494l-0.21166,1.52821l-0.20159,1.43403l0.0018,1.44814l-0.00005,1.49141l0.02499,1.08871l0.03435,1.49961l0.02727,1.41255l0.3735,1.41361l0.18591,1.48771l0.27524,1.03701l0.36831,1.40291l0.55309,1.34086l0.55058,1.34318l0.72157,1.2596l0.75428,1.32058l0.43813,0.87561l0.65265,1.30752l0.71392,1.12002l0.79012,1.24256l0.64181,0.86102l0.90005,1.20869l0.83116,1.16697l1.04479,0.97009l1.09658,1.02347l1.09159,1.01887l1.0788,0.97088l1.05908,0.95784l0.85254,0.50748l1.27295,0.76396l1.08836,0.59347l1.23998,0.68185l1.04625,0.28724l1.4447,0.40355l1.4787,0.41392l1.43348,0.55044l1.29566,0.50682l1.27369,0.0892l1.4665,0.11243l1.47079,-0.00317l1.48727,-0.00252l1.48632,-0.05319l2.99809,-0.10707l1.42698,-0.04748l0.85325,-0.20212l1.46097,-0.33995l1.49279,-0.34663l1.51701,-0.21743l1.42316,-0.20065l0.83974,-0.27127l2.85747,-0.91369l1.34898,-0.42624l1.18644,-0.71194l1.14317,-0.81379l0.61301,-0.62988l1.04106,-1.06257l1.00511,-1.09663l0.99338,-1.08276l0.61153,-0.7884l0.90192,-1.16026l0.80389,-1.23022l0.82106,-1.25534l0.80856,-1.23557l0.72937,-1.28392l0.74124,-1.30406l0.75718,-1.3308l0.86386,-1.26415l0.78512,-1.12946l0.35198,-1.32974l0.41398,-1.50735l0.65629,-1.41873l0.60273,-1.28737l0.31338,-1.3865l0.33492,-1.46213l0.32047,-1.37651l-0.01423,-1.41324l-0.00965,-1.49062l-0.04568,-1.46436l-0.13428,-1.38482l-0.38327,-1.13519l-0.48936,-1.47406l-0.1828,-0.99482l-0.23871,-1.36332l-0.46069,-0.84382l-0.74814,-1.41611l-0.27811,-1.36122l-0.86271,-0.80657l-1.06869,-1.05256l-1.05713,-1.0414l-1.10101,-0.99489l-1.10611,-0.99979l-1.12988,-0.97284l-1.09344,-0.94423l-1.22258,-0.76974l-1.26824,-0.80099l-1.24218,-0.78527l-1.19311,-0.62374l-1.32899,-0.69555l-1.31377,-0.6878l-1.34388,-0.62693l-1.36843,-0.63868l-1.28359,-0.64172l-1.34164,-0.67082l-1.31348,-0.65746l-0.99674,-0.398l-4.17815,-1.67126l-1.31038,-0.52957l-1.34577,-0.19679l-1.48341,-0.22251l-1.3968,-0.21462l-1.05677,0.09313l-1.39849,0.1102l-0.61391,0.22598l-1.4126,0.50453l-1.45064,0.51698l-1.49696,0.36157l-1.40624,0.33662l-0.33283,0.13366c0.04863,0.14485 0.04863,0.26591 0.04863,0.26591l-0.33398,0.84392l-0.7957,0.51151l-1.12909,0.21805l-1.54233,0.27297l-1.56379,0.00294l-0.16191,0.00083l-0.45678,0.17129c0,0 -0.45142,0.16929 -0.76612,-0.12553z" fill="#000000" stroke-width="0.5"/><path d="M516.62082,177.71759l0.45741,-0.1717l0.16209,-0.00095l1.56562,-0.00404l1.54446,-0.27414l1.13074,-0.21886l0.79712,-0.51215l0.33493,-0.84432c0,0 0.00008,-0.12109 -0.04855,-0.26594l0.33336,-0.13387l1.40841,-0.33742l1.49933,-0.36231l1.45304,-0.5176l1.41494,-0.50502l0.61492,-0.22615l1.40071,-0.1105l1.05846,-0.09329l1.39902,0.21449l1.48581,0.22248l1.34798,0.19686l1.3126,0.52974l4.18546,1.67254l0.99851,0.39848l1.31586,0.65822l1.34407,0.67173l1.28589,0.64272l1.37079,0.63985l1.34612,0.6282l1.31593,0.68918l1.33108,0.69703l1.19489,0.62514l1.24405,0.78688l1.27002,0.8027l1.22419,0.77143l1.09499,0.94601l1.13136,0.97472l1.10747,1.00171l1.10226,0.99681l1.05826,1.04336l1.06973,1.05453l0.86343,0.8081l0.27893,1.36314l0.74899,1.4184l0.46114,0.84519l0.2393,1.36534l0.18317,0.99631l0.48985,1.47637l0.38356,1.13697l0.13454,1.38691l0.04587,1.46658l0.00974,1.49289l0.01422,1.4154l-0.32057,1.37863l-0.33513,1.46442l-0.31367,1.38867l-0.60311,1.28948l-0.65682,1.42108l-0.41465,1.50974l-0.35267,1.3318l-0.78587,1.13144l-0.86481,1.26637l-0.75827,1.33301l-0.74241,1.30618l-0.73063,1.28594l-0.80992,1.23753l-0.82251,1.25725l-0.80539,1.23201l-0.9035,1.16198l-0.61264,0.78951l-0.99508,1.08434l-1.00689,1.09814l-1.04288,1.06397l-0.61411,0.63066l-1.14498,0.81499l-1.18829,0.71305l-1.35088,0.42727l-2.86174,0.91564l-0.84104,0.27177l-1.42528,0.20138l-1.51934,0.21811l-1.49519,0.34721l-1.46334,0.3404l-0.85464,0.20233l-1.42925,0.04773l-3.00291,0.10727l-1.48871,0.05312l-1.48964,0.00233l-1.4731,0.00288l-1.46878,-0.11282l-1.27563,-0.08963l-1.29777,-0.50738l-1.4358,-0.55116l-1.48097,-0.41475l-1.44685,-0.40446l-1.04777,-0.28795l-1.24194,-0.68286l-1.09004,-0.59443l-1.27491,-0.76519l-0.85381,-0.50835l-1.06086,-0.95916l-1.08056,-0.97231l-1.09334,-1.02042l-1.09826,-1.02512l-1.04631,-0.97172l-0.83261,-1.16867l-0.90149,-1.21056l-0.64278,-0.86239l-0.79138,-1.24449l-0.71498,-1.12181l-0.65373,-1.30954l-0.4388,-0.87699l-0.75523,-1.32274l-0.72237,-1.26168l-0.55129,-1.3453l-0.55369,-1.34299l-0.36883,-1.40508l-0.27555,-1.03863l-0.18627,-1.48998l-0.37374,-1.41581l-0.02741,-1.4147l-0.0344,-1.50189l-0.02496,-1.09036l0.00018,-1.49367l-0.00157,-1.45031l0.20191,-1.4362l0.2121,-1.5305l0.01331,-0.97634l0.41266,-1.00192l0.45145,-1.46507l0.42637,-1.38899l0.57697,-1.34368l0.59182,-1.38077l0.58486,-1.36478l0.64789,-1.336l0.39778,-0.82836l0.61295,-0.8118l0.75918,-0.97695l0.90518,-0.46184l0.94084,-1.36704l0.92646,-1.13684l0.96159,-1.18167l0.84287,-1.17069l0.65768,-0.58976l1.14305,-0.57205l0.98369,-0.19086l1.13087,-0.16343c0.3147,0.29482 0.76685,0.12504 0.76685,0.12504z" fill="#a27070" stroke-width="0.5"/><path d="M508.65186,106.67819l-0.0358,0.36555l-0.28931,1.52992l-0.37938,1.47629l-0.20215,0.7751l-0.11507,1.4085l-0.03145,1.5192l-0.20685,1.52922l-0.1583,1.1549l-0.37268,1.49538l-0.30311,1.20427l-0.14187,1.43858l-0.15768,1.55234l-0.3739,1.38624l0.00271,0.99371l-0.30508,1.54406l-0.20879,1.04034l-0.17683,1.54805l-0.51752,1.41133l-0.15681,0.9604l-0.32725,0.23704l0.60684,-0.27451l1.55205,0.0018l1.21278,0.16955l1.19666,0.00075l1.01729,0.16955l0.78589,-0.00256l0.98612,0.00065l1.481,-0.12386l1.18732,-0.04251l1.03107,-0.17082l0.5742,0.07662l0.19024,-0.37482l0.30874,-0.78754l0.68418,-1.36981l0.35762,-0.71437l0.76765,-1.31673l0.39889,-0.67745l0.47817,-1.34844l0.31993,-0.88249l0.19022,-1.42744l0.49481,-0.80322l-0.02356,-0.891l0.2065,-1.01724l0.6542,-1.07278l1.41159,-0.11201h4.57782l1.41159,0.11201l0.65804,1.08425l0.16012,0.99009l0.49287,0.80837l0.3827,1.32043l0.14172,0.92309l0.50438,0.83643l0.20173,0.95365l0.30028,1.23392l0.48762,0.80149l0.16976,0.62429l0.82923,0.15996l1.44001,0.15744l1.18067,0.16938l0.91504,0.00782l1.01729,0.3391l1.06671,-0.00968h4.06918l0.44503,0.26522l-0.28681,-0.23747l-0.44151,-0.55475l-0.52002,-0.86518l-0.70821,-1.0692l-0.35951,-0.88966l-0.49528,-0.98913l-0.3391,-0.6782l-0.6873,-1.37686l-0.53557,-1.42062l-0.35233,-1.05832l-0.35847,-1.44081l-0.14021,-1.5234l-0.17265,-1.08268l-0.4926,-0.97278l-0.45337,-1.5016l-0.42925,-1.49546l-0.17865,-1.23372l-0.16269,-0.97946l-0.28202,-1.18679l-0.51612,-0.6944l-0.20974,-0.96137l-0.30714,-0.92278l-0.52514,-1.06091l-0.20046,-0.97101l-0.16955,-1.35639l-0.15812,-0.79117l-0.33136,-1.15751l-0.36071,-1.28886l0.00629,-0.80994l-0.29899,-0.71103l-0.32692,-0.81905l-0.53771,-1.0926l-0.17605,-1.03835l-0.48181,-1.11071l-0.12582,-0.55816l-0.44202,0.00021l-0.94339,0.00365h-0.84775l-0.80627,-0.00115l-1.38907,0.153l-1.19017,0.3361l-0.94885,0.18661l-0.86848,0.00176l-1.18685,0.16955l-1.24001,0.00189h-0.84775l-0.90091,-0.00189l-1.42069,-0.22476l-0.75863,-0.54774l-0.62213,-0.25645l-0.87546,0.01353h-2.03458l-0.48697,-0.21967l0.21519,0.39925l-0.33219,1.51198l-0.22717,1.57088l-0.49194,0.633l0.01842,0.95244l-0.33909,0.6782l0.00869,0.80555l-0.5446,1.53086l-0.31815,0.90984l-0.18377,0.89401l-0.44008,0.87332l-0.66839,0.66427l-0.51771,1.18856zM509.86673,99.84482l0.3,-0.80424l0.00869,-0.88994l0.3391,-0.67819l0.01843,-1.08215l0.52535,-0.72339l0.13933,-1.26523l0.3186,-1.41657l0.21519,-1.29624l1.54763,-0.21967h2.03458l1.15913,0.01354l1.07336,0.42174l0.59776,0.46956l0.95299,0.11435l0.79458,-0.00189h0.84775l1.13368,0.00189l1.18684,-0.16954l0.82701,0.00176l0.74663,-0.15249l1.25375,-0.34991l1.59258,-0.1783l0.88922,-0.00115h0.84775l1.09119,0.00365l1.25347,0.3393l0.55239,1.13733l0.53548,1.26297l0.16305,0.99625l0.47959,0.94199l0.35127,0.87644l0.37921,0.98446l0.00628,0.88555l0.31749,1.08482l0.34685,1.21618l0.18097,0.90431l0.16955,1.35639l0.13864,0.72448l0.49215,0.97368l0.37107,1.11181l0.12935,0.73412l0.50117,0.66199l0.39618,1.526l0.17641,1.05514l0.16292,1.14853l0.40173,1.38715l0.40868,1.37189l0.52469,1.0618l0.23394,1.35521l0.1314,1.46428l0.31972,1.27197l0.32586,0.97627l0.49647,1.32167l0.65434,1.30642l0.3391,0.6782l0.52201,1.04546l0.31868,0.80582l0.64819,0.9654l0.49727,0.83031l0.57578,0.80164l0.05229,1.79712l-1.58956,0.26522h-4.06918l-1.30698,-0.00968l-1.01729,-0.3391l-0.78044,0.00782l-1.26325,-0.17751l-1.54165,-0.17386l-1.54445,-0.51823l-0.50844,-1.0712l-0.52967,-0.89401l-0.37792,-1.47886l-0.13736,-0.74183l-0.51292,-0.85906l-0.19738,-1.1115l-0.29549,-1.05326l-0.52443,-0.88713l-0.17897,-1.04449l-0.02016,-0.27214l-0.623,0.11201h-4.57782l-0.62299,-0.11201l-0.02399,0.28361l-0.13261,0.67825l-0.02356,1.14359l-0.52249,0.89227l-0.14888,1.28534l-0.36655,1.03965l-0.53083,1.47679l-0.46319,0.80039l-0.74397,1.27461l-0.33532,0.67152l-0.65747,1.31347l-0.36946,0.90795l-0.82706,0.98157l-1.12129,0.07663l-1.00351,0.16828l-1.24862,0.04746l-1.50864,0.12527l-1.04846,0.00064l-0.9096,-0.00256l-1.0173,-0.16954l-1.17703,0.00074l-1.21278,-0.16955l-1.44795,0.00181l-1.76685,-0.27451l0.01184,-1.45844l0.18228,-1.0742l0.50759,-1.37169l0.15447,-1.4336l0.22015,-1.10439l0.28326,-1.39768l0.00271,-1.04089l0.38547,-1.46008l0.14083,-1.43277l0.15664,-1.54653l0.32568,-1.31087l0.35492,-1.41504l0.14497,-1.0737l0.19768,-1.44338l0.02892,-1.4802l0.13406,-1.58113l0.22847,-0.89879l0.02753,-0.10689c-0.25625,-0.38336 0.02902,-0.81127 0.02902,-0.81127l0.22068,-0.19868l0.17565,-1.22316l0.22724,-0.93197l0.11303,-1.10856l0.25542,-0.84271l0.4309,-1.39717l0.18721,-0.90708l0.34952,-0.70668l0.31694,-1.121c0,0 0.20604,-0.72114 0.92719,-0.5151c0.04003,0.01144 0.07721,0.02447 0.11173,0.03887z" fill="#000000" stroke-width="0.5"/><path d="M508.92587,105.34076l0.51955,-1.19216l0.66987,-0.66673l0.4418,-0.87585l0.18532,-0.89602l0.31992,-0.9119l0.54763,-1.53394l-0.00757,-0.80656l0.34057,-0.67943l-0.01721,-0.95339l0.49357,-0.63418l0.22938,-1.57234l0.33435,-1.51325l-0.21518,-0.39926l0.48762,0.21932l2.03849,-0.00187l0.87731,-0.01427l0.62328,0.25603l0.75995,0.54729l1.42401,0.22381l0.90323,0.00137l0.84999,-0.00039l1.24338,-0.00228l1.19013,-0.16971l0.87086,-0.00175l0.9514,-0.18646l1.19321,-0.33575l1.39251,-0.15237l0.80823,0.00162l0.84974,0.00056l0.94553,-0.00295l0.44299,0.00015l0.12656,0.55845l0.4839,1.1116l0.17753,1.03904l0.54017,1.09389l0.32868,0.82009l0.30061,0.71207l-0.00511,0.81075l0.36349,1.29099l0.33397,1.15982l0.15982,0.79286l0.17234,1.35956l0.20257,0.97381l0.52765,1.06489l0.30892,0.92623l0.21128,0.96503l0.51719,0.69758l0.2832,1.19157l0.16329,0.98342l0.17896,1.2387l0.42898,1.50125l0.45254,1.50683l0.4919,0.97565l0.17165,1.08589l0.13855,1.52756l0.3569,1.44397l0.35125,1.06023l0.53421,1.42277l0.68621,1.37843l0.3386,0.67888l0.49459,0.99003l0.35884,0.89049l0.7077,1.0698l0.51959,0.86567l0.44134,0.55494l0.28683,0.23745l-0.44516,-0.26508l-4.07348,0.00428l-1.06813,0.01089l-1.01838,-0.33823l-0.91648,-0.00676l-1.18251,-0.16813l-1.4426,-0.15586l-0.83081,-0.15911l-0.21635,-0.71277l-0.48747,-0.80156l-0.30118,-1.23343l-0.20261,-0.95315l-0.50433,-0.83647l-0.1429,-0.92239l-0.3841,-1.31953l-0.49302,-0.80827l-0.16197,-0.9888l-0.59824,-1.00411l-1.41788,-0.10795l-4.61111,0.00519l-1.42119,0.10915l-0.6151,0.98076l-0.20761,1.01677l0.02187,0.89034l-0.49401,0.80352l-0.19151,1.42696l-0.35358,0.97666l-0.47816,1.34844l-0.39934,0.67729l-0.76838,1.31645l-0.35783,0.7143l-0.68451,1.36968l-0.30873,0.78755l-0.19032,0.37479l-0.57545,-0.07715l-1.03296,0.16996l-1.18946,0.0414l-1.48337,0.12249l-0.98765,-0.00163l-0.78702,0.00178l-1.01884,-0.17069l-1.19815,-0.00194l-1.21433,-0.17089l-1.55362,-0.00329l-0.60715,0.2742l0.32734,-0.23696l0.15605,-0.96117l0.5166,-1.41231l0.17539,-1.5497l0.20787,-1.04148l0.30366,-1.54596l-0.0038,-0.9953l0.37264,-1.38828l0.1561,-1.55524l0.14048,-1.44161l0.30209,-1.2069l0.37154,-1.49903l0.15755,-1.15809l0.20615,-1.53375l0.03116,-1.52396l0.11522,-1.41297l0.20241,-0.77761l0.38023,-1.48109l0.29065,-1.53471l0.03617,-0.36662z" fill="#e4e4e4" stroke-width="0.5"/><path d="M526.91944,110.62535l-0.00745,-0.02784c-0.64949,-0.06382 -0.64948,-0.74522 -0.64948,-0.74522v-3l0.00167,-1.45006l-0.16955,-1.26466l-0.00054,-1.50881l-0.16089,-1.44997l-0.16045,-1.46165l0.04376,-0.5125l-0.72221,0.03599l-1.30322,0.00189h-1.01729l-1.30322,-0.00189l-1.08359,0.15494l-1.17833,0.33723l-0.60996,-0.07731l0.17773,0.53252v4.06918l-0.00243,1.56036l-0.16955,1.04323l-0.00552,1.40494l-0.43385,1.45453l-0.09805,1.13948l0.11388,0.18122l0.82545,-0.07268l1.48393,-0.14878l0.91848,-0.02165l1.48018,0.00049l1.48375,-0.11316l1.52443,-0.04872l0.88075,-0.00537zM527.76251,108.52685c0.3391,0.20543 0.33909,0.64724 0.33909,0.64724l-0.01456,0.02246l0.03014,0.53959l0.79368,0.55718l-0.60503,1.51865l-1.39778,0.31343l-0.98055,0.01072l-1.47405,0.04685l-1.50762,0.11427l-1.51981,0.00049l-0.84378,0.01893l-1.50118,0.14974l-1.54823,-0.07268l-0.89218,-1.06981l0.04597,-1.85706l0.42819,-1.41895l-0.00552,-1.30783l0.16955,-1.04323l-0.00243,-1.43965v-4.06918l0.17774,-1.50208l1.42462,-0.41641l1.19536,-0.34096l1.2901,-0.18416l1.40956,-0.00188h1.01729l1.40956,0.00188l1.65148,0.3751l0.40398,1.37472l0.16809,1.5203l0.16765,1.53198l-0.00054,1.49119l0.16955,1.26467l0.00167,1.54994z" fill="#000000" stroke-width="0.5"/><path d="M526.80856,110.67052l-0.88518,0.00845l-1.5347,0.05354l-1.49628,0.11567l-1.49305,-0.00126l-0.92567,0.01971l-1.49296,0.14455l-0.82928,0.07014l-0.11498,-0.18205l0.09431,-1.14266l0.42921,-1.45953l-0.00122,-1.41595l0.16605,-1.05446l0.00288,-1.58088l0.01862,-4.09777l-0.17666,-0.5333l0.61296,0.07534l1.18709,-0.34146l1.09229,-0.15728l1.31417,0.00121l1.02568,0.00112l1.31267,0.00121l0.72647,-0.03386l-0.04231,0.51335l0.16738,1.46672l0.16913,1.45919l0.00766,1.52409l0.17119,1.28155l-0.00608,1.46722l-0.01428,3.01825c0,0 -0.06257,0.60339 0.58692,0.66721l0.07019,0.10571z" fill="#a27070" stroke-width="0.5"/><path d="M521.75649,186.16231c0.1149,0 0.21219,0.0176 0.29458,0.04741l0.25698,-0.03664l0.76066,-0.14923l0.91962,-0.35665l1.45162,-0.01209l1.35639,-0.16955l1.5466,-0.00145h11.86843l1.41299,0.02722l1.0486,0.59767l1.06496,0.71099l1.15651,0.98305l0.28149,0.61352l0.69978,0.36159l0.46258,1.02947l0.67819,1.18685l0.38261,0.96014l0.17552,0.86895l0.48749,1.48206l0.04249,1.0088l0.17079,1.03076v1.14102l-0.17928,1.09064l-0.19786,0.95594l-0.54723,1.1093l-0.57103,1.12041l-1.1872,1.1872l-0.67819,0.3391l-0.86581,0.86037l-1.27299,0.55897l-0.7024,0.40202l0.57107,0.1894l0.723,0.0259l1.10398,0.18382l1.32043,0.3827l0.96772,0.5743l1.28994,0.97102l1.09031,1.23086l0.79313,1.31318l0.95219,1.32786l0.32621,1.68503l0.08367,1.55591l0.03472,1.34538l-0.00109,1.06844l-0.17152,1.55178l-0.20298,1.18127l-0.50886,1.01794l-0.19795,1.09114l-0.73128,0.94618l-0.37969,0.73554l-1.22216,1.0665l-0.62784,0.60768l-1.01541,0.50729l-0.62532,0.63635l-1.25589,0.94401l-1.29181,0.86442l-1.32753,0.38846l-0.802,0.15691l-1.17924,0.50624l-1.60777,0.35654l-1.16076,0.0187l-0.96019,-0.00254l-0.95586,0.1619l-1.07873,0.1772l-0.90961,0.00256l-1.2487,-0.00256l-1.06362,-0.17484l-1.35639,-0.16955l-0.97097,-0.16426l-0.95543,0.00256h-2.20414l-1.67824,-0.18341l-0.42626,-1.70027l-0.00189,-1.40956v-2.37369l0.18341,-1.33915l1.70026,-0.42626l1.07047,-0.00189l0.38083,0.16307l0.07341,-1.0433l0.15697,-0.65877l-0.00482,-1.41514l0.00189,-0.99006l-0.20648,-1.43203l-0.12697,-0.88877l-0.1752,-1.23974l-0.00189,-1.07046v-13.90302l0.00064,-0.81658l-0.12431,-1.48904l-0.02397,-1.5252l-0.0005,-1.24726l-0.18633,-0.37558l-0.33955,-0.2777l-0.54872,0.03593l-1.01729,0.16955l-1.48519,-0.11687l-0.92892,-1.76734l-0.30983,-1.55582l-0.27773,-1.40023l-0.01423,-0.81858c-0.00009,-0.00362 -0.00009,-0.00553 -0.00009,-0.00553v-0.47279c-0.20882,-0.05861 -0.44477,-0.21357 -0.50111,-0.60799c-0.10606,-0.74246 0.63639,-0.84853 0.63639,-0.84853l0.12522,-0.01785c0.11009,-0.09304 0.2667,-0.15923 0.4895,-0.15923zM522.49216,188.80098l0.27808,1.40203l0.26664,1.38827l0.31249,0.96376l0.5494,-0.11686l1.01729,-0.16955l1.14677,0.03593l1.01684,0.7396l0.49187,0.98081l0.04315,1.58l0.02233,1.47445l0.12483,1.5006l0.00065,0.87892v13.90302l-0.00189,0.96412l0.1639,1.13394l0.12696,0.88876l0.21779,1.53782l0.00189,1.0964l-0.00482,1.58487l-0.18575,0.82633l-0.60117,1.87987l-1.31466,0.16307l-0.96413,-0.00189l-0.67342,-0.08716l0.18341,0.35634v2.37369l-0.00188,1.30322l-0.08717,0.67342l0.69544,-0.18341h2.20414l1.07916,0.00256l1.06362,0.17484l1.35639,0.16955l0.97097,0.16426l1.12498,-0.00256l0.78589,0.00256l0.95586,-0.1619l1.07873,-0.1772l1.07439,-0.00254l0.99715,-0.0087l1.32079,-0.29425l1.19445,-0.51105l0.8935,-0.18219l1.04615,-0.28974l1.05557,-0.72656l1.14411,-0.85599l0.73107,-0.72003l1.01918,-0.51001l0.48537,-0.49184l1.05561,-0.88588l0.2985,-0.62085l0.62511,-0.74931l0.14115,-0.94345l0.50844,-1.01665l0.14392,-0.92355l0.15977,-1.42988l-0.00109,-0.96615l-0.03368,-1.30581l-0.0746,-1.4399l-0.21382,-1.26597l-0.82326,-1.09036l-0.75394,-1.25715l-0.89792,-1.01567l-1.11006,-0.82898l-0.72777,-0.443l-1.05326,-0.29549l-0.93061,-0.15528l-0.83921,-0.04272l-1.40785,-0.47169l-1.31286,0.00474l-1.48978,-0.16559l-1.04972,-0.0025l-0.84775,-0.16955l-1.28249,-0.74635l1.3564,-0.75h2.37368l0.78589,0.00256l0.84722,-0.13534l0.55624,-0.28711l1.20642,-0.68831l1.10069,-0.45833l0.82968,-0.83513l0.6782,-0.3391l0.8474,-0.8474l0.44626,-0.91417l0.47006,-0.92529l0.14125,-0.73955l0.15981,-0.94394v-0.89357l-0.16832,-1.00383l-0.02612,-0.89252l-0.46119,-1.36399l-0.16358,-0.82654l-0.29558,-0.73534l-0.6782,-1.18684l-0.21561,-0.66602l-0.65661,-0.3166l-0.3967,-0.74287l-0.87808,-0.71245l-0.96963,-0.6454l-0.64688,-0.41961l-1.01259,0.02721h-11.86843l-1.4534,-0.00144l-1.35639,0.16954l-1.26117,-0.01208l-0.77587,0.32153l-0.93483,0.18988l-0.05482,0.00785v0.60932c0,0 0,0.0044 -0.00034,0.01254z" fill="#000000" stroke-width="0.5"/><path d="M522.47735,188.24036c0.00034,-0.00814 0.00035,-0.01255 0.00035,-0.01255l0.00059,-0.60973l0.0549,-0.0079l0.93638,-0.19088l0.77736,-0.32244l1.26322,0.01095l1.35894,-0.17077l1.45617,0.0003l11.89571,-0.0023l1.01485,-0.02671l0.64855,0.42005l0.97219,0.64619l0.88052,0.71335l0.3982,0.7435l0.65828,0.31737l0.21673,0.66658l0.68089,1.18833l0.29706,0.73625l0.16496,0.82746l0.46396,1.36604l0.02751,0.89367l0.17019,1.00552l0.00148,0.89503l-0.15844,0.94542l-0.14013,0.74084l-0.46903,0.92656l-0.44511,0.91571l-0.84686,0.84814l-0.67852,0.33864l-0.91186,0.89209l-1.09977,0.45965l-1.20567,0.68932l-0.55561,0.28792l-0.84421,0.13878l-0.78095,0.00195l-2.34525,0.01084l-1.33192,0.74511l1.26376,0.65141l0.87111,0.17698l1.06308,0.01463l1.49663,0.17776l1.31437,-0.00025l1.40925,0.47825l0.83936,0.04385l0.93078,0.15693l1.0534,0.29762l0.72782,0.44543l1.1099,0.83275l0.89745,1.01959l0.75306,1.26141l0.82242,1.09331l0.21249,1.26964l0.07283,1.44379l0.03194,1.30896l-0.00026,0.96826l-0.16196,1.43287l-0.14539,0.92533l-0.51051,1.0189l-0.14264,0.9449l-0.62704,0.75103l-0.29978,0.6219l-1.05853,0.88802l-0.48684,0.4928l-1.02173,0.51151l-0.73332,0.7212l-1.14736,0.85743l-1.05849,0.72763l-1.04874,0.29052l-0.8957,0.18273l-1.19754,0.51164l-1.32406,0.29466l-0.99958,0.00887l-1.07703,0.00258l-1.08135,0.1771l-0.95811,0.16171l-0.78774,-0.00279l-1.12757,0.0021l-0.97324,-0.16477l-1.35944,-0.17042l-1.06596,-0.17564l-1.08129,-0.00341l-2.20812,-0.00192l-0.69643,0.18287l0.08668,-0.6737l0.00059,-1.304l-0.00265,-2.37546l-0.12456,-0.43718l0.67217,0.08626l0.96236,0.00072l1.31219,-0.16453l0.55149,-1.7931l0.18502,-0.82677l0.00232,-1.5865l-0.00385,-1.09784l-0.22136,-1.54086l-0.12915,-0.89094l-0.16676,-1.13725l-0.00031,-0.96713l0.00564,-13.96602l0.00117,-0.88068l-0.12225,-1.50283l-0.01989,-1.4763l-0.04089,-1.58151l-0.43886,-0.89602l-1.01575,-0.74029l-1.14475,-0.03733l-1.01542,0.16811l-0.54842,0.11606l-0.37644,-1.04063l-0.26544,-1.38922l-0.27699,-1.40284z" fill="#e4e4e4" stroke-width="0.5"/><path d="M532.44336,190.0196l0.77484,-0.25828l1.13433,-0.3679l1.04179,-0.00603l0.92093,0.18046l0.77456,0.15864l1.25477,0.00988l0.94852,0.36589l1.28826,0.38232l1.04227,0.82266l0.68161,0.96301l0.03849,1.25446v1.69549l-0.01353,0.98958l-0.43137,1.08999l-1.05113,1.24l-1.08647,0.45458l-1.15752,0.19473l-0.90961,0.00256h-1.18684l-0.78589,-0.00256l-1.01729,0.16955l-1.07916,0.00256l-1.48659,-0.16497l-0.58982,-1.89388l-0.18486,-0.91721l-0.18057,-0.92147l-0.00365,-1.26074v-2.88234l0.3557,-1.48573zM534.70864,190.87512c0.00352,0.03366 0.00537,0.06909 0.00537,0.10636c0,0.75 -0.75,0.75 -0.75,0.75l-0.65573,-0.01457l-0.62885,-0.13028v2.61628l-0.00365,1.11294l0.15852,0.77403l0.18164,0.90159l0.06097,1.03468l0.548,-0.16497l0.95543,0.00256l1.01729,-0.16955l0.90961,-0.00256h1.18684l0.78589,0.00256l0.87707,-0.14436l0.60902,-0.22361l0.64436,-0.79459l0.24683,-0.6055l-0.01353,-0.70592v-1.69549l0.03849,-0.78012l-0.33569,-0.39338l-0.65321,-0.53373l-1.08544,-0.29587l-0.74697,-0.3123l-1.11892,0.00988l-0.92093,-0.18046l-0.77456,-0.15864z" fill="#000000" stroke-width="0.5"/><path d="M535.22678,190.83414l0.78344,0.15577l0.93429,0.17933l1.13478,-0.00644l0.75705,0.3177l1.09515,0.30469l0.6587,0.54167l0.33818,0.39853l-0.0359,0.78822l0.00038,1.7159l0.01142,0.71362l-0.2499,0.61236l-0.65118,0.80422l-0.61417,0.22856l-0.88582,0.15021l-0.79552,0.00128l-1.2046,0.00171l-0.92254,-0.00029l-1.02726,0.1646l-0.96231,-0.00788l-0.55002,0.163l-0.06645,-1.04144l-0.18637,-0.91038l-0.16128,-0.7829l0.00267,-1.12627l0.00892,-2.64189l0.63056,0.12798l0.65905,0.01077c0,0 0.76039,-0.00823 0.76039,-0.75823c0,-0.03727 -0.00133,-0.07301 -0.00485,-0.10667z" fill="#a27070" stroke-width="0.5"/><path d="M533.40687,212.13133c0.12667,-0.53668 0.72669,-0.53668 0.72669,-0.53668l0.96413,0.00189l0.98908,-0.12821l0.84775,-0.50865l1.31115,-0.202l1.04294,-0.17718l1.23539,0.49067l0.64071,0.80826l0.86042,1.03379l0.79506,1.24868l0.03218,1.06508v1.01729l-0.03849,1.25447l-0.56634,0.80847l-0.32103,0.81357l-0.67095,1.06476l-0.85237,0.45963l-0.67819,0.3391l-0.74171,0.36726l-1.16021,0.32815l-0.94607,0.5434l-1.21749,0.02722l-1.38704,-0.02722l-1.06604,-0.60905l-0.93052,-0.79563l-0.07918,-1.18315l0.00303,-1.11949l-0.26198,-1.4249l-0.21128,-1.54091l-0.03832,-1.15861l0.05699,-1.14686l1.08409,-1.08409zM536.06482,212.96166c-0.06852,0.64164 -0.74442,0.64164 -0.74442,0.64164h-1.3564l-0.56073,-0.05709l-0.2723,0.2723l0.057,0.54863l0.03316,1.05616l0.19787,1.43106l0.27468,1.5267l0.00303,1.25419l-0.07918,0.51234l0.42587,0.22167l0.62946,0.40825l0.98664,-0.02721l0.81709,0.02721l0.74943,-0.47389l1.21346,-0.35004l0.61468,-0.31094l0.67819,-0.3391l0.50402,-0.21857l0.34635,-0.63073l0.35716,-0.88192l0.45096,-0.54792l-0.03849,-0.78012v-1.01729l0.03218,-0.63041l-0.56133,-0.78591l-0.83506,-1.00079l-0.37659,-0.54813l-0.4601,-0.18752l-0.65255,0.16192l-1.06253,0.13709l-0.84775,0.50865z" fill="#000000" stroke-width="0.5"/><path d="M536.57932,212.83276l0.85923,-0.50947l1.07454,-0.13509l0.6583,-0.15983l0.46476,0.18984l0.38212,0.55175l0.84526,1.01112l0.56673,0.79522l-0.0299,0.63662l0.00197,1.02914l0.03802,0.78951l-0.4527,0.55562l-0.36222,0.8931l-0.35174,0.63799l-0.50873,0.22318l-0.68643,0.34484l-0.62318,0.31469l-1.22976,0.35262l-0.75785,0.4731l-0.82559,-0.02953l-0.99483,0.0233l-0.63551,-0.41248l-0.42923,-0.22468l0.077,-0.51461l-0.00972,-1.26362l-0.28053,-1.54519l-0.19671,-1.44865l-0.02926,-1.06667l-0.05465,-0.55277l0.27451,-0.27552l0.56282,0.05448l1.36605,-0.00868c0,0 0.68791,-0.00606 0.75642,-0.6477z" fill="#a27070" stroke-width="0.5"/><path d="M417.90531,141.1758c0.09996,-0.27455 0.36379,-0.42112 0.36379,-0.42112l1.31124,-0.72846l0.80561,-0.43866l1.56781,-0.35638l2.92856,-0.65079l1.45899,-0.3242l1.45414,-0.3453l1.45943,-0.34654l1.51556,-0.35763l1.55196,-0.12741l1.49514,-0.12063l1.37002,-0.11039l1.51398,-0.06071l2.9976,-0.11991l1.12648,-0.04491l1.51499,-0.00015h4.03768l1.52396,0.00038l1.52087,0.09695l1.55775,0.10218l1.5216,0.34889l1.46152,0.33757l1.55243,0.36472l1.41713,0.73128l1.32544,0.6903l1.35514,0.68068l1.31792,0.76139l1.41465,0.8333l1.00223,1.25414l1.01265,1.05668l0.6242,0.65781l0.85416,1.36034l0.70652,1.35659l0.69432,1.33445l0.70107,1.38976l0.50295,1.46857l0.48357,1.42045l0.34684,1.49862l0.34489,1.50128l0.15551,1.53981l0.14926,1.49255l0.15204,1.52973l0.00132,1.53726l0.00038,1.50009l0.00005,1.50008l-0.00106,1.54084l-0.16638,1.53182l-0.16305,1.49111l-0.13924,1.21597l-0.56731,1.4924l-0.52554,1.36366l-0.38078,1.41095l-0.40586,1.49395l-0.59088,1.43089l-0.57391,1.38587l-0.60267,1.44732l-0.84819,1.31853l-0.814,1.25993l-0.81262,1.2578l-0.80413,1.26325l-0.82941,1.29894l-1.02362,1.17314l-0.58717,0.671l-1.01378,1.1152l-0.99998,1.09979l-1.03611,1.21377l-1.33438,0.87676l-1.21858,0.85259l-0.89359,0.61694l-1.50451,0.54443l-1.41934,0.50688l-1.42871,0.47984l-1.43671,0.48231l-1.47548,0.42838l-1.48187,0.34241l-0.89496,0.20518l-1.53708,0.16321l-1.49176,0.15703l-1.29102,0.13579l-1.50874,0.10788l-1.49199,0.10656l-1.4907,0.12331l-1.37583,0.11316l-1.53093,0.00064l-1.52963,-0.00059l-1.5249,-0.12019l-1.4787,-0.13098l-1.41723,-0.69625l-1.37574,-0.41035l-0.88406,-0.26977l-1.38698,-0.75194l-1.15318,-0.62902l-1.31378,-0.72987l-0.77484,-0.43527l-1.19127,-1.03679l-0.69502,-0.60955l-1.04529,-1.13083l-1.01742,-1.1022l-0.68214,-0.74043l-0.95544,-1.27573l-0.74077,-1.36795l-0.71251,-1.31997l-0.60808,-1.1285l-0.59224,-1.41892l-0.5643,-1.3598l-0.37946,-1.50915l-0.72761,-2.91043l-0.36015,-1.44118l-0.41584,-1.42612l-0.37934,-1.30608l-0.23291,-1.38948l-0.22622,-1.35797l-0.19996,-1.49894l-0.19606,-1.47167l-0.25635,-1.46238l-0.25037,-1.44549l-0.00282,-1.56495v-3l0.00303,-1.17525l0.2774,-1.54262l0.17124,-0.92486l-0.00189,-1.32001l0.18625,-1.62868l0.62629,-1.59645l1.01852,-1.25934l0.95938,-1.1564l0.47071,-0.5597l0.62813,-1.26723l0.47905,-0.95296l0.92988,-1.30369l0.84526,-0.90527l0.32121,-1.03781l1.33744,-0.61919l1.15653,-0.77515l1.21377,-0.95415zM426.55715,139.74478c0.00281,0.03034 0.00428,0.06209 0.00428,0.09531c0,0.75 -0.75,0.75 -0.75,0.75h-0.44863l-0.82336,-0.00365l-1.0484,0.2134l-1.19476,0.23523l-0.84159,-0.08509l-0.3812,0.63216l-1.34342,0.33672l-1.18301,0.60487l-1.14106,0.90454l-1.33962,0.88895l-0.90571,0.27807l-0.12743,0.75672l-1.00007,1.13984l-0.81383,1.13752l-0.42247,0.85007l-0.71351,1.41606l-0.57254,0.6978l-0.95612,1.15247l-0.88123,1.06251l-0.46477,1.19812l-0.14504,1.35297l-0.00189,1.37178l-0.18937,1.05848l-0.25926,1.40899l0.00303,1.04054v3l-0.00281,1.43505l0.2335,1.31656l0.26133,1.49263l0.20042,1.50201l0.19653,1.47474l0.2224,1.33383l0.21572,1.30231l0.35701,1.22008l0.42369,1.45402l0.36746,1.46924l0.72761,2.91043l0.34815,1.40127l0.52501,1.25455l0.56161,1.35031l0.57407,1.06152l0.71251,1.31997l0.68426,1.27199l0.84457,1.12427l0.63175,0.68296l1.01742,1.1022l0.98955,1.07358l0.6363,0.55535l1.06646,0.93873l0.64037,0.35095l1.3087,0.72706l1.14808,0.62622l1.24671,0.68462l0.73757,0.21734l1.49743,0.45269l1.26605,0.64539l1.19509,0.08078l1.46573,0.11668l1.47037,-0.00059l1.46906,0.00064l1.31405,-0.10933l1.49909,-0.12398l1.50038,-0.10718l1.48363,-0.10587l1.26595,-0.13336l1.49176,-0.15703l1.44643,-0.15086l0.80523,-0.18732l1.44125,-0.33243l1.40548,-0.40833l1.40721,-0.47275l1.4152,-0.47523l1.40589,-0.50214l1.32071,-0.46457l0.72207,-0.51329l1.23964,-0.86705l1.18097,-0.75817l0.90031,-1.07756l1.01804,-1.12003l1.00425,-1.10462l0.57774,-0.66033l0.95189,-1.0846l0.76462,-1.20522l0.80685,-1.26751l0.81536,-1.26205l0.81399,-1.25993l0.77979,-1.20133l0.54513,-1.32443l0.57391,-1.38587l0.55693,-1.34084l0.37775,-1.4019l0.40284,-1.4849l0.55139,-1.43637l0.50963,-1.30764l0.10583,-1.02531l0.16305,-1.49111l0.15971,-1.4504l-0.00116,-1.45917l-0.00005,-1.49991l-0.00038,-1.49992l0.00056,-1.46273l-0.14647,-1.45539l-0.14925,-1.49256l-0.14301,-1.4453l-0.32642,-1.40776l-0.32774,-1.42455l-0.46073,-1.34746l-0.46572,-1.37074l-0.65322,-1.28715l-0.6904,-1.32685l-0.67821,-1.3047l-0.73584,-1.18367l-0.5238,-0.54154l-1.06175,-1.11054l-0.85212,-1.10412l-1.18268,-0.66799l-1.27942,-0.73988l-1.32595,-0.66535l-1.33535,-0.69542l-1.24365,-0.65445l-1.37062,-0.31042l-1.46152,-0.33757l-1.40144,-0.32625l-1.43613,-0.08941l-1.473,-0.09465l-1.47604,0.00038h-4.03768l-1.48501,-0.00015l-1.0965,0.04401l-2.99761,0.1199l-1.48362,0.05919l-1.3397,0.10825l-1.49514,0.12064l-1.43833,0.11386l-1.40328,0.33545l-1.45942,0.34654l-1.4647,0.34777z" fill="#000000" stroke-width="0.5"/><path d="M426.65765,139.67209l1.46699,-0.34868l1.46177,-0.34734l1.4056,-0.33612l1.44065,-0.11441l1.49761,-0.12109l1.34195,-0.10856l1.48613,-0.05941l3.00269,-0.11996l1.09835,-0.0439l1.48748,0.0004l4.04414,0.00125l1.47826,0.00026l1.47517,0.09538l1.43816,0.0902l1.40347,0.32714l1.46355,0.33858l1.37244,0.31141l1.24547,0.65556l1.33723,0.69668l1.32773,0.66665l1.28112,0.74126l1.18417,0.66929l0.8536,1.10554l1.06334,1.11219l0.52455,0.54238l0.73717,1.18524l0.67954,1.30642l0.6917,1.32869l0.65441,1.28899l0.46681,1.37262l0.46175,1.34939l0.32869,1.42657l0.32728,1.40983l0.14378,1.44739l0.14996,1.4948l0.14706,1.45764l-0.00007,1.46502l0.00078,1.50232l0.00033,1.50237l0.00131,1.46159l-0.15967,1.45282l-0.16313,1.49362l-0.10596,1.02704l-0.50989,1.30992l-0.55181,1.43892l-0.40341,1.48749l-0.37842,1.40432l-0.55771,1.34322l-0.57484,1.3883l-0.54615,1.32669l-0.78091,1.20354l-0.81529,1.2622l-0.81678,1.26426l-0.80838,1.26963l-0.76616,1.20714l-0.95355,1.08646l-0.5788,0.66142l-1.0061,1.1064l-1.01999,1.12172l-0.90216,1.079l-1.18291,0.75954l-1.2418,0.86843l-0.72336,0.51404l-1.32279,0.46567l-1.40818,0.50321l-1.41756,0.47619l-1.40962,0.47359l-1.40789,0.40904l-1.44372,0.33302l-0.80662,0.1876l-1.4489,0.15124l-1.49433,0.1573l-1.26814,0.13349l-1.48618,0.1059l-1.50294,0.10708l-1.50159,0.12376l-1.3162,0.10903l-1.47142,-0.00108l-1.47267,0.00005l-1.46799,-0.11732l-1.19687,-0.08137l-1.26818,-0.6462l-1.49973,-0.45368l-0.73867,-0.21787l-1.24873,-0.68567l-1.14989,-0.62727l-1.3107,-0.72835l-0.64132,-0.35161l-1.06827,-0.94008l-0.63736,-0.5562l-0.99131,-1.0751l-1.01917,-1.10386l-0.6328,-0.68404l-0.84608,-1.12595l-0.68573,-1.27377l-0.71397,-1.32192l-0.57518,-1.06315l-0.56287,-1.35235l-0.52611,-1.25653l-0.3492,-1.4034l-0.72952,-2.91512l-0.36825,-1.47172l-0.42435,-1.45654l-0.35746,-1.22221l-0.21609,-1.30454l-0.22268,-1.33612l-0.19671,-1.47727l-0.20048,-1.50457l-0.26125,-1.49513l-0.23333,-1.31872l0.0031,-1.43738l0.00093,-3.00472l-0.00262,-1.04211l0.25993,-1.41117l0.18993,-1.06007l0.00262,-1.37365l0.14585,-1.35482l0.46564,-1.19989l0.88222,-1.06434l0.95731,-1.15445l0.5733,-0.69898l0.71492,-1.41806l0.42335,-0.85122l0.81521,-1.13918l1.00164,-1.14157l0.1281,-0.75742l0.90663,-0.27897l1.34143,-0.89062l1.1428,-0.90599l1.18463,-0.60611l1.3451,-0.33789l0.38208,-0.63274l0.84249,0.08453l1.19636,-0.23617l1.04986,-0.21419l0.82444,0.00311l0.44924,-0.00029c0,0 0.7515,-0.00068 0.7515,-0.75068c0,-0.03322 -0.00142,-0.06499 -0.00423,-0.09533z" fill="#a27070" stroke-width="0.5"/><path d="M448.88441,146.00167h-1.58133l-0.83679,-0.00145l-0.54009,0.04053l-0.69005,0.56582l-0.40673,0.85242l-0.70756,1.34428l-0.74568,1.31885l-0.744,1.28514l-0.6799,1.324l-0.69659,1.29267l-0.4441,1.07815l-0.39102,0.68379l-0.38383,0.96268l-0.59273,1.18618l-0.59795,1.39292l-0.44794,0.78053l-1.15783,0.90942l-1.13922,-1.26283l-0.22511,-1.1711l-0.44056,-1.40587l-0.31903,-1.25935l-0.57254,-1.13757l-0.4948,-1.28531l-0.62008,-1.32779l-0.35229,-0.71274l-0.60268,-1.40587l-0.4971,-1.29211l-0.15073,-0.54972l-0.79277,-0.3608l-0.90739,0.02006l-1.1405,-0.00093l-0.95487,0.09635l-1.41147,0.10042h-0.78524l-1.29254,0.09076l-0.85331,0.19129l-0.89612,0.00126l0.00682,0.23455l0.88793,0.83332l0.87796,1.28647l0.8457,1.24299l0.85566,1.28446l0.71444,1.36421l0.38041,0.72784l0.65619,1.36261l0.60967,1.26805l0.76319,1.27081l0.70183,1.29956l0.76586,1.11394l0.68337,1.17206l0.52296,0.74179l0.52923,1.40931l0.53469,0.91221l-0.35127,1.1774l-0.68748,1.37726l-0.51448,1.02857l-0.73295,1.3196l-0.70134,1.31824l-0.50936,0.95422l-0.52143,1.37245l-0.59538,1.39311l-0.57588,1.34478l-0.42909,1.36358l-0.31562,1.44213l-0.36123,1.4658l-0.2992,1.21365l-0.29478,1.0809l-0.30401,1.21121l-0.54736,1.46241l-0.47054,1.08544l-0.39409,0.78836l-0.02776,0.06173l0.68484,-0.21062l1.43334,-0.50518l1.45627,-0.36536l1.44134,-0.50093l1.5349,-0.27625l0.80624,-0.1438l1.49517,-0.29836l0.95843,-0.10618l0.56783,0.15282l0.01977,-0.65599l0.28868,-1.44564l0.20031,-1.00045l0.36792,-1.47257l0.2224,-0.88923l0.31609,-1.45445l0.1725,-0.79348l0.33179,-1.49104l0.27417,-0.92859l0.48078,-1.44256l0.49197,-1.37667l0.18357,-0.82472l0.21864,-1.36448l1.0717,-1.30692l1.19744,1.19949l0.5156,1.33124l0.57583,1.37292l0.58661,1.39935l0.52171,1.42482l0.46801,1.28218l0.65298,1.3033l0.42554,0.85338l0.54145,1.44094l0.33648,0.90255l0.69468,1.26972l0.73592,1.35127l0.59469,1.4191l0.53126,1.27037l0.57836,1.25303l0.30458,0.64448l0.12639,0.21698l1.08444,-0.51154l1.52848,-0.2598l1.32545,-0.30233l1.44631,-0.28849l0.96574,-0.29023l0.81163,-0.20305l0.44562,0.0974l-0.20257,-0.21917l-0.43329,-0.7497l-0.5785,-1.06138l-0.80181,-1.26964l-0.70449,-1.30649l-0.83079,-1.19901l-0.49079,-0.70997l-0.81827,-1.33172l-0.64853,-1.40196l-0.56561,-1.22822l-0.46355,-1.3972l-0.39228,-0.70081l-0.51394,-1.13024l-0.28903,-0.77246l-0.46455,-0.92744l-0.4206,-0.74525l-0.32283,-1.05923l-0.38488,-1.25199l-0.33219,-1.08738l0.84062,-1.61439l0.39559,-0.6825l0.2927,-0.97739l0.75509,-1.36766l0.6547,-1.32904l0.69041,-1.39602l0.89627,-1.28308l0.88113,-1.20403l0.59923,-0.8954l0.74413,-1.20339l0.49693,-1.28817l0.79006,-1.18702l0.47423,-1.14503l0.70003,-1.31087l0.27167,-0.7287l0.40945,-0.82126l0.37269,-0.742l0.48107,-1.37894l0.53011,-1.41665l0.41904,-0.24252l-0.60463,0.25136l-1.393,0.25177l-0.87662,0.13163l-1.13514,0.2034l-1.24521,0.00303l-1.02302,-0.00115l-1.05433,-0.12772l-0.74514,-0.38197l-0.71108,0.02006h-0.19631c0,0 -0.48716,0 -0.67623,-0.39262zM452.65764,145.38584l0.63288,-0.00077l1.1105,0.00303l1.02427,-0.18922l0.88045,-0.13226l1.56135,-0.26958l1.9474,0.44766l-0.28678,1.57596l-0.52135,1.39305l-0.50998,1.45263l-0.41255,0.82847l-0.37579,0.74922l-0.27966,0.74674l-0.71173,1.33619l-0.50732,1.21069l-0.78041,1.16869l-0.48462,1.26385l-0.82634,1.34863l-0.63266,0.94524l-0.89037,1.21708l-0.82508,1.17393l-0.63571,1.29497l-0.67142,1.36195l-0.70184,1.25481l-0.29623,0.9857l-0.4717,0.83527l-0.6478,0.99034l0.25674,0.4831l0.40036,1.30004l0.2661,0.90386l0.36464,0.62891l0.517,1.03565l0.2999,0.79801l0.46761,1.02917l0.42582,0.77195l0.48513,1.44885l0.53293,1.15194l0.60865,1.32192l0.75221,1.22031l0.4684,0.67667l0.87589,1.26822l0.72062,1.33341l0.80017,1.26683l0.59935,1.09802l0.54826,1.01709l-0.00626,1.54761l-1.32117,0.49002l-0.75884,0.18957l-1.00026,0.29928l-1.49544,0.29986l-1.34827,0.30703l-1.43012,0.23688l-1.72455,0.54183l-1.05147,-0.76456l-0.48066,-0.926l-0.5995,-1.29899l-0.54197,-1.29534l-0.56301,-1.34852l-0.70064,-1.28242l-0.74187,-1.36397l-0.37694,-0.99989l-0.51192,-1.36805l-0.39222,-0.78214l-0.68866,-1.37998l-0.49931,-1.36075l-0.50942,-1.39241l-0.57357,-1.36723l-0.58435,-1.39367l-0.1143,-0.29947l-0.02326,0.15879l-0.21651,0.96303l-0.51497,1.44929l-0.4679,1.40349l-0.25289,0.85427l-0.319,1.43752l-0.17176,0.79011l-0.32119,1.47707l-0.22785,0.91177l-0.35968,1.43785l-0.19289,0.96554l-0.29967,1.4961l-0.56916,1.50342l-1.39526,0.15282l-0.81125,0.09071l-1.44657,0.28999l-0.82161,0.14663l-1.41847,0.25067l-1.39136,0.48691l-1.45358,0.36455l-1.39563,0.49328l-1.13293,0.34876l-2.26772,0.15572l0.55564,-1.59638l0.36113,-0.82377l0.39115,-0.78211l0.43918,-1.01331l0.50601,-1.34658l0.28492,-1.1445l0.29415,-1.0785l0.29468,-1.19578l0.35673,-1.44702l0.32712,-1.48821l0.47176,-1.49796l0.60336,-1.41374l0.58386,-1.36541l0.54656,-1.43102l0.55077,-1.03829l0.70779,-1.33022l0.72398,-1.30287l0.49959,-0.99958l0.65416,-1.30602l0.23765,-0.39307l-0.37504,-0.4013l-0.52414,-1.39968l-0.45859,-0.63238l-0.69079,-1.18365l-0.77866,-1.13452l-0.72528,-1.33926l-0.7803,-1.30167l-0.64091,-1.3293l-0.64526,-1.34039l-0.36912,-0.7058l-0.67552,-1.29437l-0.80929,-1.21113l-0.84187,-1.23735l-0.80961,-1.19387l-1.15902,-1.35984l0.39943,-1.72854l1.6559,-0.39136l0.91348,-0.20133l1.45579,-0.10555h0.78524l1.33686,-0.09589l1.00822,-0.09996l1.21522,-0.00093l1.25202,0.02006l1.56294,0.81706l0.4382,1.02075l0.48445,1.25991l0.57518,1.34246l0.34215,0.69121l0.64858,1.39076l0.48675,1.26671l0.60532,1.21815l0.35662,1.37387l0.45427,1.45757l0.0959,0.5658l0.07495,-0.13192l0.57991,-1.35541l0.58513,-1.16954l0.40141,-1.00041l0.39422,-0.69037l0.4358,-1.06089l0.72483,-1.34922l0.69089,-1.34451l0.75867,-1.31139l0.73099,-1.29256l0.68967,-1.31048l0.57481,-1.11068l1.27305,-1.00466l1.03039,-0.15578l0.93,-0.00145h4.61327c0,0 0.75,0 0.75,0.75c0,0.04769 -0.00303,0.09235 -0.00871,0.13416z" fill="#000000" stroke-width="0.5"/><path d="M449.57983,146.34812l0.19667,0.00015l0.71233,-0.01951l0.74674,0.38274l1.05618,0.12869l1.02461,0.00207l1.247,-0.0019l1.13646,-0.20249l0.87759,-0.13092l1.39438,-0.2507l0.60506,-0.251l-0.41928,0.24233l-0.52941,1.41723l-0.48028,1.37962l-0.37236,0.74229l-0.40906,0.82161l-0.27119,0.72914l-0.69937,1.31151l-0.47341,1.14584l-0.78951,1.18759l-0.49577,1.28943l-0.7433,1.20436l-0.5986,0.89617l-0.88026,1.20515l-0.8951,1.28469l-0.6885,1.39895l-0.65266,1.33276l-0.75295,1.37268l-0.29114,0.98253l-0.39479,0.68642l-0.84012,1.62623l0.33096,1.09521l0.38255,1.25921l0.3206,1.06398l0.41933,0.74748l0.46303,0.92981l0.28772,0.7743l0.51235,1.13224l0.39153,0.70169l0.4617,1.3992l0.56446,1.22936l0.6474,1.403l0.81768,1.33224l0.49059,0.71014l0.8305,1.19926l0.70395,1.30695l0.80149,1.2699l0.57815,1.06166l0.43309,0.74986l0.20261,0.21915l-0.44607,-0.09705l-0.81287,0.20397l-0.96733,0.29134l-1.44871,0.28999l-1.32785,0.30365l-1.53136,0.26116l-1.08683,0.51251l-0.12647,-0.21695l-0.3047,-0.64443l-0.57859,-1.25294l-0.53141,-1.27032l-0.59488,-1.41903l-0.73659,-1.35103l-0.69545,-1.26946l-0.33662,-0.90251l-0.54173,-1.44085l-0.42615,-0.8532l-0.65415,-1.30296l-0.46862,-1.28201l-0.52266,-1.42458l-0.58863,-1.39891l-0.57918,-1.37237l-0.52123,-1.33084l-1.22465,-1.20709l-1.01635,1.22368l-0.22368,1.36136l-0.1853,0.82383l-0.49299,1.37618l-0.48165,1.44216l-0.27475,0.92834l-0.33293,1.49057l-0.17301,0.79328l-0.31687,1.45416l-0.22271,0.88912l-0.36837,1.47242l-0.20069,1.00032l-0.28916,1.44548l-0.05043,0.75117l-0.56928,-0.1533l-0.9605,0.1054l-1.49802,0.29711l-0.80766,0.1431l-1.53736,0.27489l-1.44315,0.49981l-1.45802,0.36418l-1.43472,0.50416l-0.68547,0.21013l0.02774,-0.06175l0.39381,-0.78858l0.47004,-1.08584l0.54651,-1.46313l0.30303,-1.21207l0.29387,-1.08175l0.29806,-1.21477l0.35973,-1.46738l0.31397,-1.44405l0.42757,-1.36555l0.57442,-1.34686l0.59374,-1.39577l0.51966,-1.37582l0.50821,-0.9568l0.69978,-1.32262l0.7316,-1.32513l0.5138,-1.03387l0.68755,-1.38563l0.35259,-1.18506l-0.53342,-0.91643l-0.52689,-1.41487l-0.522,-0.74364l-0.68184,-1.17468l-0.76471,-1.1157l-0.70044,-1.30149l-0.76209,-1.27221l-0.60852,-1.2694l-0.6551,-1.36381l-0.37992,-0.72836l-0.7136,-1.36505l-0.85518,-1.28492l-0.84531,-1.24337l-0.8776,-1.28681l-0.88805,-0.83321l-0.0066,-0.23475l0.89708,-0.00211l0.85446,-0.19227l1.29422,-0.09209l0.78628,-0.00077l1.4136,-0.10185l0.95645,-0.09732l1.1424,-0.00013l0.90902,-0.02089l0.79395,0.36025l0.19209,0.64077l0.4973,1.29202l0.60278,1.40583l0.31018,0.62204l0.66213,1.41852l0.49509,1.28517l0.57242,1.13762l0.31996,1.2589l0.44153,1.40538l0.22674,1.17021l1.09189,1.17477l1.16625,-0.91277l0.45159,-0.78147l0.60231,-1.39366l0.59604,-1.18648l0.38566,-0.96275l0.39262,-0.6838l0.44567,-1.07811l0.69871,-1.29253l0.68161,-1.32383l0.74562,-1.28492l0.74705,-1.31862l0.70864,-1.34407l0.40725,-0.85231l0.69126,-0.56554l0.5412,-0.04025l0.8385,0.00194l1.58441,0.00105c0.18907,0.39262 0.67778,0.39323 0.67778,0.39323z" fill="#e4e4e4" stroke-width="0.5"/><path d="M208.91844,74.39255l0.00211,-0.00134l1.32769,0.02006l0.58962,-0.31707l0.75322,-0.40743l0.46202,-0.46054l-0.05959,-0.00751l-1.4547,-0.00372l-1.49873,-0.00525l-1.49874,-0.0002l-2.48482,-0.00033l-8.99995,0l-0.99905,-0.00093l-1.52982,-0.15205l-1.49256,-0.14926l-0.80904,-0.08184l-1.46264,0.00093h-8.46169l-1.32174,-0.02006l-1.3556,-0.67426l-1.34137,-0.03452l-0.97651,-0.03758l-1.18166,-0.00131l-1.53484,-0.19039l-1.44533,-0.18193l-1.19113,-0.00938l-1.53775,-0.00112l-1.53196,-0.16749l-1.42398,-0.15976l-1.42924,0.10254l-1.49638,0.1042l-1.51968,0.10546l-1.52534,0.01149l-1.50205,0.00275l-1.05643,0.00193l-1.50069,0l-0.91899,-0.00968l-1.14943,-0.38314l-1.37986,0.00968l-1.38585,-0.00874l-0.97563,0.30357l-1.05586,0.861l-0.71274,0.56872l-0.67044,0.66268l-0.68906,1.21922l-0.68969,1.18419l-0.22294,1.35213l-0.25621,1.47796l-0.25446,1.46743l-0.21244,1.4741l-0.42808,2.9693l-0.1602,1.09776l0.00192,1.44635v9.57854l-0.00725,1.07797l0.39047,1.34027l0.37581,1.34172l0.00725,1.60403v5.29885l-0.00124,1.54304l-0.17557,1.53302l-0.34374,2.98024l-0.17284,1.49816l-0.20505,1.49409l-0.19942,1.44392l-0.03286,1.45726l-0.02203,0.86224l-0.25347,1.5323l-0.13418,0.80415l-0.184,1.47326l-0.1818,1.44348l-0.00444,1.45488l-0.00629,1.31028l-0.169,1.53068l-0.16281,1.45918l-0.03725,1.46099l-0.02405,1.62292l-0.5274,1.43004l-0.09447,1.39116l-0.10824,1.47112l-0.00952,1.47506l-0.0101,1.49997l-0.00536,0.79469l0,1.49747v1.5l-0.00562,0.92306l-0.50787,1.81316l-1.07604,0.6939l-1.33919,0.44048l-1.62014,0.00968h-16.5l-1.53697,-0.00091l-1.52959,-0.15045l-1.49271,-0.14772l-0.84935,-0.08497l-1.46303,0.00091h-3l-1.55074,-0.00172l-1.53678,-0.20764l-1.36653,-0.18731l-1.49533,-0.37267l-1.42791,-0.35752l-1.45079,-0.24889l-1.00277,-0.17293l-1.48252,-0.37009l-1.42791,-0.35752l-1.45079,-0.24889l-0.97336,-0.16734l-1.4777,-0.24628l-1.47959,-0.2466l-1.42122,-0.23921l-1.44118,-0.00953l-1.49737,-0.01231l-1.37051,-0.00183l-1.4995,0h-6.48084l-1.38441,-0.00896l-1.31592,0.43016l-0.99096,0.31644l-1.47858,0.37005l-1.12975,0.18854l-0.26485,1.04589l-0.21467,1.41739l-0.21171,1.37596l-0.33039,1.48864l-0.97619,4.39284l-0.22758,1.02329l-0.25763,1.46096l-0.52136,2.95435l-0.25741,1.45704l-0.17726,1.46895l-0.17998,1.48916l-0.13843,1.12872l-0.40714,1.50044l-0.39468,1.44715l-0.34028,1.22248l0.00664,1.40045l-0.00075,1.53347l-0.13599,1.52743l-0.13375,1.49402l-0.11339,1.25824l0.00075,1.46653v10.72797l-0.0018,1.55192l-0.21259,1.5373l-0.17055,1.20983l0.0018,1.0975v22.5728l-0.00562,0.89049l-0.3649,1.46374l-0.0521,0.50335l0.81217,0.94291l0.33476,0.53695l1.17511,-0.07402h15l1.38864,0.00831l1.32497,-0.41575l1.43386,-0.44051l1.49016,-0.45544l1.54204,-0.22386l1.48475,-0.21334l1.2189,-0.17321l1.55347,-0.00191h11.68199l1.28576,0.00562l1.45219,-0.36342l1.58851,-0.01818l0.80542,-0.0032l1.36242,-0.27486l1.39424,-0.43568l1.33221,-0.41495l1.47594,-0.3693l1.53695,-0.37948l1.48585,-0.03239l1.3456,-0.3887l1.60542,-0.00745h4.98084l2.01511,0.20487l0.29972,1.67333l0.0003,1.52122v8.42912l-0.00795,1.2909l-0.4547,1.54334l-0.43102,1.43674l-0.27417,0.9076l-0.21839,1.43143l-0.22809,1.48256l-0.23776,1.53362l-0.44396,1.48709l-1.2923,4.31045l-0.27546,0.91877l-0.44192,1.43626l-0.44113,1.43367l-0.42312,1.36312l-0.14502,1.41989l-0.31221,2.98371l-0.12483,1.19261l-0.18695,1.4959l-0.3721,2.97683l-0.18795,1.5025l-0.24448,1.49435l-0.17117,1.03787l-0.42282,1.48445l-0.34184,1.19008l-0.20318,1.43457l-0.17229,1.20569l-0.24798,1.4882l-0.7398,4.43877l-0.15538,0.91675l0.00256,1.43814l-0.00725,1.28602l-0.43369,1.5443l-0.3387,1.17456l-0.13962,1.42629l-0.14926,1.49256l-0.09426,0.91257l-0.42759,1.50743l-0.34184,1.19008l-0.20318,1.43457l-0.16536,1.14417l-0.05226,1.72662l-0.76628,0.79885l-0.05787,0.0922l0.44386,0.09706l1.3586,0.5819l1.2379,0.53406l1.39691,0.3071l1.43529,0.31955l1.45617,0.2043l2.97074,0.418l1.5121,0.21325l1.49299,0.32078l1.46643,0.31557l0.76234,0.16835l1.42066,-0.00421l1.58037,0.00432l1.54499,0.33255l1.39358,0.30758l1.4269,0.02508l2.9994,0.06018l1.49291,0.02999l1.49321,0.00289l1.49936,0.00293l1.49936,0.00038l1.49991,0.00038l2.99991,0.00002l3,0l3,0l12,0l1.3578,0.0136l1.2551,-0.51818l1.5218,-0.59735l1.53119,-0.03586l1.18078,-0.3675l1.55551,-0.38437l0.9352,-0.02601l1.09616,0.00251l1.41815,-0.23895l0.8807,-0.14419l1.56186,-0.00256h4.21456l0.69482,0.00725l1.34027,-0.39047l1.26904,-0.36194l1.54637,-0.30843l1.22312,-0.0905l1.44551,-0.24172l0.71063,-0.10998l0.7112,-0.36281l0.94504,-0.25682l0.17113,-0.4599l0.32521,-1.30421l0.06374,-1.42456l0.28357,-5.9933l0.05141,-1.05892l0.25258,-1.52338l0.2466,-1.47959l0.24136,-1.44242l0.09412,-1.45944l0.19498,-2.99366l0.09837,-1.50884l0.14656,-1.50492l0.14549,-1.49293l0.11056,-1.13311l0.0871,-1.48305l0.17617,-2.99482l0.08718,-1.47766l0.00864,-1.4802l0.00902,-1.49997l0.00901,-1.49794l0.00088,-1.49796l0.00176,-3l0.00088,-1.49979l0.00004,-1.49979l0.00017,-5.76522l0,-22.22221l0.02006,-0.9386l0.64378,-1.179l1.62434,-0.46608l1.14594,-0.76085l1.22297,-0.78782l1.55727,-0.43417l1.44715,-0.39468l1.3536,-0.36835l1.51085,-0.26742l2.95435,-0.52136l1.4927,-0.26325l1.50239,-0.20071l1.52603,-0.20265l1.53882,-0.04337l1.4338,-0.03656l1.46505,-0.30195l1.56032,-0.06283l1.04669,-0.0169l0.86831,0.41286l1.28925,0.32316l1.41097,0.00459l1.28792,0.00957l1.52331,0.1264l1.49482,0.12457l1.4647,0.12267l1.46982,0.00329l1.4992,0.00397l1.4992,0.00078l1.44202,0.00521l1.54495,0.33876l1.39867,0.31385l1.43236,0.05573l1.30447,0.05361l1.48464,-0.00016h0.79885l1.28727,0.0308l1.18199,-0.76628l1.79383,-0.0264l1.54507,0.33563l1.44804,0.31898l1.46124,0.2517l1.4782,0.25483l1.50964,0.26094l1.48222,0.38746l1.37676,0.36452l1.42235,0.07251l0.89174,0.04814l1.12932,-0.00027l0.59397,0.02006l0.60319,-0.32403l1.11472,-0.49627l0.44967,-1.35263l1.13778,-0.88541l0.16737,-1.22491l0.26091,-1.47714l0.25617,-1.44671l0.1354,-1.46297l0.5555,-5.97423l0.11298,-1.20587l0.28653,-1.50884l0.842,-4.42052l0.27391,-1.43164l0.10818,-1.45359l0.33768,-4.48731l0.06054,-0.7975l-0.00053,-1.47184v-28.00192l0.02006,-0.97711l-0.38314,-0.76628l-0.02006,-1.67231l0.01741,-1.33932l-0.38314,-0.83142l-0.00773,-1.18997l-0.25126,-0.83103l-0.96229,-0.68656l-1.30185,-0.5295l-1.34494,-0.55518l-1.40246,-0.38755l-1.44544,-0.40087l-0.69857,-0.20085l-1.39886,0.00685l-1.52841,-0.00054l-1.52407,-0.11518l-1.49569,-0.11357l-1.47129,-0.11211l-1.47548,-0.01523l-1.49992,-0.01588l-1.00337,-0.01064l-1.49603,0.00001h-7.24713l-1.28846,-0.00365l-1.48148,-0.2953l-1.43621,-0.03819l-1.57428,-0.04856l-1.46821,-0.34125l-0.93362,-0.04272l-1.51984,-0.21629l-1.24742,-0.17996l-1.49191,-0.42445l-1.13769,-0.33259l-1.39597,0.00725h-6.51341l-1.57154,-0.00342l-1.53578,-0.29362l-1.47058,-0.25218l-1.26541,-0.21977l-1.71617,-0.05144l-0.79885,-0.76628h-1.5l-0.95124,-0.84918l-0.88602,-0.48827l-0.73081,-1.71092l-0.2135,-1.57907l-0.58659,-4.4616l-0.19281,-1.46659l-0.21155,-1.48078l-0.42426,-2.96985l-0.13378,-0.94137l-0.0857,-1.52999l-0.24962,-4.49307l-0.05119,-0.92658l-0.00029,-1.52081v-1.5l0.00931,-1.61782l0.49314,-1.54086l0.46543,-1.42596l0.45214,-1.38041l0.27134,-1.427l0.2383,-1.24617l0.28622,-1.42157l0.08055,-1.46966l0.18558,-1.51361l0.18792,-1.52278l0.32488,-1.49955l0.31222,-1.43434l0.18716,-1.45595l0.19195,-1.48767l0.15211,-1.17874l0.21284,-1.48997l0.18354,-1.26332l0.42017,-1.26412l0.34611,-0.65159l-0.02006,-0.59397v-1.5l0.00725,-0.90288l0.43369,-1.5443l0.33948,-1.17861l0.1561,-1.42871l0.16682,-1.50074l0.20658,-1.49579l0.30724,-1.77266l0.76552,-0.5151l-0.08021,-1.22897l0.30338,-1.54398l0.58516,-2.94238l0.26548,-1.33042l0.14478,-1.4566l0.14926,-1.49256l0.08184,-0.80904l0.01913,-0.93975l-0.0475,-0.30061l-0.58281,0.09195l-1.26135,0.64706l-1.48006,0.33828l-1.30586,0.57873l-1.35693,0.59724l-0.38245,0.19017h0.25034c0,0 0.75,0 0.75,0.75c0,0.75 -0.75,0.75 -0.75,0.75h-1.5l-0.84545,-0.00145l-0.74354,-0.09223l-0.68775,0.33577l-1.04767,1.05111l-0.95688,0.53638l-0.94295,0.44921l-1.67231,0.02006l-0.00211,-0.00134c-0.01941,0.00134 -0.03045,0.00134 -0.03045,0.00134l-1.14943,-0.75l1.14943,-0.75c0,0 0.01105,0 0.03045,0.00134zM213.97314,71.95624l0.13769,-0.06949l1.34321,-0.66768l1.35893,-0.67527l1.38871,-0.61168l1.43978,-0.63019l1.44539,-0.32635l1.42193,-0.69458l1.71604,0.09195l0.71878,1.23196l0.01913,1.3591l-0.08742,0.88357l-0.14926,1.49256l-0.15373,1.52852l-0.27789,1.40183l-0.58516,2.94238l-0.28178,1.3984l-0.08021,1.77103l-0.81591,0.60487l-0.10332,1.19911l-0.20398,1.47599l-0.16448,1.48091l-0.1752,1.55294l-0.36892,1.30081l-0.39047,1.34027l0.00725,0.69482v1.5l-0.02006,0.9386l-0.42017,0.88098l-0.34611,1.03473l-0.15848,1.13082l-0.21143,1.47988l-0.15077,1.16864l-0.19195,1.48767l-0.19673,1.51939l-0.32449,1.49731l-0.31184,1.43211l-0.17798,1.45482l-0.18032,1.46399l-0.08661,1.52568l-0.30212,1.52017l-0.23709,1.23994l-0.2921,1.51961l-0.47872,1.47152l-0.46543,1.42596l-0.43773,1.31107l0.00931,1.38218v1.5l-0.00029,1.47919l0.04946,0.885l0.24962,4.49307l0.08071,1.46539l0.126,0.87705l0.42426,2.96985l0.21271,1.48907l0.19392,1.47489l0.58659,4.4616l0.17756,1.39534l0.38337,1.07451l0.64655,0.27801l0.64646,0.68339h1.5l0.79885,0.76628l1.28383,-0.05144l1.39174,0.23595l1.48624,0.25495l1.40963,0.2761l1.42846,-0.00342h6.51341l1.60403,0.00725l1.34172,0.37581l1.39266,0.39972l1.14672,0.16206l1.45001,0.20798l0.99838,0.05031l1.45358,0.33929l1.42451,0.03677l1.56257,0.04714l1.46026,0.29305l1.14066,-0.00365h7.24713l1.50397,0.00001l1.01131,0.0107l1.49992,0.01588l1.52435,0.01654l1.5201,0.11502l1.49569,0.11357l1.46732,0.11195l1.47159,-0.00054l1.60114,0.00685l0.89716,0.24171l1.44544,0.40087l1.48842,0.4142l1.42915,0.58693l1.47224,0.61261l1.43771,1.11344l0.51503,1.46782l-0.00773,1.10888l0.38314,0.83142l0.01741,1.66068l-0.02006,1.32769l0.38314,0.76628l0.02006,1.32174v28.00192l-0.00053,1.52816l-0.06372,0.85374l-0.33768,4.48731l-0.11694,1.53796l-0.28742,1.51538l-0.842,4.42052l-0.27481,1.43818l-0.10465,1.13473l-0.5555,5.97423l-0.14235,1.52415l-0.26564,1.50756l-0.26091,1.47714l-0.35445,1.72936l-1.20488,0.98861l-0.54797,1.47663l-1.56856,0.84537l-0.92938,0.44226l-0.9386,0.02006l-1.16954,-0.00027l-0.93193,-0.04976l-1.57334,-0.08831l-1.52537,-0.3955l-1.41991,-0.37256l-1.44675,-0.24871l-1.4782,-0.25483l-1.49515,-0.25795l-1.4818,-0.32601l-1.38478,-0.30935l-1.20617,-0.0264l-1.18199,0.76628l-1.71273,0.0308h-0.79885l-1.51536,-0.00016l-1.33517,-0.05455l-1.56512,-0.06709l-1.52989,-0.33695l-1.38361,-0.31204l-1.27874,0.00379l-1.5008,-0.00078l-1.50079,-0.00398l-1.53017,-0.00466l-1.52494,-0.12647l-1.49482,-0.12457l-1.46633,-0.12274l-1.23084,-0.00808l-1.58895,-0.01644l-1.62118,-0.40444l-0.66426,-0.35343l-0.6724,0.04953l-1.43745,0.05301l-1.47333,0.30293l-1.56506,0.04594l-1.46005,0.03913l-1.44759,0.19427l-1.47123,0.19622l-1.46165,0.25811l-2.95435,0.52136l-1.4435,0.25394l-1.28694,0.3518l-1.44715,0.39468l-1.33702,0.35518l-1.01768,0.67555l-1.36582,0.87959l-1.28609,0.26152l-0.1225,0.35357l0.02006,0.59397l0,22.22223l-0.00017,5.76524l-0.00004,1.50021l-0.00088,1.50021l-0.00176,3l-0.00088,1.50204l-0.00903,1.50201l-0.00902,1.49997l-0.0094,1.51975l-0.08898,1.51717l-0.17617,2.99482l-0.08907,1.51177l-0.11308,1.16179l-0.14549,1.49293l-0.14442,1.48094l-0.09661,1.48482l-0.19498,2.99366l-0.10087,1.53421l-0.25184,1.51676l-0.2466,1.47959l-0.24062,1.4358l-0.04463,0.97079l-0.28357,5.9933l-0.07805,1.57208l-0.4024,1.60622l-0.59515,1.07266l-1.35381,0.50946l-0.82136,0.40347l-0.92789,0.1631l-1.51367,0.25148l-1.19913,0.08743l-1.39537,0.27992l-1.21037,0.34646l-1.5443,0.43369l-0.90288,0.00725h-4.21456l-1.43814,-0.00256l-0.75782,0.12889l-1.54103,0.25425l-1.20269,0.00251l-0.75207,0.01267l-1.35491,0.34324l-1.34549,0.40336l-1.4682,0.02443l-1.2625,0.51964l-1.52919,0.59882l-1.6422,0.0136l-12,0l-3,0l-3,0l-3.00009,-0.00002l-1.50009,-0.00038l-1.50064,-0.00038l-1.50064,-0.00293l-1.50679,-0.00297l-1.50649,-0.0302l-2.9994,-0.06018l-1.5725,-0.0351l-1.53752,-0.3317l-1.3861,-0.30673l-1.41963,0.00432l-1.57934,-0.00421l-0.91923,-0.19351l-1.46643,-0.31557l-1.43987,-0.31035l-1.45864,-0.20474l-2.97074,-0.418l-1.51457,-0.2137l-1.49328,-0.33124l-1.53165,-0.34369l-1.36865,-0.58303l-1.39884,-0.59985l-1.08871,-0.66923l-0.05787,-1.44037l0.76628,-0.79885l-0.05226,-1.27338l0.17666,-1.24997l0.22109,-1.53528l0.36657,-1.28933l0.39658,-1.37714l0.075,-0.78004l0.14926,-1.49256l0.15889,-1.55882l0.36971,-1.30485l0.39047,-1.34027l-0.00725,-1.07797l0.00256,-1.56186l0.17068,-1.03963l0.7398,-4.43877l0.24522,-1.47098l0.16973,-1.18844l0.22109,-1.53528l0.36657,-1.28933l0.40135,-1.40012l0.15463,-0.95244l0.24015,-1.46625l0.18416,-1.47433l0.3721,-2.97683l0.18515,-1.48093l0.12319,-1.17762l0.31221,-2.98371l0.16719,-1.56382l0.45914,-1.50422l0.44113,-1.43367l0.44034,-1.43108l0.27389,-0.91358l1.2923,-4.31045l0.41757,-1.38654l0.21841,-1.43149l0.22809,-1.48256l0.23778,-1.53369l0.3006,-1.00828l0.43102,-1.43674l0.40734,-1.33014l-0.00795,-1.07308v-8.42912l0.0003,-1.47878l0.16946,-0.62552l-0.98489,0.20487h-4.98084l-1.39458,-0.00745l-1.32859,0.38619l-1.51336,0.03636l-1.37347,0.34813l-1.43448,0.35831l-1.29109,0.40277l-1.46984,0.45709l-1.57933,0.31349l-0.94709,0.01106l-1.41139,0.00623l-1.45824,0.36418l-1.46903,0.00562h-11.68199l-1.44653,-0.00191l-1.1125,0.16178l-1.48475,0.21334l-1.42746,0.20282l-1.37756,0.42558l-1.43386,0.44051l-1.54275,0.46527l-1.61136,0.00831h-15l-1.82489,-0.07402l-0.85628,-0.95186l-1.06191,-1.3997l-0.01342,-1.18393l0.3627,-1.44669l-0.00562,-0.70721v-22.5728l0.0018,-1.20135l0.18133,-1.31318l0.20181,-1.43395l-0.0018,-1.44808v-10.72797l0.00075,-1.53347l0.11788,-1.32505l0.13375,-1.49402l0.13151,-1.46062l-0.00075,-1.46653l0.00664,-1.59955l0.37986,-1.41806l0.39468,-1.44715l0.38221,-1.39386l0.12134,-1.0206l0.17998,-1.48916l0.18271,-1.50938l0.26395,-1.49731l0.52136,-2.95435l0.26372,-1.49339l0.23439,-1.05557l0.97619,-4.39284l0.32041,-1.43993l0.20335,-1.32695l0.24067,-1.54785l0.70673,-1.79243l1.78068,-0.53907l1.43185,-0.35756l0.94466,-0.30246l1.54157,-0.4835l1.61559,-0.00896h6.48084l1.5005,0l1.37667,0.00185l1.50253,0.01234l1.55872,0.01511l1.53796,0.25399l1.47959,0.2466l1.48148,0.24692l0.97713,0.16799l1.50583,0.25942l1.48252,0.37009l1.42791,0.35752l0.94772,0.1624l1.50583,0.25942l1.48252,0.37009l1.4151,0.35493l1.28545,0.17399l1.43576,0.19734l1.44926,-0.00172h3l1.53697,0.00091l0.92312,0.09044l1.49271,0.14772l1.45582,0.14499l1.46303,-0.00091h16.5l1.37986,0.00968l0.95966,-0.32581l0.4952,-0.22709l0.21974,-1.09727l-0.00562,-0.73978v-1.5l0,-1.50253l0.00538,-0.79974l0.0101,-1.49997l0.01068,-1.52487l0.11106,-1.52086l0.12483,-1.60081l0.51776,-1.38202l-0.00047,-1.37698l0.04053,-1.53801l0.16849,-1.52247l0.16229,-1.45097l0.00384,-1.23033l0.00751,-1.54509l0.1903,-1.53335l0.1881,-1.50358l0.1389,-0.83437l0.23972,-1.42688l0.01579,-0.75611l0.03723,-1.54192l0.20857,-1.52821l0.20294,-1.47804l0.1709,-1.48208l0.34374,-2.98024l0.16817,-1.44722l-0.00124,-1.45696v-5.29885l0.00725,-1.39597l-0.33259,-1.13769l-0.43369,-1.5443l-0.00725,-1.28602v-9.57854l0.00192,-1.55365l0.17171,-1.2045l0.42808,-2.9693l0.21564,-1.49521l0.25796,-1.48849l0.25621,-1.47796l0.28949,-1.60378l0.79873,-1.42054l0.79936,-1.38551l0.86212,-0.86988l0.77608,-0.62233l1.28675,-1.01308l1.45349,-0.46271l1.61415,-0.00874l1.62014,0.00968l1.14943,0.38314l0.67871,-0.00968l1.49931,0l1.05506,-0.00193l1.49795,-0.00274l1.47458,-0.0104l1.47308,-0.10295l1.49638,-0.1042l1.56352,-0.10587l1.55801,0.16847l1.45003,0.16074l1.46225,-0.00112l1.28432,0.01269l1.5315,0.19018l1.44199,0.18171l1.11719,-0.00131l1.00524,0.03841l1.65643,0.08042l1.32769,0.66738l0.97711,-0.02006h8.46169l1.53736,0.00093l0.88357,0.08742l1.49256,0.14926l1.45529,0.14646l0.92433,-0.00093l9.00005,0l2.48492,0.00033l1.50126,0.0002l1.50125,0.00525l1.54528,0.00678l1.53353,0.19031z" fill="#000000" stroke-width="0.5"/><path d="M208.87263,74.4388l-1.11908,0.65471l1.14998,0.75018c0,0 0.01106,0 0.03047,-0.00134l0.00211,0.00134l1.67297,-0.01984l0.94325,-0.44911l0.95718,-0.53627l1.04792,-1.05102l0.68796,-0.33569l0.74383,0.09234l0.84577,0.00157l1.50055,0.00021c0,0 0.71299,0.0929 0.71299,-0.6571c0,-0.75 -0.74962,-0.74985 -0.74962,-0.74985l-0.21401,-0.09317l0.38256,-0.19013l1.35733,-0.59708l1.30623,-0.57857l1.48052,-0.33809l1.26169,-0.64692l0.583,-0.09187l0.04756,0.30064l-0.019,0.93981l-0.08175,0.80908l-0.14908,1.49263l-0.1446,1.45667l-0.26536,1.33048l-0.58489,2.9425l-0.30323,1.54405l0.08045,1.22908l-0.80812,0.60557l-0.26463,1.68219l-0.20639,1.49588l-0.16661,1.50084l-0.15589,1.42881l-0.33939,1.17865l-0.43356,1.54436l-0.00708,0.90296l0.00029,1.50015l0.02019,0.59403l-0.34612,0.65158l-0.42008,1.26417l-0.18335,1.26341l-0.21261,1.49009l-0.15191,1.17884l-0.1917,1.4878l-0.18692,1.45608l-0.31202,1.43445l-0.32466,1.49967l-0.18764,1.52294l-0.18529,1.51378l-0.08021,1.46986l-0.28598,1.42171l-0.23807,1.2463l-0.27108,1.42716l-0.45197,1.38052l-0.46524,1.42608l-0.49292,1.54099l-0.00884,1.61812l0.00046,1.5003l0.00076,1.52113l0.05151,0.9268l0.25123,4.49423l0.08628,1.53043l0.13417,0.94169l0.42555,2.9709l0.21221,1.48134l0.19346,1.46717l0.58863,4.46356l0.21424,1.57984l0.7318,1.71201l0.88654,0.48887l0.95193,0.84999l1.5005,0.00061l0.79941,0.76699l1.7167,0.05214l1.26585,0.22037l1.47106,0.25285l1.53626,0.29432l1.5719,0.00397l6.51471,0.0021l1.39621,-0.00684l1.13797,0.3331l1.49226,0.42509l1.24765,0.1804l1.52011,0.2168l0.93375,0.04298l1.46848,0.34179l1.57447,0.04896l1.43638,0.03855l1.4817,0.29579l1.28859,0.00394l7.24776,0.00149l1.49614,0.00027l1.00344,0.01083l1.50002,0.01616l1.47558,0.01549l1.47141,0.11242l1.49581,0.11387l1.52417,0.11548l1.5285,0.00078l1.39893,-0.00664l0.69863,0.20104l1.44557,0.40126l1.40258,0.38792l1.34508,0.5556l1.30197,0.5299l0.96242,0.68698l0.25137,0.83141l0.00787,1.19047l0.38325,0.83182l-0.01726,1.33989l0.02025,1.67304l0.38323,0.76666l-0.01997,0.97754l0.00117,28.0149l0.0005,1.47253l-0.06057,0.79788l-0.33786,4.48943l-0.10826,1.45427l-0.274,1.43232l-0.84233,4.42263l-0.28666,1.50955l-0.11309,1.20643l-0.55614,5.97696l-0.13557,1.46362l-0.25636,1.44737l-0.26111,1.4778l-0.16754,1.22546l-1.13795,0.88594l-0.44989,1.35327l-1.11485,0.49664l-0.60327,0.32425l-0.594,-0.01998l-1.12938,0.00044l-0.89179,-0.04802l-1.42242,-0.07232l-1.37678,-0.36446l-1.48225,-0.38739l-1.50969,-0.2608l-1.47825,-0.25468l-1.4613,-0.25156l-1.44809,-0.31887l-1.54512,-0.33551l-1.79397,0.02676l-1.18224,0.76689l-1.28737,-0.03055l-0.79892,0.00017l-1.48478,0.00047l-1.30459,-0.05335l-1.43249,-0.05544l-1.39874,-0.31368l-1.54503,-0.33857l-1.44219,-0.00486l-1.49938,-0.00041l-1.49938,-0.00359l-1.47001,-0.0029l-1.46487,-0.12233l-1.495,-0.12421l-1.52351,-0.12602l-1.28813,-0.00919l-1.41121,-0.00415l-1.28938,-0.32294l-0.86833,-0.41281l-1.0469,0.01726l-1.56065,0.0634l-1.46547,0.30264l-1.43414,0.0371l-1.53921,0.04397l-1.52651,0.20336l-1.50289,0.20143l-1.49326,0.26402l-2.95556,0.52294l-1.51153,0.26825l-1.3543,0.36918l-1.44795,0.39558l-1.55819,0.43515l-1.22395,0.78882l-1.14691,0.76177l-1.62547,0.4671l-0.64474,1.17982l-0.02053,0.93898l-0.00846,22.22775l-0.00176,5.76601l-0.00043,1.49997l-0.00125,1.49996l-0.00247,3.00031l-0.00121,1.49811l-0.00935,1.49808l-0.00935,1.50011l-0.00895,1.48032l-0.08752,1.47779l-0.17682,2.99508l-0.08741,1.48317l-0.11082,1.1332l-0.14582,1.49304l-0.14688,1.50503l-0.09866,1.50894l-0.19554,2.99384l-0.09437,1.45953l-0.24167,1.44252l-0.24691,1.47969l-0.25289,1.52348l-0.05157,1.05897l-0.28443,5.99354l-0.06393,1.42462l-0.32549,1.30429l-0.17125,0.45993l-0.94545,0.25693l-0.71153,0.3629l-0.71093,0.11006l-1.44613,0.24187l-1.22364,0.09062l-1.54705,0.30857l-1.26961,0.36206l-1.34087,0.39058l-0.69512,-0.0072l-4.21637,0.00028l-1.56254,0.00264l-0.88109,0.14424l-1.41878,0.23902l-1.09664,-0.00246l-0.93562,0.02604l-1.55621,0.38442l-1.18131,0.36753l-1.53186,0.03589l-1.52248,0.59738l-1.25566,0.51819l-1.35839,-0.0136l-12.00521,-0.00024l-3.00128,-0.00014l-3.00127,-0.00018l-3.00116,-0.00022l-1.50053,-0.00049l-1.49998,-0.0005l-1.49997,-0.00306l-1.49381,-0.00302l-1.49351,-0.03013l-3.00059,-0.06049l-1.42746,-0.02523l-1.39415,-0.30774l-1.54563,-0.33274l-1.58098,-0.00451l-1.4212,0.00403l-0.76264,-0.16846l-1.46701,-0.31577l-1.49358,-0.321l-1.51267,-0.21347l-2.97185,-0.41844l-1.4567,-0.20453l-1.43583,-0.31978l-1.39744,-0.30733l-1.2384,-0.53429l-1.35914,-0.58216l-0.44402,-0.09714l0.10152,-0.18216l0.72276,-0.70882l0.05199,-1.72675l0.16523,-1.14423l0.20301,-1.43466l0.34175,-1.19013l0.42747,-1.50749l0.09413,-0.91264l0.14904,-1.49267l0.13941,-1.4264l0.3386,-1.17461l0.43355,-1.54437l0.00701,-1.28615l-0.00284,-1.43829l0.15526,-0.91682l0.73916,-4.43913l0.24776,-1.48833l0.1721,-1.20581l0.20294,-1.43471l0.3417,-1.19016l0.42264,-1.48456l0.171,-1.03798l0.24422,-1.4945l0.18766,-1.50268l0.3715,-2.97721l0.18663,-1.4961l0.12456,-1.19278l0.31152,-2.98417l0.14468,-1.42013l0.4229,-1.36327l0.44089,-1.43384l0.44167,-1.43643l0.27529,-0.91889l1.29147,-4.31106l0.44365,-1.48732l0.23734,-1.53395l0.22766,-1.48289l0.21797,-1.43177l0.27395,-0.90778l0.43067,-1.43703l0.45431,-1.54368l0.00744,-1.29135l-0.00357,-8.43262l-0.00098,-1.52198l-0.3006,-1.67434l-2.01594,-0.20589l-4.98241,-0.00208l-1.60585,0.00682l-1.3458,0.38841l-1.4862,0.03186l-1.53718,0.37914l-1.47614,0.36899l-1.33236,0.41472l-1.39438,0.43545l-1.3626,0.27456l-0.80557,0.00295l-1.5888,0.0177l-1.45233,0.36318l-1.28597,-0.006l-11.68358,-0.003l-1.55364,0.00156l-1.21899,0.17303l-1.48485,0.21312l-1.54214,0.22363l-1.4902,0.45534l-1.4339,0.44042l-1.325,0.41567l-1.38876,-0.00859l-15.00105,-0.00255l-1.17516,0.07388l-0.33486,-0.53721l-0.81235,-0.9434l0.05203,-0.50354l0.36472,-1.46427l0.0055,-0.89085l-0.0022,-22.58272l-0.00186,-1.09801l0.1705,-1.21039l0.21253,-1.53801l0.00175,-1.55266l-0.00008,-10.73308l-0.00072,-1.46723l0.11343,-1.25884l0.1338,-1.49474l0.13606,-1.52816l0.00082,-1.5342l-0.00656,-1.40111l0.34036,-1.22307l0.39477,-1.44785l0.40725,-1.50116l0.13852,-1.12925l0.18011,-1.48987l0.1774,-1.46964l0.25755,-1.45773l0.52168,-2.95574l0.25781,-1.46164l0.22771,-1.02377l0.97679,-4.39488l0.33061,-1.48932l0.21192,-1.37658l0.21489,-1.41801l0.26502,-1.04636l1.12985,-0.18879l1.47873,-0.37044l0.99108,-0.31674l1.31608,-0.43057l1.38451,0.00872l6.48136,-0.0012l1.49963,-0.0003l1.37064,0.00156l1.49751,0.012l1.44132,0.00923l1.42132,0.23901l1.4797,0.24638l1.47781,0.24606l0.97343,0.16719l1.45091,0.24866l1.428,0.35734l1.48262,0.3699l1.00285,0.17276l1.45093,0.24863l1.42802,0.35731l1.49545,0.37245l1.36669,0.18702l1.53696,0.2073l1.551,0.00125l3.00056,-0.00094l1.46332,-0.00139l0.8495,0.08473l1.49298,0.14729l1.52989,0.14999l1.53735,0.00035l16.50597,-0.00726l1.62099,-0.01052l1.34016,-0.44139l1.07704,-0.69478l0.50911,-1.81419l0.00608,-0.92342l0.00073,-1.50056l0.0007,-1.498l0.00572,-0.79495l0.01078,-1.50044l0.01016,-1.4755l0.10892,-1.47156l0.09509,-1.39156l0.52829,-1.43058l0.02467,-1.62329l0.03779,-1.4613l0.16341,-1.45952l0.16962,-1.53101l0.00671,-1.3105l0.00489,-1.45511l0.18235,-1.44375l0.18454,-1.47351l0.13449,-0.80429l0.25404,-1.53256l0.02228,-0.86235l0.03325,-1.45743l0.19989,-1.44412l0.20553,-1.49428l0.17328,-1.49833l0.34458,-2.98057l0.17599,-1.53317l0.00154,-1.54315l0.00097,-5.29919l-0.00698,-1.60412l-0.37578,-1.34173l-0.39045,-1.34028l0.00743,-1.07802l0.00139,-9.57897l-0.00173,-1.44641l0.16042,-1.09782l0.42863,-2.96945l0.21271,-1.47417l0.25474,-1.4675l0.25648,-1.47803l0.22318,-1.35219l0.6901,-1.18429l0.68946,-1.21932l0.67079,-0.66276l0.71309,-0.56879l1.05637,-0.86111l0.97606,-0.30366l1.38644,0.00863l1.38045,-0.00979l1.14989,0.38307l0.91938,0.00962l1.50133,-0.00009l1.05689,-0.00199l1.5027,-0.00283l1.52601,-0.01156l1.52035,-0.10553l1.49704,-0.10426l1.42987,-0.10259l1.4246,0.15973l1.53264,0.16746l1.53843,0.0011l1.19166,0.00937l1.44597,0.18192l1.53552,0.1904l1.18218,0.00132l0.97695,0.03759l1.34196,0.03455l1.35621,0.67429l1.32233,0.0201l8.46541,0.0004l1.46327,-0.00083l0.80939,0.0819l1.49321,0.14937l1.53049,0.15217l0.99947,0.00102l9.00366,0.0009l2.48581,0.00063l1.49932,0.00038l1.49931,0.00544l1.45526,0.00391l0.02677,0.10197l-0.4619,0.46058l-0.75298,0.40752l-0.58943,0.31713l-1.32716,-0.01989l-0.00211,0.00134c-0.01941,-0.00134 -0.03044,-0.00134 -0.03044,-0.00134z" fill="#a27070" stroke-width="0.5"/><path d="M192.07196,83.6179l-1.55906,0.00825l-1.2673,-0.12579l-0.96921,0.00092h-1.00629l-0.79619,-0.00115l-1.23554,-0.13878l-0.83959,-0.24468l-1.42257,0.00678l-1.50332,-0.10659l-0.94046,-0.02073l-0.30075,-0.07114l-0.02859,0.61976l-0.28319,1.41063l-0.11752,1.45186l-0.09031,1.09398l-0.26017,1.47316l-0.10241,1.45749l-0.10617,1.49624l-0.10857,1.52311l-0.21682,1.5115l-0.21347,1.48473l-0.12309,0.85378l-0.12238,1.47256l-0.12345,1.47945l-0.06224,1.48328l-0.06672,1.54769l-0.2653,1.52624l-0.25842,1.47757l-0.24513,1.39878l-0.36987,1.48146l-0.26626,1.065l-0.3829,1.45509l-0.25371,0.96259l-0.46765,1.39913l-0.26963,1.3995l-0.18369,1.49347l-0.29792,1.42776l-0.00776,0.98851l-0.12595,0.7118l0.92032,0.26016l1.25134,0.03966l1.33391,-0.3778l0.78805,-0.2167l1.37546,-0.55103l1.44651,-0.47736l1.08096,-0.35644l1.42188,-0.47396l0.86861,-0.28895l0.97654,-0.24224l0.96914,-0.40129l1.47259,-0.01276l0.67353,-0.11457l1.02419,-0.22212l1.02157,-0.49234l0.46907,-0.68949l0.60717,-1.2974l0.34674,-0.73242l0.41343,-1.34667l0.28402,-1.43381l0.269,-1.35181l0.20898,-1.4648l0.21213,-1.48492l0.2079,-1.45323l0.28883,-1.43424l0.06074,-1.45458l0.11842,-1.48202l0.01105,-1.47309l0.01199,-1.51454l0.07063,-1.51294l0.05828,-1.24212l0.13711,-1.51026l0.11346,-1.23954l-0.00077,-1.34966l0.00417,-1.0853l0.31817,-1.4973l0.11773,-1.44694l0.12325,-1.49493l0.0696,-0.84218l0.15001,-0.72515l-0.04939,-0.13226l-0.37546,0.16702l-1.57187,0.20608l-1.26612,-0.07686zM194.83874,82.21985l0.62203,-0.08449l1.13397,-0.08455l0.95689,1.1256l-0.10156,1.28743l-0.06668,0.81074l-0.12325,1.49493l-0.12877,1.54292l-0.31041,1.4361l0.00417,0.92728l-0.00077,1.41763l-0.11808,1.30737l-0.13449,1.47742l-0.05638,1.20923l-0.06955,1.48378l-0.01148,1.48536l-0.01243,1.52682l-0.11981,1.5085l-0.06876,1.54263l-0.29952,1.5075l-0.20144,1.41211l-0.21213,1.48492l-0.21529,1.50505l-0.2764,1.39188l-0.30089,1.50862l-0.46883,1.52066l-0.38845,0.82985l-0.67022,1.41706l-0.7888,1.07151l-1.49415,0.76552l-1.23996,0.28103l-0.83591,0.137l-1.29471,-0.01276l-0.79187,0.35343l-1.03603,0.26091l-0.81365,0.2718l-1.42417,0.47472l-1.08326,0.3572l-1.40259,0.46212l-1.40997,0.56314l-0.86746,0.24104l-1.5576,0.42168l-1.74688,-0.06371l-1.84892,-0.89369l-0.12595,-1.55236l0.0164,-1.14101l0.30914,-1.51018l0.18219,-1.48413l0.30031,-1.54587l0.48103,-1.44692l0.24067,-0.91606l0.38058,-1.44613l0.26399,-1.05602l0.35774,-1.42897l0.2349,-1.34589l0.25842,-1.47757l0.25154,-1.4289l0.05937,-1.44966l0.06385,-1.51407l0.12569,-1.51019l0.12676,-1.51708l0.12879,-0.89815l0.21347,-1.48473l0.21011,-1.45796l0.10378,-1.46936l0.10617,-1.49624l0.10994,-1.53499l0.26118,-1.48119l0.08301,-1.02459l0.1271,-1.53815l0.30516,-1.53112l0.47456,-1.39282l1.20868,-0.32271l1.1174,0.01824l1.48913,0.10602l1.57743,0.00678l0.92142,0.25846l1.02861,0.1128l0.71324,-0.00115h1.00629l1.04337,0.00092l1.26595,0.12565c0.22094,-0.25236 0.58376,-0.25236 0.58376,-0.25236l0.48874,0.03849l0.46753,0.15747l0.55881,-0.18627l1.50378,-0.00968c0,0 0.44637,0 0.65039,0.34436z" fill="#000000" stroke-width="0.5"/><path d="M192.86431,83.70177l1.26888,0.0781l1.5747,-0.20459l0.37596,-0.16673l0.04962,0.13239l-0.1495,0.72545l-0.06878,0.84269l-0.12166,1.49598l-0.116,1.44818l-0.31654,1.49858l-0.00241,1.08681l0.00313,1.35193l-0.11134,1.24186l-0.13435,1.51377l-0.05588,1.24581l-0.06784,1.51842l-0.00965,1.52121l-0.00961,1.48041l-0.11811,1.48983l-0.06162,1.46225l-0.29087,1.44164l-0.21083,1.45984l-0.21567,1.4906l-0.21263,1.46929l-0.27247,1.35525l-0.28749,1.43666l-0.4168,1.34899l-0.34878,0.73364l-0.61057,1.29915l-0.47116,0.69041l-1.02494,0.49359l-1.02737,0.22305l-0.67564,0.11507l-1.4772,0.01352l-0.97233,0.40156l-0.97964,0.2423l-0.87126,0.28886l-1.42596,0.47353l-1.08383,0.35593l-1.45002,0.4765l-1.37837,0.55011l-0.78965,0.21611l-1.3364,0.37676l-1.25381,-0.04086l-0.92224,-0.26122l0.12543,-0.7121l0.00668,-0.98916l0.29676,-1.42851l0.18207,-1.49461l0.2681,-1.40065l0.46631,-1.40022l0.25252,-0.96363l0.38086,-1.45704l0.26453,-1.06683l0.36716,-1.48476l0.24214,-1.40323l0.25527,-1.4838l0.26261,-1.53463l0.0655,-1.55808l0.06317,-1.49351l0.12626,-1.48883l0.12636,-1.48028l0.12574,-0.85757l0.21812,-1.48997l0.22125,-1.51535l0.11217,-1.52565l0.10919,-1.49802l0.10491,-1.45876l0.26277,-1.4743l0.09173,-1.09453l0.11917,-1.45244l0.285,-1.41119l0.02908,-0.6199l0.30143,0.07096l0.94277,0.02018l1.50714,0.10593l1.42635,-0.00714l0.84184,0.2446l1.23894,0.13885l0.79837,0.00132l1.00899,0.00034l0.97175,-0.00046l1.27058,0.12659l1.56278,-0.00705z" fill="#e4e4e4" stroke-width="0.5"/><path d="M257.50976,177.22689l-0.16662,-0.03622l-1.40935,-0.30661l-1.46154,-0.24336l-0.74505,-0.12525l-1.42663,-0.0835l-1.46851,0.03599l-1.50724,0.03624l-1.50767,0.00545l-1.49999,0.00538l-1.45536,0.00492l-1.51897,-0.07965l-0.89725,-0.04724l-1.52002,-0.10154l-1.50816,-0.17401l-0.9608,-0.11259l-1.47997,-0.36874l-1.3809,-0.25505l-1.40014,-0.12824l-1.49336,-0.34308l-0.89703,-0.16014l-0.81467,-0.11817l-1.20469,0.00189h-1.00629l-0.63723,-0.18642l0.05484,1.02082l-0.17863,1.35728l0.00158,1.4514v9.30818l-0.00065,0.73298l0.12455,1.49437l-0.05538,0.76509l0.22321,0.22345l0.5772,-0.05691l1.4823,-0.06462l1.37345,-0.05942l1.47155,-0.14745l1.00343,-0.10008l1.46288,-0.22533l1.51128,-0.23194l1.52459,-0.1157l1.49574,-0.11296l0.98986,-0.07422l1.52826,-0.00053h4.41195l1.51437,0.00014l1.51327,0.0579l1.48716,0.05713l1.48567,0.01035l1.2952,0.00028l0.75464,0l0.36042,0.11201l0.06824,-0.37694l0.32521,-1.3042l0.06368,-1.42455l0.07043,-1.47783l0.18908,-1.51717l0.18857,-1.50675l0.25757,-1.46554l0.11753,-1.26705l-0.0008,-0.7201l0.08874,-1.10861zM259.3374,177.4451c0.00228,0.02753 0.00347,0.05619 0.00347,0.08605c0,0.75 -0.75,0.75 -0.75,0.75l0.16445,-0.12596l-0.50949,0.233l0.08874,0.40082l-0.0008,0.78934l-0.12918,1.39676l-0.26094,1.48931l-0.18353,1.47008l-0.18302,1.45966l-0.06658,1.42012l-0.07799,1.5721l-0.4024,1.60623l-0.68647,1.1325l-1.14902,0.11201l-0.7548,0l-1.30047,-0.00029l-1.51425,-0.01073l-1.51063,-0.05784l-1.48453,-0.05707l-1.48563,0.00014h-4.41195l-1.47174,-0.00053l-0.93342,0.07103l-1.49574,0.11296l-1.4669,0.11022l-1.45384,0.22423l-1.50223,0.23085l-1.04291,0.10456l-1.51356,0.15106l-1.41554,0.06184l-1.51487,0.06569l-1.18381,-0.05691l-1.03466,-1.03441l-0.05781,-1.27671l-0.12459,-1.49527l-0.00065,-0.79532v-9.30818l0.00158,-1.5486l0.18807,-1.45408l0.44286,-1.95398l1.62692,-0.18642h1.00629l1.31103,0.00189l0.94634,0.1334l0.95967,0.17157l1.42981,0.3315l1.36716,0.12333l1.49484,0.27521l1.43046,0.35887l0.86441,0.09827l1.47202,0.17028l1.47333,0.09802l0.88677,0.04665l1.47688,0.07803l1.41323,-0.00536l1.49999,-0.00538l1.49231,-0.00531l1.49189,-0.03595l1.53062,-0.0362l1.56819,0.09267l0.82407,0.13627l1.49764,0.24983l1.44529,0.31396l1.46576,0.31864c0,0 0.73288,0.15932 0.57356,0.8922c-0.06123,0.28168 -0.2072,0.43156 -0.36371,0.50935z" fill="#000000" stroke-width="0.5"/><path d="M256.97053,177.66392l-0.08771,1.11194l0.00138,0.72244l-0.11678,1.27129l-0.25716,1.47071l-0.18873,1.51229l-0.18987,1.52275l-0.07173,1.48295l-0.06534,1.42909l-0.32717,1.30832l-0.06884,0.37803l-0.36056,-0.11177l-0.75533,0.00118l-1.29666,0.00197l-1.48785,-0.00741l-1.49001,-0.05387l-1.51726,-0.05414l-1.52006,0.00401l-4.43873,0.00763l-1.53893,-0.00067l-0.99595,0.07245l-1.50332,0.10949l-1.53038,0.11188l-1.51519,0.22861l-1.46565,0.22251l-1.00501,0.09824l-1.4734,0.14507l-1.37491,0.0573l-1.48353,0.06263l-0.57756,0.05628l-0.22365,-0.22424l0.05447,-0.76686l-0.12632,-1.49842l-0.0001,-0.73505l-0.00057,-9.33826l-0.00015,-1.45555l0.18028,-1.36103l-0.05361,-1.02318l0.63746,0.18602l1.00713,-0.00141l1.2059,-0.00376l0.81543,0.11708l0.89796,0.15889l1.49514,0.34089l1.40287,0.12531l1.38418,0.25208l1.48459,0.36534l0.9652,0.11004l1.51709,0.17046l1.53141,0.09962l0.90446,0.04739l1.53057,0.08215l1.46424,-0.00086l1.5067,-0.0007l1.51238,-0.00101l1.51043,-0.03246l1.4707,-0.03289l1.42837,0.08639l0.7459,0.12683l1.46285,0.24614l1.41036,0.30913l0.16672,0.0365z" fill="#e4e4e4" stroke-width="0.5"/><path d="M176.96792,235.10331l-0.51536,0.30418l-0.94449,0.1667l-1.31972,0.00256h-1.5l-1.45886,-0.00113l-1.44996,0.16091l-0.80639,0.08872l-1.47646,0.10482l-1.50067,0.245l-1.52399,0.02646l-1.2425,0.12178l-1.12481,0.21914l-0.99876,0.50052l-1.0221,0.20225l-0.28463,0.2268l0.17752,1.17062l0.11808,1.30737l0.00077,1.53399v4.5l-0.00065,0.76128l0.12263,1.4637l0.12457,1.49482l0.12649,1.5254l0.00281,1.53063l0.00151,1.06011l0,1.50054l-0.00132,1.5445l-0.18163,1.53378l-0.17654,1.47943l-0.1366,1.48365l-0.13759,1.49368l-0.12823,1.38305l-0.2837,1.51724l-0.30157,1.41812l-0.04086,0.81565l-0.12395,0.73554l-0.18085,0.20146l0.27948,-0.13202l1.31992,-0.32783l1.15037,-0.27315l1.44571,-0.48043l1.53335,-0.26711l0.85904,-0.14831l1.45445,-0.30633l0.95457,-0.20022l1.52201,-0.18337l1.48483,-0.17817l1.51384,-0.19956l1.4896,-0.07048l0.5904,-0.06432l0.57194,-0.49202l0.27321,-0.89972l0.24141,-1.33814l0.24192,-1.19113l-0.00365,-1.4261v-11.94969l0.00303,-1.08308l0.25539,-1.41743l0.12327,-1.36299l0.1246,-0.99438l0.08989,-1.51485l0.26142,-1.51979l0.15338,-0.87987l0.07519,-1.45364l0.0469,-0.89103l0.07486,-1.49715l0.05339,-1.05198zM178.51281,234.88722l-0.0559,0.38872l-0.04837,0.98321l-0.07496,1.49911l-0.047,0.89299l-0.08249,1.54222l-0.16591,0.96786l-0.24941,1.4364l-0.08628,1.47997l-0.12697,1.01819l-0.12831,1.40431l-0.24775,1.34987l0.00303,0.94837v11.94969l-0.00365,1.5739l-0.26123,1.32459l-0.26173,1.42915l-0.48151,1.36443l-1.18906,1.01741l-1.06653,0.19428l-1.50701,0.07215l-1.46026,0.19378l-1.4938,0.17927l-1.45662,0.17406l-0.88966,0.18804l-1.4812,0.31171l-0.88589,0.1532l-1.42284,0.2437l-1.40034,0.46826l-1.21423,0.28985l-1.59849,0.36704l-1.48152,-0.38359l-0.18085,-1.30798l0.12762,-0.7739l0.04468,-0.84755l0.31789,-1.51723l0.26917,-1.43138l0.12017,-1.31341l0.13759,-1.49368l0.13859,-1.5037l0.17879,-1.49945l0.17371,-1.4451l-0.00132,-1.4555l0,-1.49946l-0.00151,-1.05904l-0.00147,-1.46937l-0.12265,-1.46424l-0.12457,-1.49482l-0.12651,-1.52593l-0.00065,-0.82362v-4.5l0.00077,-1.46601l-0.11346,-1.23954l-0.09409,-1.81706l0.97323,-1.03107l1.24205,-0.30089l1.01382,-0.50577l1.39091,-0.284l1.37745,-0.13565l1.4756,-0.0229l1.45975,-0.24076l1.51591,-0.10892l0.7777,-0.08584l1.53199,-0.16768l1.54114,-0.00113h1.5l1.196,0.00256l0.56494,-0.08487l0.93964,-0.52149l1.32458,-0.02513c0,0 0.75,0 0.75,0.75c0,0.42577 -0.24171,0.60984 -0.45069,0.68941z" fill="#000000" stroke-width="0.5"/><path d="M176.98752,235.08825l-0.05231,1.05258l-0.07314,1.49817l-0.04577,0.89175l-0.07315,1.45506l-0.15225,0.88072l-0.25922,1.52162l-0.08698,1.51762l-0.12264,0.99652l-0.1203,1.36678l-0.25239,1.42223l-0.00061,1.08814l-0.01287,12.00592l0.0008,1.42846l-0.24465,1.1931l-0.24415,1.33985l-0.27518,0.9008l-0.57407,0.49307l-0.59208,0.06506l-1.49402,0.07209l-1.51881,0.20083l-1.48986,0.17892l-1.5272,0.18361l-0.95774,0.2001l-1.45903,0.30579l-0.8616,0.14782l-1.53759,0.26599l-1.44907,0.47925l-1.15285,0.2721l-1.32245,0.32659l-0.27991,0.13179l0.181,-0.20138l0.12338,-0.73584l0.03997,-0.81616l0.30038,-1.41883l0.28211,-1.51825l0.12622,-1.38447l0.1351,-1.49565l0.13375,-1.48626l0.17341,-1.48282l0.17806,-1.53858l-0.00251,-1.55151l-0.00292,-1.50908l-0.00269,-1.06695l-0.00278,-1.54091l-0.12457,-1.53479l-0.12154,-1.50241l-0.11925,-1.46949l0.00253,-0.76388l0.00981,-4.50958l0.00184,-1.53579l-0.11641,-1.3084l-0.17637,-1.17128l0.28558,-0.22731l1.02483,-0.20359l1.00188,-0.5018l1.12809,-0.22023l1.24617,-0.12272l1.52862,-0.02723l1.50538,-0.24533l1.48102,-0.10472l0.80881,-0.08849l1.45415,-0.16024l1.46292,0.00213l1.50388,0.00131l1.32285,-0.00123l0.94638,-0.16578l0.51609,-0.30379z" fill="#e4e4e4" stroke-width="0.5"/><path d="M115.93483,185.85163l-0.7681,-0.0403l-0.91532,-0.04854l-1.51336,-0.17425l-1.42882,-0.1674l-1.43674,0.07307l-1.49819,0.07357l-1.39385,0.0667l-1.4238,0.26873l-1.47431,0.27643l-1.09605,0.20524l-1.50643,0.20112l-2.97368,0.39649l-1.21209,0.16151l-1.50482,0.15058l-1.06044,0.10511l-1.53736,0.00093l-1.52846,-0.00054l-1.49918,-0.11388l-1.26203,-0.01137l-1.53764,-0.00112l-1.14151,-0.12579l-0.93101,-0.00449l-1.00629,-0.25157l-0.97651,0.00306l-0.75472,-0.12579l-0.77717,0.00141l-0.70204,-0.03982l0.01724,0.2916l0.00733,1.20408l0.22992,1.4221l0.24149,1.51392l0.10857,1.52755l0.11211,1.49415l0.06283,0.83736l0.11655,1.52118l0.01042,1.52851l0.00096,1.50244l-0.00039,1.19002l-0.10011,1.5052l-0.02857,1.18171l-0.22995,0.29752l0.636,0.02865l1.37977,0.09303l1.47406,0.0126l1.49755,0.00338l1.03762,0.00234l1.49915,0h0.88994l1.44505,0.00202l1.42923,-0.21319l1.48815,-0.21984l1.49056,-0.2028l0.84749,-0.11524l1.18257,-0.1303l1.46811,0.00245l1.2673,-0.25157l0.91651,-0.00267l1.17635,-0.11724l1.1079,-0.24728l0.83591,-0.137l0.73474,0.00192l1.07086,-0.24228l0.83591,-0.137l0.86846,0.00109l1.20514,-0.24446l0.95396,-0.13467l0.93367,-0.00189h1.76101l0.99189,0.03849l1.1172,0.8019l0.11962,0.223l0.07427,-0.53701l0.18556,-1.36736l0.15958,-1.10369l-0.00189,-1.44683v-2.38994l0.00063,-1.46921l-0.12299,-1.49364l-0.00343,-0.81886l0,-0.88181v-0.75472l0.00115,-0.79619l0.12579,-1.13208l0.00141,-1.02667l0.13205,-0.80755zM117.4444,185.89117l-0.12493,0.87416l-0.11952,0.70189l0.00141,0.9859l-0.12579,1.13208l0.00115,0.71324v0.75472l0,0.8792l0.00206,0.75729l0.1231,1.49625l0.00063,1.53079v2.38994l-0.00189,1.55317l-0.17088,1.20948l-0.23871,1.60248l-0.93202,1.47557l-1.38981,-0.28015l-0.89538,-0.70754l-0.51755,0.03849h-1.76101l-0.82734,-0.00189l-0.80704,0.11691l-1.31058,0.25869l-0.89255,0.00109l-0.67353,0.11457l-1.19329,0.26086l-0.77469,0.00192l-0.67353,0.11457l-1.15625,0.25586l-1.33937,0.13434l-0.84449,-0.00267l-1.2673,0.25157l-1.53189,0.00245l-1.08158,0.12127l-0.82923,0.11287l-1.48205,0.20162l-1.47964,0.21861l-1.53855,0.22526l-1.55495,0.00202h-0.88994l-1.50085,0l-1.03931,-0.00235l-1.50245,-0.00339l-1.52583,-0.01378l-1.61261,-0.12071l-1.62815,-0.72607l0.02162,-1.21192l0.02345,-1.10796l0.09945,-1.48816l-0.00044,-1.13963l-0.00095,-1.49756l-0.00912,-1.47143l-0.11354,-1.46999l-0.06293,-0.83876l-0.11235,-1.49744l-0.1027,-1.465l-0.23248,-1.44841l-0.24405,-1.54022l0.00733,-1.56322l0.52038,-1.21783l1.56211,-0.29139l0.98384,0.00141l0.75472,0.12579l1.03607,0.00306l1.00629,0.25157l0.83,-0.00449l1.14151,0.12579l1.46236,-0.00112l1.31893,0.01272l1.49218,0.1136l1.47154,-0.00054l1.46264,0.00093l0.9859,-0.09953l1.4803,-0.14793l1.18762,-0.15845l2.97368,-0.39649l1.46725,-0.19537l1.05704,-0.19846l1.47431,-0.27643l1.52482,-0.28413l1.49569,-0.07519l1.49819,-0.07357l1.55965,-0.07407l1.55141,0.17647l1.46687,0.16962l0.86871,0.04536l1.47822,0.07806l0.86079,-0.00026c0,0 0.75,0 0.75,0.75c0,0.75 -0.75,0.75 -0.75,0.75z" fill="#000000" stroke-width="0.5"/><path d="M115.88238,186.51474l-0.13132,0.8092l-0.00046,1.02907l-0.12488,1.13479l-0.00057,0.79828l0.00048,0.75676l0.00046,0.88426l0.00375,0.82119l0.12328,1.49799l-0.00071,1.47348l-0.00088,2.3967l0.00095,1.45069l-0.1605,1.1066l-0.1869,1.37078l-0.07485,0.53829l-0.21026,-0.26525l-1.02607,-0.76072l-0.99236,-0.03745l-1.76217,0.00231l-0.93445,0.0033l-0.95515,0.13663l-1.20715,0.24737l-0.86986,0.0007l-0.83782,0.13921l-1.07398,0.24538l-0.73684,-0.00012l-0.83903,0.13935l-1.11288,0.25031l-1.18211,0.11985l-0.92139,0.00423l-1.27486,0.25297l-1.47685,-0.00229l-1.18928,0.12937l-0.85184,0.11413l-1.49715,0.20027l-1.49336,0.21702l-1.43315,0.21049l-1.44858,-0.00497l-0.89173,-0.00173l-1.50165,-0.00273l-1.03903,-0.00408l-1.49922,-0.00566l-1.47538,-0.01462l-1.38087,-0.0949l-0.63642,-0.02942l0.22976,-0.29788l0.02732,-1.18424l0.09867,-1.50868l-0.00063,-1.1931l-0.002,-1.50658l-0.01113,-1.53296l-0.11686,-1.52575l-0.06282,-0.83986l-0.11179,-1.49854l-0.10788,-1.53185l-0.24052,-1.51781l-0.22883,-1.42543l-0.00622,-1.20683l-0.01696,-0.29222l0.70233,0.03919l0.77757,-0.00225l0.75501,0.12521l0.97716,-0.00428l1.00671,0.25082l0.93181,0.00313l1.14249,0.12425l1.53967,-0.00173l1.2642,0.00874l1.50235,0.11061l1.53322,-0.00342l1.54382,-0.00495l1.06621,-0.10766l1.51416,-0.15304l1.22005,-0.16215l2.99097,-0.3934l1.51295,-0.19817l1.09971,-0.20305l1.47819,-0.2736l1.42666,-0.26624l1.39639,-0.06413l1.50034,-0.07108l1.43836,-0.07095l1.43044,0.16978l1.51472,0.17653l0.91594,0.04968l0.76857,0.04119z" fill="#e4e4e4" stroke-width="0.5"/></g></g></svg>