<svg version="1.1" xmlns="http://www.w3.org/2000/svg" xmlns:xlink="http://www.w3.org/1999/xlink" width="324.57927" height="71.41989" viewBox="0,0,324.57927,71.41989"><g transform="translate(-29.2853,-126.86014)"><g stroke="none" stroke-miterlimit="10"><path d="M82.3096,130.28978l0.13898,-0.02678l1.18249,0.07532l2.49339,0.2504l2.36473,0.13832l1.4875,0.27348c0,0 0.95845,0.17467 1.3373,-0.62939l0.30073,-0.06662l1.41833,0.00829l1.84811,0.02106l2.4954,0.2637l2.27291,0.00062l2.31021,-0.28567l2.19366,-0.13594l2.20815,-0.00931l0.8338,0.06159l0.08796,1.04318l0.12561,1.26761l-0.00084,1.41141l0.00328,6.47764l0.00085,1.69925l-0.01728,2.37759l-0.01791,2.48122l-0.10316,2.50534l0.00052,2.15676l0.00172,1.33519l0.14886,1.64535l0.28091,2.09677l0.04928,1.41575l0.08891,2.47932l-0.00013,1.61431l-0.00082,7.50967l-0.00061,2.51504l0.03915,2.08318l0.04698,2.50231l0.04687,2.45542l-0.1381,2.45197l-0.13973,2.49533l-0.13347,2.18551l-0.14491,2.41606l-0.36445,1.86485l-0.45394,2.36037l-0.13057,0.90789l-0.71413,-0.11943l-1.31817,-0.00025l-2.185,-0.1351l-2.08016,-0.28606l-2.5879,-0.00146l-1.38387,0.00135l-2.46771,-0.14043l-2.53805,0.00107l-1.34454,0.0026l-1.33227,0.14278l-2.53945,0.00404l-1.76116,0.29083l-1.4592,0.13376l-1.24916,-0.00183l-2.49989,-0.00116l-2.48439,-0.01519l-2.45264,-0.07632l-2.41541,-0.20802l-2.43151,-0.38913l-1.74744,-0.264l-1.37278,-0.44474l-2.19016,-0.01669l-1.56318,-0.00054l-1.75348,0.00021l-2.02428,0.15445l-2.49827,0.20661l-2.503,0.20697l-2.34043,0.2266l-2.49525,0.24165l-2.49304,0.26077l-2.51359,0.26325l-2.37758,0.34793l-2.49117,0.36503l-1.4006,0.24334l-2.46391,0.42833l-2.29459,0.41072l-1.42969,0.26723l0.51352,-0.40793l0.00592,-1.51156l0.13528,-1.90487l0.28084,-2.11164l0.1804,-1.80912l0.38636,-2.46391l0.28778,-2.58343l0.00068,-2.57249l-0.00118,-2.50257l-0.00251,-1.35119l0.14138,-1.27835l0.00105,-2.25397l-0.00442,-2.40768l0.27945,-1.80534l0.14599,-2.18179l0.10525,-1.47817l0.17851,-2.50495l0.14379,-2.45117l0.03414,-2.45622l0.25137,-2.55961l-0.23409,-2.51639l-0.23474,-2.45692l-0.09684,-2.46169l-0.05865,-1.8093l-0.08053,-2.48054l0.00129,-2.46277l0.0669,-2.16627l0.07753,-2.51978l0.00062,-2.38809l0.11619,-1.77152l0.19224,-0.90241l1.01965,-0.13366l1.75046,-0.40679l1.19338,-0.13119l1.54062,-0.14088l1.78915,-0.13953l1.53496,-0.01065l2.39249,-0.63533l2.32941,-0.20973l1.77074,-0.00583l1.42038,-0.28467l1.49572,0.00397l1.56249,-0.14275l1.78989,0.00037l6.10887,-0.00254l2.07925,-0.00168l1.60984,0.13394l1.89527,0.28825l1.82518,0.01377l2.45967,0.12964l2.03042,0.14377l2.54754,0.00176l2.46402,0.00251l2.45942,0.15724l0.42341,0.02695c0.36549,0.14247 0.73058,0.08215 0.73058,0.08215z" fill="#ffffff" stroke-width="0.5"/><text transform="translate(120.34718,147.98359) scale(0.5,0.5)" font-size="40" xml:space="preserve" fill="#ffffff" stroke-width="1" font-family="&quot;RifficFree-Bold&quot;, Sans Serif" font-weight="normal" text-anchor="start"><tspan x="0" dy="0">facebook</tspan></text><text transform="translate(116.64896,177.5694) scale(0.5,0.5)" font-size="40" xml:space="preserve" fill="#ffffff" stroke-width="1" font-family="&quot;segoeuib&quot;, Sans Serif" font-weight="normal" text-anchor="start"><tspan x="0" dy="0">RealXin Hands Off - Page</tspan></text><path d="M74.16463,197.1407c-1.05451,0.13181 -1.32457,-0.74496 -1.38182,-1.01064l-1.43446,-0.12437l-2.50964,-0.40072l-1.94444,-0.30366l-1.18346,-0.40679l-1.78615,0.01614h-1.56072l-1.65439,-0.00093l-1.91773,0.14923l-2.48765,0.20731l-2.4826,0.20685l-2.32053,0.22631l-2.48343,0.24216l-2.48149,0.26122l-2.46073,0.25876l-2.3252,0.3422l-2.45696,0.36121l-1.36713,0.23848l-2.46285,0.42942l-2.63197,0.44716l-3.54598,-0.76531l0.05404,-2.14597l-0.00667,-1.32701l0.14758,-2.06901l0.28573,-2.14616l0.18484,-1.83702l0.38947,-2.47709l0.27051,-2.38725l-0.00196,-2.42995v-2.5l0.00192,-1.48797l0.14188,-1.27696l-0.00191,-2.11306l0.00364,-2.59531l0.28763,-1.88591l0.13735,-2.07764l0.10586,-1.48207l0.17759,-2.48582l0.14007,-2.37634l0.0362,-2.50389l0.24674,-2.41909l-0.22345,-2.26956l-0.2413,-2.52321l-0.10196,-2.53709l-0.05979,-1.81621l-0.08275,-2.5192l-0.00003,-2.5395l0.06659,-2.20225l0.0753,-2.47992l0.00065,-2.43766l0.16856,-2.20244l0.94339,-2.21969l2.10236,-0.71827l1.93963,-0.4457l1.36126,-0.15331l1.58182,-0.14383l1.90105,-0.14534l1.30378,0.00976l2.27834,-0.61631l2.65211,-0.24439l1.63609,0.0048l1.41884,-0.28377l1.62725,-0.0048l1.56072,-0.14189l1.90114,-0.00128h6.10102l2.18021,0.00108l1.79769,0.14948l1.79649,0.27902l1.69754,0.00709l2.53717,0.13325l1.96186,0.14029l2.45621,-0.00044l2.53944,0.00297l2.53391,0.1599l1.05373,0.06686l0.5865,-0.08818l1.31856,0.0007l2.20581,0.14688l2.22867,0.28049l1.34665,0.00505l1.27696,-0.28377l1.70433,-0.00745l1.97765,0.02416l2.47907,0.26131l1.98507,0.0007l2.23126,-0.28074l2.34771,-0.14673l2.61695,0.01046l2.28804,0.79016l0.76391,2.3627l0.15884,1.57092l0.00155,1.53502v6.47276l-0.00001,1.70745l-0.01847,2.38506l-0.01971,2.52111l-0.10397,2.49299l0.00027,2.10224l-0.00128,1.22031l0.13539,1.47815l0.28713,2.16245l0.05628,1.53477l0.08982,2.52071l0.0002,1.65681v7.5l-0.00006,2.48802l0.03947,2.0568l0.04791,2.49954l0.04793,2.5462l-0.14039,2.54279l-0.13885,2.49929l-0.13272,2.1899l-0.15883,2.57671l-0.38914,2.02458l-0.49756,2.55031l-1.00503,2.21418l-2.12381,0.40349l-1.52012,0.00095l-2.35631,-0.14756l-2.00142,-0.28047l-2.4137,0.00298l-1.45476,-0.00052l-2.46595,-0.14189l-2.46408,0.00052l-1.21061,-0.00176l-1.33088,0.14188l-2.46325,-0.0025l-1.64626,0.27782l-1.66411,0.15084l-1.36201,0.00005l-2.50351,-0.00234l-2.5191,-0.01656l-1.25926,-0.03997c-0.09209,0.35873 -0.34939,0.7846 -1.04281,0.87128zM72.6127,193.2564l0.00079,-1.36653l0.14689,-2.0564l-0.00079,-1.4243l0,-2.05536l-0.00417,-2.4899l-0.01737,-2.46976l-0.12072,-2.42506l-0.28614,-2.32187l-0.30931,-2.52283l-0.14313,-2.57243l0.02207,-2.0337l1.05804,-2.22722l2.0098,-0.40023l2.56619,-0.00191l2.44511,0.00108l1.71363,-0.14388l1.88773,-0.14716l2.32682,-0.40965l1.19701,-0.11499l-0.22837,-1.07335l0.45362,-1.3899l0.12411,-1.17943l0.14621,-1.60891l0.14814,-1.4813l0.15473,-0.99929l-0.03344,-0.46533l-0.64083,0.20188h-2.79083l-1.728,-0.01325l-1.38164,0.42468l-2.15188,0.31093l-1.93513,0.26523l-2.5637,0.33175l-1.54987,0.00263l-2.64652,-0.36612l-0.36612,-2.49963l0.02723,-2.31589l0.80784,-1.80918l1.18136,-1.05178l1.1894,-1.1546l1.72703,-0.71772l1.50059,-0.4914l1.96202,-0.17133l2.30387,0.02319l0.96771,-0.20208l-0.20802,-1.13838l0.14689,-1.32197l-0.00189,-1.70179l0.02006,-1.40344l0.27919,-2.29008l0.01701,-0.95298l-0.70575,0.46392l-1.59203,0.00608h-2.93772l-1.26675,-0.00122l-1.68255,0.14714l-2.37733,0.56222l-1.44983,0.24705l-1.18501,0.67603l-1.32631,0.5897l-1.48409,0.80602l-1.14923,0.89181l-0.8826,1.01124l-0.59922,0.94532l-0.35867,1.22216l-0.26769,1.87628l0.00186,1.17672l0.14251,1.55361l0.14413,1.44282l0.30103,2.40191l-0.76045,2.24322l-2.03501,0.27303l-1.3911,0.1488l-1.49381,-0.15875l-1.58161,-0.28194l-1.51268,0.28875l-2.46243,0.00505l-2.01185,-0.00079l-1.45641,-0.03131l-0.18955,0.48848l-0.08701,1.86049l0.00068,1.28613l-0.01992,1.99099l-0.39869,1.86527l0.33427,0.06177l1.12227,-0.1781l1.38424,-0.00155l1.91496,0.00803l1.8349,-0.42987l1.83547,-0.22417l2.40687,-0.3602l2.0015,-0.45462l2.30981,0.32212l0.54942,2.63054l0.00108,1.37392v3.52526l-0.00069,2.16169l0.14689,2.20329v1.32197l0.14689,2.20329l0.00069,1.36063l-0.00426,2.3969l0.29396,1.76498l-0.00466,2.40655l-0.07004,2.66569l-0.4987,1.82089h0.25904l2.18661,0.01614l1.37045,0.44452l1.74455,0.26388l2.42757,0.38923l0.95882,0.08287zM61.69126,190.22409l0.04337,-2.33303l0.01257,-2.17198l-0.29358,-1.76029l-0.00426,-2.6031l0.00069,-1.27744l-0.14689,-2.20329v-1.32197l-0.14689,-2.20329l-0.00069,-2.24489v-3.52526l0.00108,-1.27003l0.25565,-0.89473l-0.33414,0.32212l-1.81754,0.4267l-2.53782,0.38151l-1.73924,0.20921l-1.98414,0.45144l-2.19785,0.00803l-1.25971,-0.00155l-1.81545,0.11567l-2.01591,-1.40709l0.15346,-3.10415l0.01546,-1.85276l0.00068,-1.35782l0.20677,-2.54609l1.27931,-1.8617l2.65639,-0.32508l2.10096,-0.00079l2.23792,0.00505l1.71881,-0.29879l1.94366,0.30561l1.15014,0.13502l1.25285,-0.14497l0.60894,0.27303l-0.17291,-0.40073l-0.28651,-2.00467l-0.14965,-1.4949l-0.15126,-1.67788l0.00186,-1.46723l0.31986,-2.23652l0.52265,-1.71556l0.86964,-1.40486l1.1738,-1.33893l1.49472,-1.1646l1.74741,-0.95661l1.31763,-0.58539l1.45894,-0.79283l1.78166,-0.34049l2.48975,-0.58298l1.96975,-0.17653l1.3772,-0.00122h2.93772l1.34569,0.00608l2.23197,-0.12363l1.1921,2.86606l-0.27297,2.67934l-0.01532,1.26522l-0.00189,1.82347l-0.14689,1.32197l-0.20802,2.38688l-2.55755,1.26678l-2.69026,0.02319l-1.56325,0.12244l-1.14336,0.38992l-1.21069,0.45736l-0.867,0.9018l-0.87504,0.71086l-0.36725,0.83477l0.02723,1.79691l-0.36612,0.73186l0.87875,-0.36612l1.38785,0.00263l2.3943,-0.31494l1.92003,-0.26316l1.96093,-0.27661l1.55608,-0.45664l2.09103,-0.01325h2.79083l2.00312,0.20188l1.14165,2.17862l-0.13904,1.64466l-0.14564,1.45642l-0.14756,1.62258l-0.16966,1.46452l-0.4277,1.25405l-0.22837,2.15815l-2.62202,1.0601l-2.59709,0.45928l-2.00152,0.159l-1.81164,0.14989l-2.54901,0.00108l-2.42794,-0.00191l-0.63415,-0.10645l-0.11705,0.7105l0.02207,1.49157l0.13422,2.41987l0.30052,2.43984l0.29554,2.41176l0.12897,2.56871l0.01836,2.53011l0.00419,2.49884l0,2.05745l-0.00079,1.51342l-0.14689,2.0564l0.00079,1.27742v0.50942l1.40169,0.04407l2.48079,0.01613l2.49649,0.00232l1.24756,0.00247l1.45735,-0.13293l1.75896,-0.28972l2.53675,-0.0025l1.33088,-0.14188l1.34331,-0.00177l2.53592,0.00052l2.46594,0.14189l1.38293,-0.00052l2.5863,0.00298l2.07917,0.28707l2.18398,0.13621l1.31757,0.00095l0.71388,0.11973l0.13005,-0.90727l0.45255,-2.35859l0.36336,-1.86334l0.14364,-2.41413l0.13235,-2.18362l0.1385,-2.49301l0.13696,-2.44952l-0.04788,-2.45288l-0.04791,-2.49954l-0.03982,-2.08075l-0.00006,-2.51198v-7.5l0.0002,-1.6122l-0.08863,-2.4761l-0.04904,-1.41393l-0.28041,-2.09408l-0.14838,-1.6433l-0.00128,-1.3336l0.00027,-2.15429l0.10419,-2.50268l0.01902,-2.47874l0.01841,-2.37538l-0.00001,-1.69777v-6.47276l0.00156,-1.41049l-0.12493,-1.26677l-0.0874,-1.04252l-0.8334,-0.06115l-2.20711,0.01046l-2.19259,0.13705l-2.30904,0.2868l-2.27145,0.0007l-2.49346,-0.26211l-1.84664,-0.01996l-1.41712,-0.00744l-0.30051,0.06678c-0.37885,0.80406 -1.33646,0.62994 -1.33646,0.62994l-1.48589,-0.27249l-2.36217,-0.13692l-2.4904,-0.24899l-1.18101,-0.07471l-0.13882,0.02685c0,0 -0.36414,0.06069 -0.72962,-0.08178l-0.00004,-0.00008l-0.42285,-0.02675l-2.45609,-0.15619l-2.46055,-0.00168l-2.5438,-0.00114l-2.02734,-0.14348l-2.45593,-0.12955l-1.82242,-0.01388l-1.8925,-0.28851l-1.60753,-0.13429l-2.07632,0.00108h-6.10102l-1.78785,-0.00128l-1.56073,0.14188l-1.49419,-0.0048l-1.41884,0.28377l-1.76914,0.0048l-2.32735,0.20828l-2.39032,0.63363l-1.5339,0.00976l-1.78795,0.13842l-1.53963,0.13994l-1.19266,0.13046l-1.74936,0.40561l-1.0191,0.13304l-0.19168,0.90176l-0.11521,1.77032l0.00066,2.38641l-0.07615,2.51778l-0.06573,2.1644l-0.00003,2.4605l0.08174,2.47809l0.05949,1.80738l0.09788,2.45891l0.23564,2.454l0.23484,2.51319l-0.25078,2.55609l-0.03382,2.45281l-0.1437,2.44772l-0.17865,2.50147l-0.10544,1.47616l-0.14642,2.1789l-0.2799,1.80307l0.00364,2.40469l-0.00192,2.25131l-0.14188,1.27696l0.00191,1.34972v2.5l-0.00196,2.57005l-0.28902,2.58135l-0.3875,2.46218l-0.18127,1.8079l-0.2818,2.11037l-0.1362,1.90374l-0.00667,1.51068l-0.5135,0.40795l1.4292,-0.26779l2.29372,-0.41167l2.46285,-0.42942l1.39995,-0.24398l2.48983,-0.36626l2.37614,-0.34916l2.5118,-0.26467l2.49103,-0.2622l2.49297,-0.24311l2.33804,-0.22796l2.50012,-0.20837l2.49508,-0.20792l2.02146,-0.15539l0.46087,-0.00024z" fill="#000000" stroke-width="0.5"/></g></g></svg>