<svg version="1.1" xmlns="http://www.w3.org/2000/svg" xmlns:xlink="http://www.w3.org/1999/xlink" width="535.72301" height="71.41989" viewBox="0,0,535.72301,71.41989"><g transform="translate(-29.2853,-126.86014)"><g stroke="none" stroke-miterlimit="10"><path d="M81.56175,130.25456l-0.42285,-0.02675l-2.45609,-0.15619l-2.46055,-0.00168l-2.5438,-0.00114l-2.02734,-0.14348l-2.45593,-0.12955l-1.82242,-0.01388l-1.8925,-0.28851l-1.60753,-0.13429l-2.07632,0.00108h-6.10102l-1.78785,-0.00128l-1.56073,0.14188l-1.49419,-0.0048l-1.41884,0.28377l-1.76914,0.0048l-2.32735,0.20828l-2.39032,0.63363l-1.5339,0.00976l-1.78795,0.13842l-1.53963,0.13994l-1.19266,0.13046l-1.74936,0.40561l-1.0191,0.13304l-0.19168,0.90176l-0.11521,1.77032l0.00066,2.38641l-0.07615,2.51778l-0.06573,2.1644l-0.00003,2.4605l0.08174,2.47809l0.05949,1.80738l0.09788,2.45891l0.23564,2.454l0.23484,2.51319l-0.25078,2.55609l-0.03382,2.45281l-0.1437,2.44772l-0.17865,2.50147l-0.10544,1.47616l-0.14642,2.1789l-0.2799,1.80307l0.00364,2.40469l-0.00192,2.25131l-0.14188,1.27696l0.00191,1.34972v2.5l-0.00196,2.57005l-0.28902,2.58135l-0.3875,2.46218l-0.18127,1.8079l-0.2818,2.11037l-0.1362,1.90374l-0.00667,1.51068l-0.5135,0.40795l1.4292,-0.26779l2.29372,-0.41167l2.46285,-0.42942l1.39995,-0.24398l2.48983,-0.36626l2.37614,-0.34916l2.5118,-0.26467l2.49103,-0.2622l2.49297,-0.24311l2.33804,-0.22796l2.50012,-0.20837l2.49508,-0.20792l2.02146,-0.15539l1.75084,-0.00093h1.56072l2.18661,0.01614l1.37045,0.44452l1.74455,0.26388l2.42757,0.38923l2.4116,0.20842l2.44891,0.077l2.48079,0.01613l2.49649,0.00232l1.24756,0.00247l1.45735,-0.13293l1.75896,-0.28972l2.53675,-0.0025l1.33088,-0.14188l1.34331,-0.00177l2.53592,0.00052l2.46594,0.14189l1.38293,-0.00052l2.5863,0.00298l2.07917,0.28707l2.18398,0.13621l1.31757,0.00095l0.71388,0.11973l0.13005,-0.90727l0.45255,-2.35859l0.36336,-1.86334l0.14364,-2.41413l0.13235,-2.18362l0.1385,-2.49301l0.13696,-2.44952l-0.04788,-2.45288l-0.04791,-2.49954l-0.03982,-2.08075l-0.00006,-2.51198v-7.5l0.0002,-1.6122l-0.08863,-2.4761l-0.04904,-1.41393l-0.28041,-2.09408l-0.14838,-1.6433l-0.00128,-1.3336l0.00027,-2.15429l0.10419,-2.50268l0.01902,-2.47874l0.01841,-2.37538l-0.00001,-1.69777v-6.47276l0.00156,-1.41049l-0.12493,-1.26677l-0.0874,-1.04252l-0.8334,-0.06115l-2.20711,0.01046l-2.19259,0.13705l-2.30904,0.2868l-2.27145,0.0007l-2.49346,-0.26211l-1.84664,-0.01996l-1.41712,-0.00744l-0.30051,0.06678c-0.37885,0.80406 -1.33646,0.62994 -1.33646,0.62994l-1.48589,-0.27249l-2.36217,-0.13692l-2.4904,-0.24899l-1.18101,-0.07471l-0.13882,0.02685c0,0 -0.36414,0.06069 -0.72962,-0.08178zM82.35068,127.79965l0.5865,-0.08818l1.31856,0.0007l2.20581,0.14688l2.22867,0.28049l1.34665,0.00505l1.27696,-0.28377l1.70433,-0.00745l1.97765,0.02416l2.47907,0.26131l1.98507,0.0007l2.23126,-0.28074l2.34771,-0.14673l2.61695,0.01046l2.28804,0.79016l0.76391,2.3627l0.15884,1.57092l0.00155,1.53502v6.47276l-0.00001,1.70745l-0.01847,2.38506l-0.01971,2.52111l-0.10397,2.49299l0.00027,2.10224l-0.00128,1.22031l0.13539,1.47815l0.28713,2.16245l0.05628,1.53477l0.08982,2.52071l0.0002,1.65681v7.5l-0.00006,2.48802l0.03947,2.0568l0.04791,2.49954l0.04793,2.5462l-0.14039,2.54279l-0.13885,2.49929l-0.13272,2.1899l-0.15883,2.57671l-0.38914,2.02458l-0.49756,2.55031l-1.00503,2.21418l-2.12381,0.40349l-1.52012,0.00095l-2.35631,-0.14756l-2.00142,-0.28047l-2.4137,0.00298l-1.45476,-0.00052l-2.46595,-0.14189l-2.46408,0.00052l-1.21061,-0.00176l-1.33088,0.14188l-2.46325,-0.0025l-1.64626,0.27782l-1.66411,0.15084l-1.36201,0.00005l-2.50351,-0.00234l-2.5191,-0.01656l-2.5486,-0.08089l-2.56976,-0.22281l-2.50964,-0.40072l-1.94444,-0.30366l-1.18346,-0.40679l-1.78615,0.01614h-1.56072l-1.65439,-0.00093l-1.91773,0.14923l-2.48765,0.20731l-2.4826,0.20685l-2.32053,0.22631l-2.48343,0.24216l-2.48149,0.26122l-2.46073,0.25876l-2.3252,0.3422l-2.45696,0.36121l-1.36713,0.23848l-2.46285,0.42942l-2.63197,0.44716l-3.54598,-0.76531l0.05404,-2.14597l-0.00667,-1.32701l0.14758,-2.06901l0.28573,-2.14616l0.18484,-1.83702l0.38947,-2.47709l0.27051,-2.38725l-0.00196,-2.42995v-2.5l0.00192,-1.48797l0.14188,-1.27696l-0.00191,-2.11306l0.00364,-2.59531l0.28763,-1.88591l0.13735,-2.07764l0.10586,-1.48207l0.17759,-2.48582l0.14007,-2.37634l0.0362,-2.50389l0.24674,-2.41909l-0.22345,-2.26956l-0.2413,-2.52321l-0.10196,-2.53709l-0.05979,-1.81621l-0.08275,-2.5192l-0.00003,-2.5395l0.06659,-2.20225l0.0753,-2.47992l0.00065,-2.43766l0.16856,-2.20244l0.94339,-2.21969l2.10236,-0.71827l1.93963,-0.4457l1.36126,-0.15331l1.58182,-0.14383l1.90105,-0.14534l1.30378,0.00976l2.27834,-0.61631l2.65211,-0.24439l1.63609,0.0048l1.41884,-0.28377l1.62725,-0.0048l1.56072,-0.14189l1.90114,-0.00128h6.10102l2.18021,0.00108l1.79769,0.14948l1.79649,0.27902l1.69754,0.00709l2.53717,0.13325l1.96186,0.14029l2.45621,-0.00044l2.53944,0.00297l2.53391,0.1599z" fill="#000000" stroke-width="0.5"/><path d="M82.3096,130.28978l0.13898,-0.02678l1.18249,0.07532l2.49339,0.2504l2.36473,0.13832l1.4875,0.27348c0,0 0.95845,0.17467 1.3373,-0.62939l0.30073,-0.06662l1.41833,0.00829l1.84811,0.02106l2.4954,0.2637l2.27291,0.00062l2.31021,-0.28567l2.19366,-0.13594l2.20815,-0.00931l0.8338,0.06159l0.08796,1.04318l0.12561,1.26761l-0.00084,1.41141l0.00328,6.47764l0.00085,1.69925l-0.01728,2.37759l-0.01791,2.48122l-0.10316,2.50534l0.00052,2.15676l0.00172,1.33519l0.14886,1.64535l0.28091,2.09677l0.04928,1.41575l0.08891,2.47932l-0.00013,1.61431l-0.00082,7.50967l-0.00061,2.51504l0.03915,2.08318l0.04698,2.50231l0.04687,2.45542l-0.1381,2.45197l-0.13973,2.49533l-0.13347,2.18551l-0.14491,2.41606l-0.36445,1.86485l-0.45394,2.36037l-0.13057,0.90789l-0.71413,-0.11943l-1.31817,-0.00025l-2.185,-0.1351l-2.08016,-0.28606l-2.5879,-0.00146l-1.38387,0.00135l-2.46771,-0.14043l-2.53805,0.00107l-1.34454,0.0026l-1.33227,0.14278l-2.53945,0.00404l-1.76116,0.29083l-1.4592,0.13376l-1.24916,-0.00183l-2.49989,-0.00116l-2.48439,-0.01519l-2.45264,-0.07632l-2.41541,-0.20802l-2.43151,-0.38913l-1.74744,-0.264l-1.37278,-0.44474l-2.19016,-0.01669l-1.56318,-0.00054l-1.75348,0.00021l-2.02428,0.15445l-2.49827,0.20661l-2.503,0.20697l-2.34043,0.2266l-2.49525,0.24165l-2.49304,0.26077l-2.51359,0.26325l-2.37758,0.34793l-2.49117,0.36503l-1.4006,0.24334l-2.46391,0.42833l-2.29459,0.41072l-1.42969,0.26723l0.51352,-0.40793l0.00592,-1.51156l0.13528,-1.90487l0.28084,-2.11164l0.1804,-1.80912l0.38636,-2.46391l0.28778,-2.58343l0.00068,-2.57249l-0.00118,-2.50257l-0.00251,-1.35119l0.14138,-1.27835l0.00105,-2.25397l-0.00442,-2.40768l0.27945,-1.80534l0.14599,-2.18179l0.10525,-1.47817l0.17851,-2.50495l0.14379,-2.45117l0.03414,-2.45622l0.25137,-2.55961l-0.23409,-2.51639l-0.23474,-2.45692l-0.09684,-2.46169l-0.05865,-1.8093l-0.08053,-2.48054l0.00129,-2.46277l0.0669,-2.16627l0.07753,-2.51978l0.00062,-2.38809l0.11619,-1.77152l0.19224,-0.90241l1.01965,-0.13366l1.75046,-0.40679l1.19338,-0.13119l1.54062,-0.14088l1.78915,-0.13953l1.53496,-0.01065l2.39249,-0.63533l2.32941,-0.20973l1.77074,-0.00583l1.42038,-0.28467l1.49572,0.00397l1.56249,-0.14275l1.78989,0.00037l6.10887,-0.00254l2.07925,-0.00168l1.60984,0.13394l1.89527,0.28825l1.82518,0.01377l2.45967,0.12964l2.03042,0.14377l2.54754,0.00176l2.46402,0.00251l2.45942,0.15724l0.42341,0.02695c0.36549,0.14247 0.73058,0.08215 0.73058,0.08215z" fill="#ffffff" stroke-width="0.5"/><path d="M91.64533,136.61162c-0.01018,-0.05556 -0.0178,-0.11427 -0.02257,-0.17631c-0.07466,-0.97049 0.66454,-1.24341 0.99537,-1.31668c0.2101,-0.24363 0.82072,-0.80026 1.65374,-0.24491c0.0465,0.031 0.08954,0.0627 0.12933,0.09497l0.26439,-0.02021l1.75059,-0.00092l2.02344,0.04188l2.42429,1.34981l1.40672,1.42079l0.67942,1.47695l0.63359,1.46456l0.1787,1.62878l0.14147,2.06936l-0.68782,2.55955l-1.01222,1.38536l-1.62757,1.7608l-2.11539,1.05722l-2.07502,0.17766l-2.23915,-0.83345l-2.21632,-1.42613l-1.36235,-0.93068l-1.12389,-1.6841l-0.51472,-2.48344l0.00138,-1.96218l0.37145,-1.61891l1.09074,-1.74918l0.70074,-1.12111zM94.02558,137.50363l-0.79994,1.33315l-0.7181,1.14904l-0.89563,1.37228l-0.19608,0.935l0.00138,1.44304l0.33658,1.77308l0.57872,0.86981l0.96647,0.60959l1.98154,1.29013l1.44983,0.58539l1.04643,-0.10611l1.28983,-0.64538l1.21012,-1.36066l0.6904,-0.88478l0.44725,-1.69698l-0.1423,-1.61963l-0.10507,-1.2089l-0.50147,-1.08936l-0.45566,-1.07696l-0.86343,-0.84936l-1.54847,-0.92033l-1.38178,0.04188l-1.65464,-0.00092z" fill="#000000" stroke-width="0.5"/><path d="M55.27418,141.04987l1.526,-0.38685l2.40315,-0.64705l1.32856,-0.35643l2.46616,-0.43644l2.52023,-0.43991l2.08588,0.02569l2.57991,1.19035l2.25578,1.3822l2.06538,1.65372l1.72141,1.71601l1.95051,1.40392l2.13708,1.56202l1.72983,2.00163l0.94101,1.11044l0.67475,1.33303l0.89716,2.46417l0.69708,2.55065l0.30856,2.57513l0.30016,2.54908l0.02701,2.2662l-0.00851,2.42287l-0.62603,2.65461l-0.91782,2.41301l-0.9694,2.50261l-1.66331,2.16565l-1.72524,1.91077l-1.77759,1.80221l-1.86147,1.85488l-2.24576,1.49943l-2.38804,1.19681l-2.46746,0.80293l-1.43051,0.44722l-2.03946,0.0153l-1.78028,-0.00241l-2.36877,-0.29385l-2.55212,-0.40978l-2.47006,-0.65568l-2.27109,-0.5948l-2.12821,-1.45524l-0.945,-0.95495l-1.27696,-0.70942l-1.89891,-1.88182l-1.0174,-1.02751l-1.38181,-2.13817l-1.1803,-2.21257l-1.03936,-2.33673l-0.82454,-1.96146l-1.03145,-2.22529l-0.6121,-2.57561l-0.42759,-2.5721l-0.15293,-2.71917l0.44545,-2.32681l0.65783,-2.5177l0.92007,-2.46797l1.16125,-2.29322l0.58498,-1.14341l0.70804,-2.26675l1.07352,-2.06242l1.96535,-1.36031l2.00337,-1.22135l2.11277,-0.65408l1.60379,-0.16503zM52.6954,143.65057l-0.15799,0.0152l-1.57623,0.48099l-1.68562,1.04881l-1.43988,0.90983l-0.62909,1.3428l-0.7108,2.27354l-0.67138,1.33287l-1.10103,2.16572l-0.82585,2.2173l-0.60428,2.32038l-0.38852,1.9384l0.14282,2.27208l0.3944,2.35987l0.52297,2.24845l0.95493,2.03124l0.83376,1.98253l0.99133,2.23233l1.08985,2.04395l1.1721,1.83459l0.83867,0.82855l1.63663,1.65372l1.27696,0.70942l1.04138,1.03143l1.56078,1.09868l1.86453,0.45087l2.36178,0.63014l2.38509,0.38018l2.17153,0.27369l1.62494,-0.00242l1.64954,0.0153l1.05015,-0.35619l2.28928,-0.73765l2.08094,-1.04556l1.91649,-1.27106l1.67206,-1.68267l1.73396,-1.75714l1.62637,-1.7996l1.40069,-1.78554l0.813,-2.1689l0.86458,-2.25851l0.53207,-2.20942l-0.00851,-2.11743l-0.02184,-2.11893l-0.288,-2.4162l-0.27959,-2.39015l-0.62558,-2.27123l-0.81155,-2.23481l-0.46032,-0.93711l-0.75565,-0.8656l-1.52734,-1.7919l-1.90905,-1.37546l-2.10289,-1.52353l-1.76846,-1.75701l-1.83688,-1.47237l-2.00822,-1.22899l-1.93878,-0.95008l-1.31934,0.02569l-2.30383,0.41139l-1.06383,0.18717c0.06838,0.15267 0.11022,0.33952 0.11022,0.56822c0,1.25 -1.25,1.25 -1.25,1.25l-1.62156,-0.04844l-0.9969,-0.67815l-1.44049,0.4271l-1.70166,0.15631l-0.08224,-0.00001l-2.31304,0.14102c0,0 -0.16452,0.00968 -0.37761,-0.03773z" fill="#000000" stroke-width="0.5"/><path d="M56.61703,145.59434l0.20079,-0.06797l1.7762,-0.7344l1.59859,-0.3244l1.54156,-0.1541l1.84255,0.00087l2.55471,0.33499l1.96779,0.96653l2.11079,1.40513l2.11429,1.22092l1.82925,1.66685l1.22821,1.23453l1.15553,1.66708l0.84568,2.59915l0.61037,2.53692l0.2281,1.67534l0.14203,1.98774l0.28938,2.30228l-0.54744,2.68609l-0.62564,2.40044l-0.48632,1.88215l-0.80973,1.32425l-1.14516,1.71797l-0.94382,1.39884l-1.73901,1.58884l-1.37779,0.92231l-2.06581,1.23475l-1.1082,0.925l-1.58574,0.5496l-2.80107,0.46127l-2.72932,-0.82544l-2.37164,-0.97915l-1.86431,-0.86017l-1.57841,-0.71769l-1.52994,-0.7695l-1.81313,-1.33752l-1.53831,-2.27268l-1.37318,-2.25281l-0.97324,-2.53249l-0.3927,-1.85164l-0.58706,-1.78575l-0.16515,-2.18591l-0.00079,-2.54455l0.00505,-1.86879l0.29188,-1.6294l0.17991,-1.45006l0.96379,-1.96696l1.36447,-2.11959l1.01519,-1.16346l1.22153,-1.65812l0.0292,-0.0222c-0.02976,-0.07495 -0.05515,-0.15741 -0.07531,-0.24812c-0.27117,-1.22024 0.94907,-1.4914 0.94907,-1.4914l1.35556,-0.29861l1.43542,-0.12493l0.56305,-0.22624l0.4946,-0.16715c0,0 0.13251,-0.04417 0.32371,-0.05868zM56.07902,148.39933l-0.69819,0.27788l-1.13357,0.6293l-0.92483,0.67988l-1.04862,1.46332l-0.97119,1.1067l-1.18944,1.85317l-0.73882,1.43826l-0.10386,1.10386l-0.27566,1.49205l0.00505,1.64427l-0.0008,2.45544l0.11861,1.78686l0.54801,1.61946l0.37749,1.79792l0.81815,2.13559l1.23725,2.01164l1.23519,1.88757l1.30833,0.93263l1.30774,0.64935l1.54304,0.70115l1.82468,0.84244l2.22481,0.92041l2.03859,0.68021l2.02299,-0.39003l0.96818,-0.30171l0.87817,-0.7776l2.19072,-1.31917l1.17613,-0.7803l1.38244,-1.24884l0.7588,-1.15508l1.12499,-1.68724l0.60911,-0.9459l0.36498,-1.52308l0.61446,-2.35494l0.48261,-2.20666l-0.27816,-1.95424l-0.14175,-1.98502l-0.19843,-1.47118l-0.56068,-2.32401l-0.6782,-2.16297l-0.83085,-1.1706l-1.04193,-1.03562l-1.57597,-1.45459l-1.95475,-1.11342l-2.04946,-1.36837l-1.43744,-0.73608l-1.98559,-0.23255l-1.56267,0.00086l-1.29612,0.12968l-1.23909,0.24313l-1.62903,0.68445z" fill="#000000" stroke-width="0.5"/><text transform="translate(120.34718,147.9836) scale(0.5,0.5)" font-size="40" xml:space="preserve" fill="#ffffff" stroke-width="1" font-family="&quot;RifficFree-Bold&quot;, Sans Serif" font-weight="normal" text-anchor="start"><tspan x="0" dy="0">instagram</tspan></text><text transform="translate(116.64896,177.5694) scale(0.5,0.5)" font-size="40" xml:space="preserve" fill="#ffffff" stroke-width="1" font-family="&quot;segoeuib&quot;, Sans Serif" font-weight="normal" text-anchor="start"><tspan x="0" dy="0">xinxinmckenzie40 (soon may change to realxin)</tspan></text></g></g></svg>