<svg version="1.1" xmlns="http://www.w3.org/2000/svg" xmlns:xlink="http://www.w3.org/1999/xlink" width="641.32885" height="302.55448" viewBox="0,0,641.32885,302.55448"><g transform="translate(0.99475,-0.41395)"><g stroke-miterlimit="10"><path d="M-0.99475,300.52657v-300.11262h641.32885v300.11262z" fill="#ffffff" stroke="none" stroke-width="0" stroke-linecap="butt"/><text transform="translate(12.49652,45.31318) scale(1.0068,1.0068)" font-size="40" xml:space="preserve" fill="#000000" stroke="none" stroke-width="1" stroke-linecap="butt" font-family="&quot;HPSimplified&quot;, Sans Serif" font-weight="400" text-anchor="start"><tspan x="0" dy="0">RealXin - Community</tspan></text><path d="M76.60934,295.81246l-1.39373,-106.71245l-4.16688,0.05993l-59.15264,3.81307l-3.53683,-9.6311l450.17867,-1.83891l-445.79035,2.01944l113.5157,-20.54775l120.29845,-5.46193l13.2001,-5.93491l99.05257,-0.78344l84.74734,26.39076l15.29412,5.02497l5.20693,19.64811l-4.20488,0.9838l-21.00465,-12.43194l-392.8248,-0.42866l0.66283,107.6078z" fill="none" stroke="#000000" stroke-width="1.5" stroke-linecap="round"/><path d="M511.01477,283.72338l-1.5947,-141.19276l19.46758,-0.81859l0.612,148.20867l-17.31288,-0.94361l-0.92019,-11.3743l-15.9746,0.26822l-17.07241,-1.16507l-31.15031,0.80067l-6.774,1.57216l-1.17166,22.85604l-392.40379,-5.03846" fill="none" stroke="#000000" stroke-width="1.5" stroke-linecap="round"/><path d="M110.27587,166.36571l-3.20786,-79.48707l140.25938,-1.40175l10.47528,9.6852l185.76607,-5.3135l-1.36902,50.14793l3.23351,0.13303l2.14737,20.91037l30.68985,1.95666l25.27388,-12.61023l6.70749,0.04458" fill="none" stroke="#000000" stroke-width="1.5" stroke-linecap="round"/><path d="M107.99773,98.02197l-31.43609,-11.93566l-3.15092,-7.76437l184.7092,-2.11799l14.1232,10.99205l189.19256,-4.2471l-0.3684,31.44926l-18.77469,0.8471l19.04366,-1.76146l84.35852,18.97137l-11.82748,17.55918l74.41677,35.68272l-3.00913,5.6601l-76.91937,-36.71109l66.46602,32.11663l2.64724,93.11401l-69.69151,1.29728" fill="none" stroke="#000000" stroke-width="1.5" stroke-linecap="round"/><path d="M527.64365,155.07948l0.75357,-12.69357l-82.15413,0.55321l-1.0408,-2.81909l-3.23351,-0.13303l-0.42684,-6.49553l105.54812,-1.21028" fill="none" stroke="#000000" stroke-width="1.5" stroke-linecap="round"/><path d="M459.35434,201.82713l4.57308,-1.06136l-5.6295,-18.81784l-9.38263,-2.57308l0.10447,-8.32742l25.9251,-0.32157l-0.28947,35.1542l-26.32051,-1.31419c0,0 0.37807,-6.56203 0.29303,-7.78285c-0.02706,-0.38859 -0.87482,-0.5699 -0.87482,-0.5699z" fill="#0006ff" stroke="#000000" stroke-width="1.5" stroke-linecap="round"/><path d="M447.07945,278.91661l0.24175,-65.31578l31.60447,0.25221l-0.85316,63.19462" fill="none" stroke="#000000" stroke-width="1.5" stroke-linecap="round"/><path d="M452.11088,258.51282l2.58141,-37.27269l16.04946,0.48561l-0.47459,37.01003z" fill="#d800ff" stroke="#000000" stroke-width="1.5" stroke-linecap="round"/><path d="M480.04857,262.98085l1.38345,-63.34746l9.45916,-0.65885l-0.17719,63.74642z" fill="#fff900" stroke="#000000" stroke-width="1.5" stroke-linecap="round"/><path d="M440.489,190.73976l-1.03558,110.08538l-34.81492,1.36239l3.59677,-112.90149z" fill="none" stroke="#000000" stroke-width="1.5" stroke-linecap="round"/><path d="M74.53486,209.22055l197.07964,-1.32417l1.25473,92.6255l-197.13316,-3.74339" fill="none" stroke="#000000" stroke-width="1.5" stroke-linecap="round"/><path d="M300.78319,301.32092l-1.21528,-93.58455l108.02878,0.07762" fill="none" stroke="#000000" stroke-width="1.5" stroke-linecap="round"/><path d="M395.58526,139.77651l-55.03691,-0.06939l0.02724,-41.7008l55.76658,-1.25127z" fill="#3fff00" stroke="#000000" stroke-width="1.5" stroke-linecap="round"/><path d="M236.82522,137.04385l-54.84064,-0.73666l-0.69762,-44.60078l55.58417,-0.9211z" fill="#ff0000" stroke="#000000" stroke-width="1.5" stroke-linecap="round"/><path d="M100.26986,78.83426l114.93455,-11.31077l17.24954,3.41098l94.58393,-9.10899l133.87407,20.78705" fill="none" stroke="#000000" stroke-width="1.5" stroke-linecap="round"/><path d="M528.12102,190.51758l50.89588,0.28293l-2.11117,75.77139l-48.15227,-3.3895z" fill="#d800ff" stroke="#000000" stroke-width="1.5" stroke-linecap="round"/><path d="M79.65867,145.37392c-0.04704,-0.00954 -0.08864,-0.02268 -0.12542,-0.03865l-0.18171,0.14494l-0.3143,0.18699l0.04633,0.53049l0.28772,0.9015l0.30113,0.95358l0.19393,0.63348l-0.00754,0.74011l0.24943,0.48244l0.16979,1.06399l0.10706,0.69598l0.12791,0.76779l0.12313,0.61815l0.28308,0.94186l0.22973,0.85214l0.27441,0.84296l0.00646,1.08009l-0.00278,0.50496l0.20121,0.92571l0.18059,0.84279l0.12345,0.62209l0.2525,0.75456l0.29583,0.96132l0.24168,0.80435l0.00459,0.56249l0.12114,0.96133l0.11767,0.95371l0.26635,0.91818l0.25921,0.83897l0.13303,0.66248l0.11937,0.48025l0.35513,0.94986l0.18447,0.96897l0.00172,0.43959h1.30444l0.95622,0.00192l0.93841,-0.16821l0.97981,-0.18515l0.98261,-0.18567l0.76466,-0.14441l0.99679,-0.15343l0.54173,-0.08187l0.8322,-0.00127l-0.42072,-1.68287l-0.16502,-0.66018l-0.2259,-0.97882l-0.16066,-0.69735l-0.28295,-0.94227l-0.28735,-0.95783l-0.20506,-0.68356l-0.27564,-0.96468l-0.27472,-0.96152l-0.23116,-0.80922l-0.25074,-0.97492l-0.74712,-2.90548l-0.17305,-0.67304l-0.23433,-0.97631l-0.23337,-0.97239l-0.22951,-0.95732l-0.28906,-0.94105l-0.29339,-0.95599l-0.26729,-0.87139l-0.33265,-0.93105l-0.32035,-0.89877l-0.24906,-0.99377l-0.24254,-0.97014l-0.24509,-0.98086l-0.20188,-0.99066l-0.19956,-0.97989l-0.16778,-0.82517l-0.25908,-0.94894l-0.26312,-0.96476l-0.25112,-0.92088l-0.28257,-0.95356l-0.56818,-1.9176l-0.19001,-0.64199l-0.2325,-0.98723l-0.23126,-0.98332l-0.19135,-0.99186l-0.18424,-0.95853l-0.27611,-0.93621l-0.28231,-0.95932l-0.16207,-0.55246l-0.20095,-1.00225l-0.19612,-0.98058l-0.11748,-0.59569l-0.35027,-0.93339l-0.21092,-0.98815l-0.30408,-0.92443l-0.17452,-0.53382l-0.22285,-1.00006l-0.21481,-0.96703l-0.25117,-0.95823l-0.22775,-0.87241l-0.13035,-0.91139l-0.24747,-1.00017l-0.0154,-0.8356l-0.28035,-0.92189l-0.16942,-1.0027l-0.2246,-0.98999l-0.08462,-0.89829l-0.38166,-0.62752l-0.21541,-1.04197l-0.27357,-0.93963l-0.28401,-0.97847l-0.1377,-0.67986l-0.4674,-0.83145l-0.39916,-0.96042l-0.33674,-0.93257l-0.37454,-0.84909l-0.00762,-0.69392l-0.10249,-0.40683l-0.4561,-0.92066l-0.09304,-0.64712l-0.00016,-0.52166l-0.11781,-0.93888l-0.18656,-0.87987l-0.44763,-0.77381l0.01481,-0.69525l-0.19161,0.12227h-1l-0.9058,-0.0017l-0.71824,0.12103l-0.42968,0.10222l-0.64901,0.38941l-1.04022,0.26567l-0.49387,0.11327l-0.51921,0.38941l-0.48775,0.11343l-0.41201,0.43766l-0.38941,0.38941l-0.28102,0.2272l0.03806,0.32787l-0.0023,0.95211l0.1775,0.90605l0.16405,0.51546c0.0802,0.0318 0.16066,0.09292 0.23196,0.19987c0.15697,0.23546 0.09184,0.4265 0.00573,0.54797l0.19524,0.6153l0.29721,0.93753l0.35885,0.91571l0.37036,0.94658l0.30782,0.96872l0.19334,0.61405l0.40961,0.82019l0.60873,0.82385l0.28179,0.82747l0.40358,0.88622l0.24197,0.53302l0.35735,0.95211l0.35046,0.93458l0.35747,0.93192l0.35879,0.93538l0.37216,1.00639l0.05329,0.67706l0.22153,0.93471l0.21287,0.91885l0.31259,0.62807l0.32817,0.98081l0.20783,0.62431l0.25884,0.98258l0.25449,0.96707l0.14741,0.56451l0.12925,1.0251l0.12225,0.97936l0.17348,0.9716l0.07792,0.46613l0.40143,0.82126l0.01212,0.85825l0.13765,0.95468l0.10983,0.78312l0.31517,0.94429l0.16413,1.00899l0.22663,0.95534l0.17918,0.78206l0.38995,0.65035l0.2484,1.0491l0.165,0.71503l0.21738,0.97817l0.21248,0.95779l0.28499,0.93877l0.29014,0.95698l0.29616,0.98576l0.09772,1.04629l0.0131,0.14407l0.59953,-0.48036l0.59892,0.77964l0.02548,0.00147l-0.0151,0.01204l0.10395,0.13532c0,0 -0.09942,0.49002 -0.58943,0.3906zM77.36631,146.28405l-0.65531,0.21904l-0.93648,0.35041l-0.97512,0.24368l-0.86519,0.10183l-0.44176,0.22396l-0.65177,0.13467l-0.77303,0.10859l-0.62338,0.20934l-0.8853,0.3881l-1.06354,0.21479l-0.55847,0.04296l-1.01593,0.0761l-1.04984,-0.00061l-0.91827,-0.11478l-0.59336,0.00097h-4l-1.01972,-0.00039l-0.6678,-0.05241l-1.00206,-0.07926l-0.97935,-0.09835l-0.95629,-0.01528l-1.05572,-0.10676l-0.79478,-0.21027l-0.9705,-0.25882l-0.64971,-0.18561l-0.9586,-0.2739l-0.92279,-0.25156l-0.97815,-0.26686l-0.96193,-0.32044l-0.96826,-0.32321l-0.77361,-0.33406l-0.87935,-0.17116l-0.95808,-0.18671l-0.97215,-0.09668l-0.97019,-0.09764l-0.92642,0.00062h-0.99983l-0.5799,0.0004l-0.99884,0.00068l-0.99069,0.00523l-0.99116,0.0376l-0.96338,0.03519l-0.94407,0.17496l-0.93487,0.18509l-0.84977,0.33164l-0.95097,0.36848l-0.92979,0.27584l-0.86128,0.46247l-0.96758,0.38762l-0.87576,0.29201l-0.94873,0.31609l-0.97035,0.32276l-0.99532,0.23472l-0.92896,0.21638l-0.7926,0.35254l-0.88822,0.39151l-0.82374,0.48719l-0.77238,0.51075l-0.50758,0.56053l-0.68244,0.74616l-0.71492,0.7151l-0.68091,0.6788l-0.38691,0.53198l-1.18003,1.61478l-0.6218,0.84657l-0.55826,0.51095l-0.74087,0.67351l-0.40548,0.36493l-1.17081,0.78859l-0.60732,-0.78201l-0.13553,-0.5804l-0.22092,-0.97263l-0.23103,-0.97028l-0.23642,-0.99526l-0.09192,-0.63968l-0.13054,-0.93555l-0.21543,-0.55696l-0.36398,-0.95728l-0.27108,-0.98761l-0.26717,-0.97607l-0.2204,-0.98768l-0.21765,-0.97603l-0.22118,-0.9933l-0.15126,-1.00632l-0.14566,-0.97287l-0.14586,-0.66971l-0.21243,-0.97718l-0.20974,-0.96547l-0.22314,-0.83114l-0.77739,-2.89753l-0.26081,-0.97227l-0.22355,-0.93128l-0.23337,-0.97239l-0.23488,-0.97884l-0.1824,-0.85965l-0.41501,-1.95647l-0.20841,-0.9826l-0.11951,-0.61735l-0.38004,-1.96356l-0.1915,-0.98978l-0.12967,-0.81003l-0.63196,-3.94976l-0.15637,-0.97789l-0.09855,-0.49227l-0.39223,-1.96116l-0.19729,-0.98666l-0.14952,-0.85735l-0.34353,-1.97028l-0.17119,-0.98191l-0.18407,-0.97958l-0.19111,-1.02877l0.00028,-1.09564l0.215,-0.82815l0.59362,-0.3514l0.40421,-0.30505l0.64292,-0.57609l0.88596,-0.48445l0.65357,-0.54771l0.62068,-0.49301l0.69901,-0.35077l0.79197,-0.56571l1.01773,-0.30173l0.95182,-0.37672l1.07541,-0.20348l1.04666,-0.00218l1.01355,0.00018l0.57889,0.03123l0.99853,0.05418l1.00763,0.05476l1.01321,0.0921l0.59458,0.07389l1.00805,0.12565l0.97091,0.18438l0.97015,0.07386l0.53874,0.0426l1.01525,0.08062l1.00664,0.15457l1.01629,0.15721l0.9784,0.26622l0.54978,0.11619l0.97831,0.20714l1.02332,0.21888l0.88997,0.37555l0.52967,0.03129l1.0322,0.07495l0.66358,0.14095l0.95661,0.20546l0.79193,0.09887l0.99222,0.12447l0.99914,0.12538l0.99527,0.15311l1.01629,0.15721l0.93688,0.25801l0.6875,0.02381l0.99923,0.03929l0.98552,0.03894l0.98616,-0.01554l0.98459,-0.01509l0.98063,-0.07567l0.8339,-0.06803l0.9789,-0.07953l0.97062,-0.1499l0.98833,-0.15231l0.98742,-0.15217l0.98685,-0.15582l0.97395,-0.15358l0.91548,-0.19787l0.97747,-0.21106l0.9812,-0.21185l0.98431,-0.1969l0.98058,-0.19614l0.95448,-0.19018l0.92825,-0.29249l1.90799,-0.59965l0.96826,-0.30408l0.82892,-0.20746l0.97014,-0.24254l0.95302,-0.23793l0.49617,-0.16249l0.88749,-0.2852l0.30543,-0.20581l-0.20402,-0.64478l-0.20388,-1.05725l-0.0023,-1.04789l0.03806,-0.71055l0.49779,-0.55162l0.38941,-0.38941l0.62641,-0.60076l0.55067,-0.14617l0.51921,-0.38941l0.68111,-0.18047l0.90007,-0.2194l0.64901,-0.38941l0.60874,-0.15739l0.83939,-0.13858l0.98828,-0.0017h1l0.84681,0.12227l0.27442,1.12199l0.43496,0.73945l0.24042,1.07402l0.13026,1.04568l-0.00016,0.51676l0.05095,0.41968l0.43833,0.86819l0.15711,0.63159l-0.00762,0.6041l0.32331,0.68366l0.34302,0.94837l0.36721,0.88693l0.50389,0.91687l0.17094,0.78688l0.27417,0.94206l0.28461,0.9809l0.17682,0.91919l0.39716,0.67051l0.12283,1.05177l0.21917,0.96016l0.16229,0.9696l0.29435,0.99376l0.01874,0.85859l0.2376,0.94011l0.12925,0.90585l0.21484,0.81671l0.25576,0.97646l0.21906,0.98534l0.21101,0.95232l0.16034,0.48673l0.31945,0.97589l0.20528,0.96807l0.35197,0.93927l0.13648,0.67409l0.19612,0.98058l0.19128,0.95891l0.15048,0.50959l0.28231,0.95932l0.28852,0.98243l0.19442,1.0053l0.1873,0.97196l0.22681,0.96351l0.22558,0.9596l0.18231,0.61457l0.56818,1.9176l0.28561,0.96403l0.25404,0.93138l0.26312,0.96476l0.26716,0.98059l0.17482,0.85707l0.19956,0.97989l0.19724,0.96911l0.23998,0.95943l0.24254,0.97014l0.23601,0.94652l0.305,0.85222l0.34002,0.95244l0.27418,0.89295l0.29339,0.95599l0.29772,0.97093l0.23724,0.98746l0.23337,0.97239l0.23242,0.96847l0.17107,0.66521l0.74712,2.90548l0.24734,0.96206l0.22759,0.7964l0.27472,0.96152l0.27381,0.95836l0.20319,0.67725l0.28735,0.95783l0.29174,0.97338l0.16844,0.72873l0.22382,0.96997l0.16286,0.65135l0.32894,1.31574l0.26969,-0.27714l0.53979,-0.23557c0,0 0.47434,-0.15811 0.63246,0.31623c0.15811,0.47434 -0.31623,0.63246 -0.31623,0.63246l-0.14891,-0.006l-0.39527,0.38083l-0.36667,0.71271l-0.96902,0.08597l-0.88015,-0.00146l-0.46592,0.07315l-0.97996,0.15069l-0.74787,0.14139l-0.98261,0.18567l-0.98541,0.18619l-1.03091,0.18071l-1.04378,0.00192h-1.06584c0.01368,0.04787 0.0215,0.10258 0.0215,0.16511c0,0.5 -0.5,0.5 -0.5,0.5l-0.87448,-0.62127l0.10074,-0.38984c-0.0118,-0.04518 -0.01847,-0.09626 -0.01847,-0.154c0,-0.07962 0.01268,-0.14656 0.034,-0.20284l-0.00139,-0.17048l0.00222,-0.47214l-0.1517,-0.79285l-0.34712,-0.9228l-0.14023,-0.55817l-0.12658,-0.63554l-0.2481,-0.79879l-0.28783,-1.00351l-0.1304,-1.03085l-0.12693,-1.02323l0.00459,-0.47593l-0.20857,-0.65896l-0.29234,-0.95023l-0.26671,-0.80307l-0.13616,-0.67593l-0.17917,-0.83608l-0.21785,-1.02989l-0.00278,-0.61031l0.00646,-0.91991l-0.24481,-0.71467l-0.23399,-0.86668l-0.29161,-0.9738l-0.13647,-0.67987l-0.1317,-0.78984l-0.10803,-0.70215l-0.13432,-0.91275l-0.26978,-0.55598l-0.00754,-0.81752l-0.15918,-0.48469l-0.30113,-0.95358l-0.31454,-1.00566l-0.02566,-0.27281zM66.17378,105.36958l-1.01355,0.33612l-0.53006,0.17291l-0.98726,0.24714l-0.97014,0.24254l-0.80015,0.19981l-0.93973,0.29558l-1.90799,0.59965l-0.97974,0.30717l-1.00668,0.20209l-0.98058,0.19614l-0.97684,0.19537l-0.97375,0.21027l-0.97747,0.21106l-0.94296,0.2034l-1.00157,0.15834l-0.98868,0.15611l-0.98925,0.15245l-0.98833,0.15231l-1.00605,0.15472l-1.01448,0.08308l-0.83621,0.06821l-1.01348,0.07773l-1.01517,0.01604l-1.01359,0.01559l-1.01294,-0.03964l-0.99923,-0.03929l-0.80039,-0.03469l-0.99265,-0.26822l-0.96044,-0.14699l-0.98146,-0.15109l-0.98531,-0.12355l-0.99222,-0.12447l-0.83461,-0.10517l-0.99899,-0.21359l-0.59478,-0.1287l-0.96272,-0.06754l-0.68937,-0.05578l-0.95619,-0.39369l-0.9333,-0.1954l-0.97831,-0.20714l-0.57787,-0.12257l-0.95112,-0.26002l-0.96044,-0.14699l-0.97009,-0.14963l-0.97853,-0.07703l-0.53767,-0.04252l-1.02396,-0.07953l-0.99416,-0.18774l-0.97666,-0.12123l-0.57815,-0.07199l-0.97858,-0.08898l-0.98944,-0.0536l-0.99853,-0.05418l-0.55182,-0.03012l-0.98645,0.00018l-0.95334,-0.00218l-0.88976,0.16815l-0.90659,0.36241l-0.90338,0.25445l-0.71219,0.52218l-0.6784,0.33793l-0.52716,0.42526l-0.72384,0.60013l-0.86983,0.47325l-0.58568,0.53232l-0.51406,0.38366l-0.32465,0.10774l-0.01457,0.31969l0.00028,0.90436l0.17822,0.93683l0.18526,0.98602l0.17234,0.98836l0.34353,1.97028l0.14732,0.84516l0.19494,0.9745l0.39223,1.96116l0.10216,0.5113l0.15961,0.99699l0.63196,3.94976l0.12697,0.79399l0.18854,0.97378l0.38004,1.96356l0.11777,0.6086l0.2066,0.97387l0.41501,1.95647l0.17956,0.8467l0.23187,0.96593l0.23337,0.97239l0.22037,0.91838l0.25745,0.95941l0.77739,2.89753l0.22909,0.85442l0.21512,0.98889l0.21243,0.97718l0.15226,0.70166l0.15102,1.00501l0.14542,0.97155l0.21412,0.95876l0.21765,0.97603l0.2149,0.96437l0.26112,0.95289l0.2572,0.94135l0.34789,0.91174l0.2491,0.66267l0.1523,1.04435l0.08438,0.59438l0.22682,0.95035l0.23222,0.97533l0.22209,0.97769l0.08267,0.37713l0.18688,-0.3251l0.40362,-0.36326l0.73901,-0.67183l0.48711,-0.43939l0.55823,-0.76821l1.18003,-1.61478l0.43479,-0.59246l0.73331,-0.73541l0.69929,-0.69912l0.66717,-0.72983l0.59446,-0.6447l0.89172,-0.59865l0.89843,-0.52973l0.94117,-0.41678l0.87879,-0.38595l1.01787,-0.24169l0.95151,-0.22336l0.92711,-0.30943l0.94873,-0.31609l0.84796,-0.28229l0.88938,-0.35516l0.90245,-0.48053l0.98637,-0.29717l0.91365,-0.35484l0.9315,-0.35935l1.02629,-0.20714l1.02293,-0.18686l1.03519,-0.0405l1.00741,-0.03809l1.00928,-0.00545l1.00116,-0.00069l0.58024,-0.0004h1.00017l0.97624,0.00062l1.01988,0.10136l1.01793,0.10233l1.0052,0.19479l0.98255,0.19717l0.83337,0.35465l0.92911,0.30925l0.93544,0.31202l0.95143,0.25918l0.92865,0.25318l0.96445,0.27555l0.6412,0.18322l0.96197,0.2565l0.71628,0.19268l0.93435,0.09225l0.95629,0.01528l1.01073,0.10066l0.99172,0.07838l0.62842,0.05008l0.98028,-0.00039h4l0.6555,0.00097l0.91827,0.11478l0.95016,-0.00061l0.97843,-0.07399l0.49768,-0.03652l0.89762,-0.17744l0.82664,-0.36751l0.75403,-0.2498l0.83395,-0.12098l0.49607,-0.0949l0.47651,-0.23518l0.97136,-0.12774l0.86143,-0.21546l0.90006,-0.3383l0.7221,-0.24009l0.88584,-0.19112l-0.05887,-0.64752l-0.08335,-0.9455l-0.27162,-0.88695l-0.29014,-0.95698l-0.29529,-0.9752l-0.22138,-0.99458l-0.21649,-0.9742l-0.1641,-0.71106l-0.20132,-0.89969l-0.38886,-0.64767l-0.22602,-0.92852l-0.23436,-0.99081l-0.15447,-0.96547l-0.31729,-0.95308l-0.12653,-0.87145l-0.14519,-1.02522l0.01212,-0.69938l-0.37739,-0.73637l-0.11317,-0.60518l-0.17772,-0.99733l-0.12582,-1.00519l-0.11882,-0.95945l-0.13264,-0.4997l-0.25449,-0.96707l-0.25014,-0.95157l-0.19814,-0.59359l-0.30428,-0.91656l-0.32888,-0.67037l-0.24521,-1.02799l-0.23655,-1.01212l-0.04158,-0.61423l-0.33041,-0.86614l-0.35748,-0.93196l-0.3588,-0.93542l-0.35178,-0.93808l-0.3449,-0.92055l-0.22845,-0.5019l-0.42402,-0.93451l-0.23743,-0.73016l-0.57369,-0.76217l-0.48481,-0.96866l-0.21986,-0.68752l-0.29735,-0.93753l-0.35886,-0.91574l-0.37037,-0.94661l-0.3077,-0.96879l-0.09632,-0.30355z" fill="#000000" stroke="none" stroke-width="0.5" stroke-linecap="butt"/><path d="M51.64178,120.69617c-0.10407,-0.14307 -0.10407,-0.31869 -0.10407,-0.31869l0.59806,-0.94943l0.59367,0.11915l0.75503,0.22032l0.61311,-0.00479l0.58704,-0.01435l0.96016,-0.0961l0.67252,-0.11236l0.82464,-0.11869l0.93422,0.44636l0.08353,1.14932l0.11478,0.57392l0.00147,0.59212l0.10264,0.81332l0.12403,0.99228l0.11342,0.90817l0.11324,0.67882l0.11834,0.71389l0.1302,0.9784l0.21834,1.00145l0.03519,1.02637l0.10648,0.97745l0.09972,0.99715l0.09885,0.9889l0.11695,0.94309l-0.01718,0.85324l-0.54481,0.85375l-0.92886,0.19978l-0.72995,0.0017l-0.80358,-0.01338l-0.51773,-0.24725l-0.80589,-0.20226l-0.51283,0.00375l-0.62509,-0.04939l0.06787,0.1366l0.54789,0.65225l0.63984,0.76696l0.64002,0.76068l0.69418,0.79948l0.20328,0.42349l0.55364,0.43558l0.51647,0.76463l0.40348,0.71714l0.35289,1.23189l-0.51752,0.76292l-0.51665,0.27102l-0.5253,0.37871l-0.81328,0.14987l-0.90444,0.11257l-0.72313,0.1629l-1.01198,0.29838l-0.86184,-0.00491l-0.8485,-0.35579l-0.60034,-0.11013l-1.00134,-0.11742l-1.28284,-0.39707l-0.10755,-0.83752l-0.09015,-0.46092l-0.18909,-0.37044l-0.41335,-0.62267l-0.45914,-0.45914l-0.4597,-0.68939l-0.53453,-0.53504l-0.71366,-0.74195l-0.63253,-0.80739l-0.62095,-0.79376l-0.59602,-0.81265l-0.63206,-0.87196l-0.2978,-0.86861l-0.3059,-0.9153l-0.20753,-0.41375l-0.10393,0.50888l-0.34279,0.79837l-0.13112,0.72656l-0.44516,0.88807l-0.11794,0.82476l-0.09875,0.98456l-0.10508,0.9693l0.0005,0.98789l-0.05671,0.96773l-0.05807,0.9836l-0.04913,0.77583l-0.7551,0.66371l-0.57399,0.28389l-0.80209,0.13759l-0.72995,0.0017l-0.62761,-0.00375l-0.86967,0.22113l-0.52135,0.0999l-0.7361,0.35804l-1.06621,0.01338l-0.93891,-0.00375l-0.80589,0.20226l-0.7473,0.36203l-1.08387,-0.01481l-0.8754,-0.75226l0.08699,-0.93952l0.13165,-0.99315l0.44448,-0.8826l0.31232,-0.9725l0.54218,-0.87253l0.34449,-0.77827l0.40372,-0.90845l0.37906,-0.91006l0.36036,-0.95128l0.44914,-0.89876l0.3092,-0.77415l0.36614,-0.91476l0.25284,-0.75921l0.30656,-0.91599l0.15264,-0.8204l0.18552,-0.98919l0.13613,-0.63548l0.21007,-0.76578l-0.30746,-0.35151l-0.20145,-0.86713l-0.32405,-0.23727l-0.82467,-0.69368l-0.58246,-0.90664l-0.52599,-0.82955l-0.58403,-0.78976l-0.58856,-0.79658l-0.61878,-0.77333l-0.63082,-0.78868l-0.42655,-0.57872l-0.5932,-0.80506l-0.59538,-0.80804l-0.56876,-0.79624l-0.56059,-0.7868l-0.5034,-0.53221l-0.69966,-0.74264l-0.68648,-0.86988l-0.19598,-0.63529l-0.41674,-0.2931l-0.54973,-0.82245l-0.22862,-1.22526l0.88754,-0.52007l1.0386,-0.09266l0.86065,-0.21122l0.6318,-0.36427l0.82217,-0.01814l0.70179,0.00017l1.0123,0.05388l1.00171,0.18129l0.91464,0.11424l0.75717,0.12973l0.74421,0.31504l0.72828,0.35353l0.38213,-0.19384c0,0 0.46424,-0.1857 0.64993,0.27854c0.01886,0.04715 0.03102,0.09143 0.03764,0.13293l0.30798,0.07106l0.64063,0.62473l0.29142,0.70669l0.09197,0.51231l0.29758,0.37658l0.50331,0.77294l0.63568,0.801l0.49145,0.92371l0.46406,0.87669l0.44675,0.78223l0.4978,0.75064l0.03152,0.22735l0.29969,-0.435l0.08903,-0.70946l0.15115,-0.69359l0.35183,-0.47509l0.16347,-0.61128l0.52629,-0.88306l0.22723,-0.56914l0.44115,-0.76141l0.10554,-0.5469l0.58197,-1.09388l1.04911,0.06823l0.64827,0.22128l0.42448,-0.00162l0.72837,-0.21307l0.78955,-0.24498l0.99659,0.00054l0.68871,-0.22957l0.7688,-0.00646h1.49219l0.73797,0.00243l1.02023,0.54598l-0.59093,0.63895l-0.2685,0.69863l-0.42023,0.59545l0.01902,0.4783l-0.14269,0.69616l-0.4565,0.82214l-0.15293,1.09089l-0.47844,0.37545l-0.07856,0.40712l-0.33116,0.9916l-0.2992,0.63857l-0.34522,0.8924l-0.25324,0.93069l-0.11718,0.50822l-0.22538,0.97661l-0.1558,0.64809l-0.46748,1.9446l-0.2464,1.01607l-0.40075,0.89696l-0.18216,0.2609l0.29968,-0.08199l0.98088,0.36683l0.48288,0.24067l0.5559,0.29291l0.34435,0.45914l0.72188,0.37468l0.25989,0.49232l0.38147,0.26946l0.65654,0.54006l0.39382,0.76244l0.31657,0.52908l0.36296,0.47053l0.4472,0.22922l-0.04392,-0.13153l-0.1262,-0.99781l-0.00065,-0.93152l-0.04258,-0.59172l-0.07203,-1.01103l-0.01521,-0.88679l-0.01639,-0.98332l-0.07982,-0.95964l-0.11275,-0.67416l-0.089,-0.62278l-0.13927,-0.97624l-0.1457,-0.72754l-0.20339,-1.02937l-0.00243,-0.85276l0.05279,-0.35031l-0.31192,-0.16796c0,0 -0.22725,-0.17044 -0.21071,-0.42567z" fill="#000000" stroke="none" stroke-width="0.5" stroke-linecap="butt"/><path d="M59.06815,119.83424l-0.06366,-0.41378c0,0 -0.07603,-0.49419 0.41816,-0.57021c0.49419,-0.07603 0.57021,0.41816 0.57021,0.41816l0.04306,0.27988l0.03668,-0.01515l0.62141,0.25663l0.46092,0.09015l0.60474,0.00402l0.78059,0.25362l0.54442,0.21979l0.785,0.2405l0.25405,0.84306l0.0903,0.63074l0.14519,1.02522l0.00126,0.72415v5.22913l0.12744,-0.12662l0.34435,-0.68871l0.65194,-0.65929l0.41544,-0.3015l0.31821,-0.54244l0.67878,-0.71227l0.56793,-0.75786l0.3817,-0.62126l0.52263,-0.84926l0.35672,-0.59326l0.82511,-0.67579l0.64168,0.9238l0.23886,1.00916l0.22928,0.97446l0.11974,0.51885l0.22919,0.99517l0.1063,0.76602l0.20847,0.5117l0.35352,0.82734l0.2333,0.81437l0.21523,0.57258l0.35688,0.95217l0.29246,0.97389l0.27322,0.91718l0.21535,0.42669l0.35027,0.75724l0.41903,0.90606l0.42532,0.90312l0.42352,0.89939l0.45572,0.9129l0.38535,1.14434l-0.28167,0.65654l-0.33823,0.60347l-0.72678,0.32587l-0.66506,0.25631l-0.89804,0.00902h-0.68871l-1.12668,-0.11849l-0.27554,-0.94453l-0.22451,-0.62275l-0.3381,-0.94676l-0.2243,-0.67417l-0.35842,-0.84618l-0.12747,-0.86203l-0.11386,-0.68297l-0.11055,-0.66642l-0.20077,-0.76531l-0.26532,-1.03019l0.00375,-0.38352l-0.21738,0.36381l-0.2749,0.52769l-0.57719,0.49667l-0.5251,0.69701l-0.33786,0.90601l-0.46164,0.69353l-0.22416,0.56333l-0.33802,0.56067l-0.21942,0.66505l-0.32296,0.69206l-0.36066,0.90162l-0.26856,0.77102l-0.6978,0.77188l-0.64489,0.82266l-1.03318,0.43493l-0.27543,-1.10485l-0.11478,-0.91827l-0.00097,-0.83456l0.0001,-0.90828l-0.03455,-0.86121l-0.03997,-0.9992l-0.03993,-0.99833l-0.02787,-0.64106l-0.04344,-0.99906l-0.04054,-0.96279l-0.10534,-0.54359l-0.1879,-0.98219l-0.18721,-0.97866l-0.20128,-0.97587l-0.20199,-0.97939l-0.20286,-0.98367l-0.18567,-0.98706l-0.18473,-0.9822l-0.187,-0.98177l-0.18668,-0.98009l-0.18124,-0.90619l-0.19612,-0.98058l-0.19819,-0.99157l-0.04053,-0.26302l-0.61227,-0.07909z" fill="#000000" stroke="none" stroke-width="0.5" stroke-linecap="butt"/><path d="M521.53509,126.51334c0,-0.5 0.5,-0.5 0.5,-0.5l0.80283,0.27639l0.17374,0.37739l0.02945,0.02082l0.37999,-0.89388l0.37964,-0.89241l0.33117,-0.92793l0.33634,-0.94174l0.32626,-0.91027l0.20126,-0.94579l0.83696,-3.91146l0.21221,-0.99089l0.26447,-0.97823l0.52232,-1.93059l0.26042,-0.96253l0.24938,-0.96545l0.50021,-1.93644l0.18821,-0.72858l0.25973,-0.9681l0.77739,-2.89753l0.22217,-0.82709l0.19269,-0.96477l0.19612,-0.98058l0.18133,-0.90663l0.18849,-0.98019l0.18885,-0.98201l0.18649,-0.96881l0.13393,-0.97746l0.13593,-0.99072l0.07845,-0.57085l0.09974,-1.05001l0.3622,-0.98581l0.28339,-0.9424l0.28822,-0.95756l0.28731,-0.9545l0.27508,-0.9581l0.27597,-0.96117l0.21797,-0.75684l0.37016,-0.92485l0.25281,-0.93747l0.17484,-0.64531l0.30641,-0.91084l0.09906,-0.94143l0.1115,-1.02231l0.22504,-1.00345l0.21662,-0.96143l0.16024,-0.97242l0.1371,-0.82131l0.3196,-0.96156l0.20876,-0.95113l0.16022,-0.7268l0.25856,-0.94447l0.12766,-0.95839l0.13317,-0.99109l0.13292,-0.98921l0.14456,-1.07772l0.24785,-0.47405l0.12893,-0.72575l0.35257,-0.47732l0.20046,-0.83532l0.07412,-0.97998l0.14329,-0.80949l0.14785,-0.80055l0.48366,-0.64631l0.71842,-0.34195l1.21347,0.24526l0.84778,0.46723l0.61524,0.09545l0.60159,0.12067l0.86695,0.2495l0.50148,0.24834l0.58908,0.32323l0.24378,0.49218c0.1138,0.07477 0.17577,0.17805 0.17577,0.17805l0.28983,0.49957l0.7221,0.55086l0.78935,0.61394l0.50483,0.39329l0.74782,0.69728l2.19317,2.04695l0.47767,0.44986l0.81576,0.47862l0.86093,0.50873l0.81719,0.48319l0.83974,0.57223l0.82623,0.56334l0.80233,0.54802l0.86001,0.45215l0.88474,0.46608l0.66562,0.35133l0.90364,0.3675l0.92609,0.3773l0.91385,0.3725l0.93228,0.32363l0.74038,0.25736l0.79009,0.22553l0.82787,0.23721l0.89003,0.35995l0.92854,0.10554l0.70694,0.08379l0.98588,0.07028l0.62477,0.04486l1.00643,0.13395l0.69757,0.09412l0.88516,-0.0011h1l0.88198,0.00483l0.80349,-0.22957l0.98762,-0.00483h4.52525l0.68128,0.0017l1.00139,0.16587l0.95861,0.05735l0.75518,0.00465l0.82212,0.00902l0.57392,-0.22957l0.61921,-0.00659l0.55329,-0.11231l1.04049,-0.08728l1.01537,-0.02132l0.53411,-0.01106l1.03199,0.00069l1.07874,0.11887l1.03744,0.36715l0.89097,0.49628l0.87024,0.49728l0.73874,0.42213l0.79135,0.45242l0.93383,0.47069l0.80954,0.68089l0.84425,0.7293l0.39943,1.16948l-0.07707,1.11678l-0.16062,1.00755l-0.31565,1.97493l-0.15641,0.97801l-0.11873,0.9833l-0.11997,0.99278l-0.12345,1.01673l-0.22003,1.00029l-0.21539,0.97653l-0.19588,0.88784l-0.24418,0.97692l-0.24254,0.97014l-0.21594,0.85605l-0.39967,0.89366l-0.15748,0.9797l-0.39589,0.9796l-0.18876,0.45705l-0.18462,0.93458l-0.14973,0.74838l-0.22646,0.98157l-0.12181,0.52739l-0.26589,0.97529l-0.26735,0.96466l-0.26978,0.97309l-0.3075,0.96183l-0.28012,0.87522l-0.36396,0.94687l-0.20291,0.52373l-0.20754,0.94028l-0.23019,1.02435l-0.25321,0.56782l-0.18786,0.95163l-0.26607,0.86746l-0.22509,0.90101l-0.22382,0.96997l-0.12725,0.54729l-0.34974,0.96443l-0.35017,1.00591l-0.88443,0.79302l-0.62722,-1.01154l-0.19878,-0.50602l-0.53098,-0.7378l-0.56227,-0.67418l-0.55902,-0.67163l-0.68071,-0.6803l-0.72752,-0.64514l-0.77102,-0.61673l-0.52726,-0.42204l-0.74052,-0.64873l-0.79679,-0.5593l-0.75809,-0.53894l-0.88083,-0.29881l-0.83885,-0.29153l-0.88218,-0.48931l-0.90111,-0.34571l-0.4438,-0.17326l-0.93558,-0.16788l-1.01634,-0.17664l-0.56305,-0.22663l-0.85201,-0.10239l-0.99788,-0.11092l-0.84266,-0.11914l-0.95969,-0.1073l-0.97255,-0.00227l-0.99944,-0.00082l-0.56423,-0.00046h-0.80328h-4.32874l-1.04666,-0.00218l-1.04023,-0.19463l-0.97278,-0.23128l-1.02499,-0.19639l-0.94896,-0.40783l-0.92924,-0.30579l-0.9495,-0.31614l-0.94887,-0.31593l-0.96054,-0.32034l-0.60117,-0.24335l-0.83654,-0.00738l-1.01387,-0.54574l-0.5859,-0.41415l-0.89505,-0.33288l-0.87416,-0.48564l-0.93765,-0.37158l-0.35888,-0.47045l-0.80315,-0.35391l-0.60844,-0.28162l-0.5808,-0.34806l-0.69906,-0.3502l-0.85112,-0.56635l-0.76484,-0.47205l-0.59941,-0.36095l-0.55796,-0.44849l-0.73357,-0.37669l-0.48686,-0.59807l-0.74376,-0.51515l-0.86954,-0.49086l-0.82355,-0.56918l-0.31431,-0.17938l-0.08711,0.55635l-0.18562,0.99028l-0.15657,0.83254l-0.101,1.00477l-0.22372,0.98l-0.11618,0.96481l-0.11206,0.99772l-0.14375,1.03098l-0.31652,0.94992l-0.13217,0.94154l-0.11314,0.89571l0.00046,0.79502l-0.09347,1.03189l-0.14671,1.0017l-0.2263,0.78688l-0.07078,0.95281l-0.10008,1.00074l-0.06191,0.58798l-0.24084,0.73189l-0.22565,0.79018l-0.25529,0.93269l-0.14771,0.99844l-0.30031,0.96014l-0.16132,0.94392l-0.14961,1.06166l-0.369,0.74694l-0.10903,0.66961l-0.22803,0.56831l-0.12664,0.84166l-0.35817,0.60866l-0.25457,0.85458l-0.09603,0.6512l-0.5377,0.57699l-0.41053,0.50994l-0.09623,0.1297l0.34408,0.0573c0,0 0.4932,0.0822 0.411,0.5754c-0.0822,0.4932 -0.5754,0.411 -0.5754,0.411l-0.70116,-0.11697l-0.90726,-0.11428h-0.71124l-0.98937,-0.1228l-0.7686,-0.13037l-0.96371,-0.35931l-0.80299,-0.23048l-0.60294,-0.12114l-0.81496,-0.27744l-0.44436,-0.3271c-0.09702,0.11744 -0.2765,0.24573 -0.55948,0.13254c-0.12375,-0.0495 -0.20132,-0.11879 -0.24853,-0.19381h-0.36926c0,0 -0.5,0 -0.5,-0.5c0,-0.31016 0.19239,-0.42792 0.33849,-0.47263l-0.21011,-0.39931l0.09159,0.27639c0,0 -0.5,0 -0.5,-0.5zM535.60416,98.79157c0.12127,-0.48507 0.60634,-0.3638 0.60634,-0.3638l0.4836,0.12765l0.16364,-0.98167l0.11221,-0.78443l0.07245,-0.82131l0.0916,-1.02572l0.21128,-1.0079l0.2055,-0.97608l0.10893,-0.53928l0.04095,-0.62109l0.15406,-1.04395l0.28837,-0.97653l0.21101,-0.95054l0.1487,-0.79819l0.30686,-0.90397l-0.00467,-0.88045l0.13501,-0.79969l0.2257,-1.01328l0.22655,-0.6773l0.14159,-0.8256l0.19007,-0.93815l-0.00087,-0.67893l0.11686,-0.7314l0.32568,-0.96564l0.23029,-0.96466l0.29549,-0.97811l0.31597,-0.94787l0.25155,-0.84216l0.33141,-0.92455l0.24638,-1.05352l0.45368,-0.56215l0.09195,-0.6428l0.18348,-0.99509l0.21423,-0.98496l0.21867,-1.00198l0.31156,-0.95139l0.20288,-0.78289l-0.08687,-0.16668l-0.32919,-0.13591l-0.41679,-0.21079l-0.74003,-0.20963l-0.54626,-0.1089l-0.76217,-0.13412l-0.87294,-0.47632l-0.7389,-0.1886l-0.19985,0.11719l-0.20504,0.27196l-0.08172,0.57686l-0.13674,0.76574l-0.07906,1.01415l-0.28461,1.10496l-0.33614,0.44095l-0.10064,0.65166l-0.24178,0.45542l-0.1067,0.90644l-0.13341,0.99298l-0.13317,0.99109l-0.13867,1.0238l-0.26767,0.98506l-0.1546,0.70271l-0.22139,1.00207l-0.31286,0.93581l-0.12115,0.74385l-0.16536,1.0009l-0.22257,0.98975l-0.21415,0.94774l-0.10379,0.96607l-0.11623,1.04694l-0.32605,0.98653l-0.16693,0.61768l-0.26961,0.99309l-0.37262,0.93211l-0.20283,0.70872l-0.27597,0.96117l-0.27686,0.96423l-0.28913,0.96062l-0.28822,0.95756l-0.29305,0.97273l-0.33494,0.88875l-0.08133,0.94177l-0.0813,0.59352l-0.13593,0.99072l-0.13793,1.00398l-0.1912,0.99521l-0.18885,0.98201l-0.1892,0.98382l-0.18205,0.91026l-0.19612,0.98058l-0.19955,0.99639l-0.23005,0.85847l-0.77739,2.89753l-0.25853,0.96359l-0.18703,0.72406l-0.50021,1.93644l-0.25083,0.97098l-0.2619,0.96806l-0.52232,1.93059l-0.25784,0.95236l-0.20627,0.96484l-0.83696,3.91146l-0.21722,1.00994l-0.34642,0.97322l-0.33634,0.94174l-0.3415,0.95555l-0.39077,0.91971l-0.38917,0.91533l-0.04267,0.10669l0.40038,0.14964l0.905,0.09709l0.98408,0.00324l1.04277,0.04983l0.99495,0.18027l1.04219,0.10591l0.96001,0.52117l0.06775,0.19748l-0.03349,-0.25427l0.50774,-0.63791l0.38058,-0.34128l0.01798,-0.41754l0.32012,-1.06107l0.33054,-0.53919l0.10293,-0.76532l0.2311,-0.57953l0.12054,-0.7078l0.3643,-0.73203l0.11735,-0.92044l0.17772,-1.02714l0.29755,-0.94841l0.14371,-0.98021l0.27094,-0.99683l0.23348,-0.8168l0.21829,-0.64552l0.04476,-0.47835l0.099,-0.98933l0.08261,-1.0413l0.23284,-0.8201l0.13135,-0.90918l0.0876,-0.9599l0.00046,-0.81196l0.12004,-0.96615l0.15004,-1.03845l0.31594,-0.94745l0.12531,-0.92769l0.1111,-0.98979l0.12431,-1.02068l0.22198,-0.96971l0.09801,-0.9853l0.16356,-0.87481l0.18296,-0.97547l0.13558,-0.86666l-0.18934,-0.08349l-0.37823,-0.08701c0,0 -0.48507,-0.12127 -0.3638,-0.60634zM538.31944,99.38117l0.82168,0.56801l0.87205,0.49244l0.8947,0.63178l0.43142,0.54977l0.64384,0.31202l0.58989,0.46979l0.54843,0.32775l0.78502,0.48466l0.81298,0.54306l0.67835,0.3385l0.56705,0.34065l0.56004,0.25767l1.01277,0.4842l0.32983,0.44783l0.75756,0.26412l0.87416,0.48564l0.9415,0.35583l0.65018,0.45111l0.73444,0.42554l0.77044,-0.00738l0.75621,0.28563l0.93683,0.31211l0.94871,0.31588l0.94808,0.31567l0.97021,0.32036l0.88657,0.38643l0.94033,0.17444l0.97298,0.23132l0.92494,0.17699l0.95334,-0.00218h4.32874h0.80369l0.56464,0.00046l1.00056,0.00082l1.02744,0.00388l1.02808,0.11356l0.84266,0.11914l0.98989,0.10994l0.98453,0.12718l0.58479,0.2325l0.91858,0.15429l1.03216,0.1899l0.53285,0.20284l0.96528,0.37302l0.86614,0.48198l0.7576,0.25945l1.00974,0.35368l0.87806,0.61129l0.83935,0.59094l0.76463,0.66828l0.51023,0.40811l0.7906,0.63281l0.76879,0.68191l0.73351,0.73392l0.58882,0.70578l0.58557,0.70323l0.61686,0.86918l0.10642,0.26233l0.13389,-0.39706l0.33375,-0.91515l0.11173,-0.48832l0.2259,-0.97882l0.23404,-0.93553l0.25997,-0.84447l0.20437,-1.00953l0.25648,-0.57794l0.20367,-0.92803l0.22632,-1.0121l0.22697,-0.59396l0.354,-0.91982l0.27095,-0.8479l0.30172,-0.94312l0.26437,-0.95426l0.2668,-0.96269l0.26035,-0.95423l0.11718,-0.50822l0.22326,-0.96722l0.14674,-0.73399l0.20761,-1.02658l0.22035,-0.54645l0.35913,-0.87241l0.1618,-0.99465l0.4126,-0.93396l0.19132,-0.77303l0.24254,-0.97014l0.24089,-0.96337l0.19278,-0.87425l0.21539,-0.97653l0.21075,-0.95277l0.11648,-0.96882l0.11997,-0.99278l0.1212,-1.00226l0.15924,-0.99692l0.31565,-1.97493l0.15503,-0.96739l0.07757,-0.87724l-0.23303,-0.72789l-0.66159,-0.5273l-0.71671,-0.61162l-0.85503,-0.42374l-0.81563,-0.46585l-0.73874,-0.42213l-0.86624,-0.495l-0.81188,-0.45609l-0.84697,-0.30294l-0.90977,-0.09522l-0.96801,0.00069l-0.52373,0.0109l-0.9842,0.02019l-0.9526,0.07881l-0.59456,0.11726l-0.52864,-0.00659l-0.57392,0.22957l-1.01442,0.00902l-0.78531,-0.0052l-1.03776,-0.06314l-0.9714,-0.16293l-0.5988,0.0017h-4.52525l-0.84892,-0.00483l-0.80349,0.22957l-1.02068,0.00483h-1l-0.95139,-0.0011l-0.7635,-0.10069l-0.97602,-0.13037l-0.59427,-0.04221l-1.00904,-0.07221l-0.73004,-0.08625l-1.0576,-0.12948l-0.96693,-0.38283l-0.77911,-0.22192l-0.81689,-0.2336l-0.76695,-0.26618l-0.957,-0.33258l-0.93833,-0.3821l-0.92609,-0.3773l-0.94854,-0.38709l-0.7095,-0.37309l-0.88474,-0.46608l-0.90947,-0.48002l-0.85012,-0.57866l-0.82623,-0.56334l-0.81272,-0.55444l-0.78961,-0.46628l-0.86093,-0.50873l-0.90609,-0.53884l-0.56094,-0.51951l-2.19317,-2.04695l-0.71429,-0.66736l-0.46999,-0.36491l-0.78935,-0.61394l-0.69042,-0.54567l-0.2968,0.90599l-0.20652,0.9523l-0.21096,0.96933l-0.17908,0.97177l-0.16398,0.87761l-0.46459,0.5857l-0.18748,0.89886l-0.34193,0.95869l-0.24823,0.83186l-0.31649,0.9495l-0.28321,0.93633l-0.23472,0.98053l-0.31579,0.9287l-0.09076,0.57043l-0.00087,0.69848l-0.20216,1.02301l-0.15488,0.88633l-0.23258,0.70011l-0.20816,0.9391l-0.11984,0.69147l-0.00467,0.9561l-0.3256,0.99339l-0.13712,0.74797l-0.22286,1.00183l-0.27987,0.94105l-0.13628,0.93486l-0.04403,0.64676l-0.12064,0.60857l-0.20652,0.98102l-0.20074,0.9492l-0.08458,0.9665l-0.07517,0.84802l-0.11736,0.82255l-0.16492,0.98969l-0.04322,0.27616z" fill="#000000" stroke="none" stroke-width="0.5" stroke-linecap="butt"/><path d="M558.68633,80.46997c0.06588,-0.03553 0.14952,-0.05809 0.25572,-0.05809c0.5,0 0.5,0.5 0.5,0.5v0.1579l-0.00077,0.58031l-0.09471,0.81038l-0.26076,0.62216l-0.21893,0.50401l-0.14205,0.72246l-0.11215,0.86644l-0.13845,0.97323l-0.04462,0.7308l0.37798,-0.37299l0.43516,-0.20607l0.45106,-0.68928l0.47371,-0.31581l0.26872,-0.4193l0.3904,-0.46779l0.53066,-0.7598l0.86963,-0.15657l0.85651,0.01241l0.53728,0.25641l0.78369,0.21278l0.64454,0.07086l0.80677,0.00126l0.94765,0.17153l1.04841,0.52987l-0.26634,0.91601l-0.32654,0.49136l-0.29325,0.48254l-0.52502,0.86332l-0.56038,0.84079l-0.55469,0.83206l-0.57725,0.86323l-0.7645,0.82507l-0.46068,0.23338l-0.51401,0.7546l-0.67566,0.74586l-0.56642,0.76395l-0.43447,0.64498l0.15371,0.3956l0.08468,0.90776l0.08082,0.68057l0.00089,1.02984l-0.00077,0.76187l0.07895,0.71056l-0.00023,0.62775l0.10018,0.78569l0.21002,0.98075l0.10147,0.88131l0.06279,1.02662l0.00023,1.01528v0.63161l-0.00202,0.75541l-0.1711,0.94639l-0.56733,1.2669l-0.8758,-0.1083l-0.87833,-0.07124l-0.59297,-0.00331l-1.01566,-0.25012l-0.51996,-0.15031l-0.64307,-0.07038l-0.99589,-0.00657l-1.36974,-0.3807l0.09423,-0.94541l0.14553,-0.64215l-0.00181,-0.69025l0.08391,-0.61195l0.03215,-0.98404l0.07659,-1.01591l0.1111,-1.0188l0.17172,-0.96837l0.03425,-0.8365l0.04188,-0.98856l-0.00008,-0.72068l-0.4097,0.26906l-0.42662,0.65616l-0.37084,0.43866l-0.29293,0.66963l-0.4527,0.80092l-0.47086,0.42254l-0.59879,0.7285l-0.56804,0.79573l-0.45881,0.67062l-0.61619,0.88875l-0.83465,0.60226l-0.97029,0.02514l-1.05163,-0.12277l-0.49444,-0.43185l-0.78922,-0.55018l-0.80246,-0.55666l-0.8387,-0.47614l-0.93272,-0.46989l-0.65283,-0.60113l-0.01734,-0.93495l0.46426,-0.60264l0.54345,-0.78626l0.51226,-0.26764l0.41251,-0.42164l0.39476,-0.39476l0.56649,-0.56597l0.55831,-0.47886l0.63342,-0.59495l0.8428,-0.63223l0.84088,-0.50397l0.53556,-0.22769l0.54302,-0.38933l0.88937,-0.56422l0.48734,-0.19561l0.22122,-0.23684l-0.05074,-0.71192l-0.05566,-1.00388l-0.00207,-0.49771l-0.07654,-0.99356l-0.01673,-0.90037l-0.05555,-0.9335l-0.16031,-0.56808l-0.00483,-0.62201v-0.71056l0.00001,-0.7926l0.01118,-0.81154l0.14809,-0.98586l-0.00138,-0.96281v-2.84225l0.00299,-0.76512l0.42686,-1.10097l1.06103,0.26778l0.39476,0.39476l0.46369,0.18895l0.83095,0.33523l0.53606,0.35471l0.31135,0.26645l0.49485,0.08764l0.92857,0.35761l0.84695,0.15238l0.65628,0.19446z" fill="#000000" stroke="none" stroke-width="0.5" stroke-linecap="butt"/><path d="M565.70852,92.63153c-0.00388,-0.05388 0.00013,-0.09003 0.00013,-0.09003l0.07866,-0.70783l0.07623,-0.73086l-0.07751,-0.67623l0.27167,-0.83353l0.70938,-0.39479l0.6663,-0.10044l0.71494,-0.00029l0.63237,-0.079l0.79014,0.00173l1.12101,0.09745l1.0286,0.68226l-0.13406,0.86238l-0.12047,0.5882l-0.37861,0.98849l-0.21171,0.45671l-0.34628,0.90687l-0.30125,0.91728l-0.23599,1.00933l-0.23841,0.47798l-0.21891,0.8877l-0.18063,0.83117l-0.20816,0.95516l-0.07827,0.6275l-0.16455,0.82315l-0.24555,0.91843l-0.27406,1.01407l-0.74273,1.18657l-0.87802,-0.23045l-0.61175,-0.13678l-0.62056,0.00173l-0.51739,0.07518l-0.47429,0.06123l-0.5427,0.25314l-1.05808,-0.30963l0.18363,-1.11832l0.23471,-0.8612l0.23769,-0.79241l0.19807,-0.6933l0.2947,-1.01828l0.30849,-0.5343l0.14929,-0.77144l0.2253,-0.97641l0.10878,-0.51681l0.21674,-1.02044l0.31662,-0.79219l0.14973,-0.68088l0.14263,-0.54237z" fill="#000000" stroke="none" stroke-width="0.5" stroke-linecap="butt"/><path d="M573.31648,89.21356c-0.18945,-0.14472 -0.18945,-0.40653 -0.18945,-0.40653l0.17991,-0.62097l0.56742,-0.45646l0.7969,-0.20834l0.6831,0.00109l0.60112,0.16715l0.77498,0.15461l0.67423,0.15162l0.7975,0.0383l1.09461,0.13603l0.93401,0.56799l-0.1157,1.28426l-0.17455,0.6102l-0.27222,0.63037l-0.38494,0.53434l-0.2188,0.67092l-0.34589,0.72337l-0.30126,0.91985l-0.3174,0.96487l-0.1846,0.46127l0.36316,-0.32284l0.40746,-0.32617l0.72787,-0.56572l0.48011,-0.32034l0.56996,-0.41459l0.73083,-0.65852l0.50191,-0.41745l0.56299,-0.36899l0.65825,-0.19308l0.54206,-0.07657l0.74535,-0.24377l0.72731,0.00257l0.78952,0.31581l0.53706,-0.00902l0.98286,0.00126l0.6663,0.10044l0.67818,0.36056l0.38116,0.78099l-0.18091,0.75552l-0.22729,0.59889l-0.06491,0.46801l-0.01085,0.70241l-0.15643,1.00188l-0.06967,0.98129l-0.0802,0.88167l-0.08457,0.66977l-0.2321,0.9167l0.00249,0.68492l-0.08702,0.61333l-0.15232,0.59659l0.00275,0.52304l-0.08865,0.70757l-0.15135,0.98315l-0.05183,0.49371l-0.10262,0.96837l-0.00577,0.60654l-0.32749,1.00079l-0.14894,0.67246l-0.16722,0.98678l-0.31231,0.77635l-0.07484,0.69281l-0.30415,0.96495l-0.41154,1.20513l-1.16828,0.18227l-0.82757,-0.57834l-0.3765,-0.40768l-0.5316,-0.07427l-0.96169,-0.47493l-0.86568,-0.56169l0.12657,-0.85827l0.0716,-0.50863l0.08365,-0.82022l0.24954,-0.92112l0.32345,-0.97068l0.22621,-0.59778l0.14893,-0.83012l0.18006,-0.88288l0.19858,-0.97331l0.16946,-0.95815l0.07833,-0.84161l0.09139,-0.92873l0.02095,-0.07284l-0.22645,0.22645l-0.5372,0.444l-0.60378,0.29622l-0.60483,0.67307l-0.8076,0.66237l-0.55431,0.42397l-0.80739,0.61709l-0.60242,0.40193l-0.82538,0.55017l-0.57878,0.41161l-0.54729,0.27329l-0.71022,0.19693l-0.4009,0.44994l-0.82428,0.5637l-0.63825,0.6954l-0.66953,0.72433l-0.67589,0.80958l-0.9055,0.63105l-1.03472,0.20185l-0.06934,-1.02754l0.25681,-0.98187l0.25947,-0.92814l0.09035,-0.75735l0.23894,-0.48059l0.10777,-0.81482l0.11479,-1.02205l0.13584,-0.52951l0.24619,-0.94889l0.16928,-0.96138l0.08569,-0.53748l0.16088,-1.00658l0.23752,-0.99129l0.2262,-0.93689l0.06278,-0.70512l0.09305,-1.01805l0.14042,-0.77508l0.17744,-0.97553l0.10247,-0.69727l0.14549,-0.98936l0.14251,-0.96494l0.02961,-0.63457l0.047,-0.97449l-0.02839,-0.5559z" fill="#000000" stroke="none" stroke-width="0.5" stroke-linecap="butt"/></g></g></svg>